<?xml version="1.0" encoding="UTF-8" standalone="no"?><!DOCTYPE svg PUBLIC "-//W3C//DTD SVG 1.1//EN" "http://www.w3.org/Graphics/SVG/1.1/DTD/svg11.dtd"><svg width="100%" height="100%" viewBox="0 0 1500 1500" version="1.1" xmlns="http://www.w3.org/2000/svg" xmlns:xlink="http://www.w3.org/1999/xlink" xml:space="preserve" style="fill-rule:evenodd;clip-rule:evenodd;stroke-linejoin:round;stroke-miterlimit:1.41421;"><rect id="Artboard1" x="0" y="0" width="1500" height="1500" style="fill:none;"/><path d="M743.119,362.003c17.957,0.189 35.883,0.911 53.777,2.357c34.249,2.765 68.183,7.965 101.646,15.506c23.252,5.231 46.032,11.594 68.655,19.009c115.943,38.098 221.518,103.941 311.853,185.51c29.221,26.393 57.029,54.452 82.794,84.098c9.74,11.186 19.324,22.591 28.436,34.248c6.755,8.563 13.354,17.235 19.481,26.158l15.239,22.089c-5.342,7.698 -10.683,15.711 -16.182,23.409l-5.027,7.07c-16.81,22.623 -34.877,44.303 -53.887,65.355c-20.895,23.095 -43.047,45.089 -65.984,66.141c-84.994,77.453 -183.655,141.08 -291.9,180.67c-17.753,6.442 -35.82,12.255 -54.044,17.439c-33.621,9.426 -68.027,16.653 -102.747,21.366c-60.799,8.013 -122.698,8.484 -183.655,1.1c-56.086,-6.913 -111.23,-20.424 -164.017,-40.376c-85.622,-32.206 -164.646,-80.437 -234.557,-139.352c-39.434,-33.306 -76.039,-69.911 -109.345,-109.344c-11.155,-13.354 -21.838,-26.865 -32.207,-40.691c-8.169,-10.997 -16.182,-22.308 -23.565,-33.934l-12.883,-20.895c4.713,-7.384 9.269,-14.925 13.982,-22.309l4.713,-7.07c14.611,-21.523 30.479,-42.261 47.289,-62.056c18.067,-21.366 36.92,-41.947 56.715,-61.428c74.624,-73.839 162.132,-135.581 259.065,-176.9c19.481,-8.326 39.276,-15.71 59.229,-22.308c44.303,-14.454 89.864,-24.666 135.895,-30.322c17.439,-2.199 35.034,-3.613 52.473,-4.399c9.898,-0.471 19.795,-0.785 29.536,-0.911l10.054,0l-0.832,0.77Zm-1.697,77.845c-15.176,0.157 -30.321,1.289 -45.293,3.582c-27.745,4.242 -54.877,12.286 -80.438,23.88c-31.861,14.391 -61.208,34.249 -86.502,58.349c-24.665,23.66 -45.56,51.405 -61.427,81.82c-13.354,25.875 -23.252,53.667 -28.908,82.291c-6.755,34.218 -7.698,69.598 -2.828,104.161c4.399,31.578 13.826,62.402 27.651,91.12c16.339,33.715 38.648,64.413 65.827,90.226c28.121,26.707 61.113,48.184 96.933,62.841c37.862,15.46 78.553,23.22 119.4,22.938c40.69,-0.236 81.38,-8.484 118.928,-24.383c35.663,-15.082 68.34,-36.92 96.148,-63.989c26.865,-26.079 48.859,-57.029 64.727,-90.963c13.511,-28.907 22.466,-59.857 26.551,-91.592c4.399,-34.563 2.985,-69.912 -4.085,-104.003c-6.284,-29.065 -16.653,-57.344 -30.792,-83.423c-16.339,-30.007 -37.706,-57.343 -62.999,-80.595c-25.294,-23.251 -54.39,-42.261 -85.937,-56.086c-25.765,-11.312 -52.944,-19.01 -80.751,-22.78c-15.082,-2.043 -30.322,-2.985 -45.498,-2.985l-0.707,-0.409Zm-294.304,65.513c-70.037,35.066 -134.073,81.93 -190.411,136.288c-33.934,32.772 -65.387,68.309 -93.1,106.517l-0.943,1.446c8.484,11.908 17.439,23.487 26.551,34.83c12.254,14.925 24.98,29.535 38.176,43.675c33.778,35.977 70.54,69.283 110.131,98.818c34.406,25.609 71.011,48.546 109.502,68.027c-19.167,-23.252 -35.506,-48.703 -48.703,-75.725c-17.281,-35.505 -29.221,-73.682 -34.877,-112.801c-5.97,-41.161 -5.341,-83.265 2.042,-124.112c6.442,-35.82 17.91,-70.54 34.092,-102.904c13.197,-26.551 29.379,-51.53 48.231,-74.153l-0.691,0.094Zm597.155,5.561c15.49,19.324 29.111,40.219 40.58,62.371c17.061,32.835 29.347,68.026 36.291,104.317c7.855,40.848 9.002,82.795 3.503,123.956c-5.247,39.119 -16.606,77.453 -33.557,113.272c-12.757,26.865 -28.625,52.159 -47.179,75.254c68.969,-34.878 132.707,-80.124 189.751,-132.125c36.134,-32.992 69.786,-68.812 100.107,-107.146l0.205,-0.314c-12.38,-16.025 -25.546,-31.421 -39.119,-46.346c-22.042,-24.351 -45.404,-47.445 -69.849,-69.283c-54.673,-48.86 -115.315,-91.435 -180.67,-124.584l-0.063,0.628Z"/><path d="M750.975,638.817c5.185,0.11 10.338,0.471 15.459,1.257c10.841,1.681 21.445,4.964 31.343,9.74c13.668,6.567 25.922,15.962 35.82,27.415c7.069,8.107 12.882,17.235 17.438,27.022c3.457,7.463 5.97,15.334 7.698,23.377c3.771,18.319 2.828,37.548 -2.67,55.411c-2.357,7.777 -5.656,15.271 -9.741,22.309c-5.656,10.055 -13.04,19.167 -21.68,26.928c-9.898,9.033 -21.524,16.244 -33.935,21.177c-12.882,5.106 -26.865,7.73 -40.69,7.73c-13.825,0 -27.808,-2.624 -40.69,-7.73c-12.411,-4.933 -24.037,-12.144 -33.935,-21.177c-8.64,-7.777 -15.867,-16.889 -21.68,-26.912c-4.085,-6.913 -7.384,-14.454 -9.741,-22.309c-5.498,-17.753 -6.441,-37.077 -2.828,-55.301c1.729,-8.012 4.242,-15.868 7.699,-23.409c4.556,-9.74 10.369,-18.852 17.281,-27.022c10.055,-11.468 22.309,-20.737 35.82,-27.336c9.898,-4.713 20.581,-8.012 31.421,-9.74c4.713,-0.629 9.426,-0.943 14.139,-1.1l4.242,0l-0.77,-0.33Z" style="fill:#f00;"/></svg>