<?xml version="1.0" encoding="UTF-8" standalone="no"?>
<!DOCTYPE svg PUBLIC "-//W3C//DTD SVG 1.1//EN" "http://www.w3.org/Graphics/SVG/1.1/DTD/svg11.dtd">
<svg width="100%" height="100%" viewBox="0 0 210 100" version="1.1" xmlns="http://www.w3.org/2000/svg" xmlns:xlink="http://www.w3.org/1999/xlink" xml:space="preserve" style="fill-rule:evenodd;clip-rule:evenodd;stroke-linejoin:round;stroke-miterlimit:1.41421;">
    <path d="M0,0L210,0L210,100L0,100L0,0Z" style="fill:none;"/>
    <path d="M104.628,3.27C105.771,3.282 106.912,3.328 108.051,3.42C110.231,3.596 112.391,3.927 114.521,4.407C116.001,4.74 117.451,5.145 118.891,5.617C126.271,8.042 132.991,12.233 138.741,17.425C140.601,19.105 142.371,20.891 144.011,22.778C144.631,23.49 145.241,24.216 145.821,24.958C146.251,25.503 146.671,26.055 147.061,26.623L148.031,28.029C147.691,28.519 147.351,29.029 147.001,29.519L146.681,29.969C145.611,31.409 144.461,32.789 143.251,34.129C141.921,35.599 140.511,36.999 139.051,38.339C133.641,43.269 127.361,47.319 120.471,49.839C119.341,50.249 118.191,50.619 117.031,50.949C114.891,51.549 112.701,52.009 110.491,52.309C106.621,52.819 102.681,52.849 98.801,52.379C95.231,51.939 91.721,51.079 88.361,49.809C82.911,47.759 77.881,44.689 73.431,40.939C70.921,38.819 68.591,36.489 66.471,33.979C65.761,33.129 65.081,32.269 64.421,31.389C63.901,30.689 63.391,29.969 62.921,29.229L62.101,27.899C62.401,27.429 62.691,26.949 62.991,26.479L63.291,26.029C64.221,24.659 65.231,23.339 66.301,22.079C67.451,20.719 68.651,19.409 69.911,18.169C74.661,13.469 80.231,9.539 86.401,6.909C87.641,6.379 88.901,5.909 90.171,5.489C92.991,4.569 95.891,3.919 98.821,3.559C99.931,3.419 101.051,3.329 102.161,3.279C102.791,3.249 103.421,3.229 104.041,3.221L104.681,3.221L104.628,3.27ZM104.52,8.225C103.554,8.235 102.59,8.307 101.637,8.453C99.871,8.723 98.144,9.235 96.517,9.973C94.489,10.889 92.621,12.153 91.011,13.687C89.441,15.193 88.111,16.959 87.101,18.895C86.251,20.542 85.621,22.311 85.261,24.133C84.831,26.311 84.771,28.563 85.081,30.763C85.361,32.773 85.961,34.735 86.841,36.563C87.881,38.709 89.301,40.663 91.031,42.306C92.821,44.006 94.921,45.373 97.201,46.306C99.611,47.29 102.201,47.784 104.801,47.766C107.391,47.751 109.981,47.226 112.371,46.214C114.641,45.254 116.721,43.864 118.491,42.141C120.201,40.481 121.601,38.511 122.611,36.351C123.471,34.511 124.041,32.541 124.301,30.521C124.581,28.321 124.491,26.071 124.041,23.901C123.641,22.051 122.981,20.251 122.081,18.591C121.041,16.681 119.681,14.941 118.071,13.461C116.461,11.981 114.609,10.771 112.601,9.891C110.961,9.171 109.231,8.681 107.461,8.441C106.501,8.311 105.531,8.251 104.565,8.251L104.52,8.225ZM85.787,12.395C81.329,14.627 77.253,17.61 73.667,21.07C71.507,23.156 69.505,25.418 67.741,27.85L67.681,27.942C68.221,28.7 68.791,29.437 69.371,30.159C70.151,31.109 70.961,32.039 71.801,32.939C73.951,35.229 76.291,37.349 78.811,39.229C81.001,40.859 83.331,42.319 85.781,43.559C84.561,42.079 83.521,40.459 82.681,38.739C81.581,36.479 80.821,34.049 80.461,31.559C80.081,28.939 80.121,26.259 80.591,23.659C81.001,21.379 81.731,19.169 82.761,17.109C83.601,15.419 84.631,13.829 85.831,12.389L85.787,12.395ZM123.797,12.749C124.783,13.979 125.65,15.309 126.38,16.719C127.466,18.809 128.248,21.049 128.69,23.359C129.19,25.959 129.263,28.629 128.913,31.249C128.579,33.739 127.856,36.179 126.777,38.459C125.965,40.169 124.955,41.779 123.774,43.249C128.164,41.029 132.221,38.149 135.852,34.839C138.152,32.739 140.294,30.459 142.224,28.019L142.237,27.999C141.449,26.979 140.611,25.999 139.747,25.049C138.344,23.499 136.857,22.029 135.301,20.639C131.821,17.529 127.961,14.819 123.801,12.709L123.797,12.749Z"/>
    <path d="M104.582,20.83C104.912,20.837 105.24,20.86 105.566,20.91C106.256,21.017 106.931,21.226 107.561,21.53C108.431,21.948 109.211,22.546 109.841,23.275C110.291,23.791 110.661,24.372 110.951,24.995C111.171,25.47 111.331,25.971 111.441,26.483C111.681,27.649 111.621,28.873 111.271,30.01C111.121,30.505 110.911,30.982 110.651,31.43C110.291,32.07 109.821,32.65 109.271,33.144C108.641,33.719 107.901,34.178 107.111,34.492C106.291,34.817 105.401,34.984 104.521,34.984C103.641,34.984 102.751,34.817 101.931,34.492C101.141,34.178 100.401,33.719 99.771,33.144C99.221,32.649 98.761,32.069 98.391,31.431C98.131,30.991 97.921,30.511 97.771,30.011C97.421,28.881 97.361,27.651 97.591,26.491C97.701,25.981 97.861,25.481 98.081,25.001C98.371,24.381 98.741,23.801 99.181,23.281C99.821,22.551 100.601,21.961 101.461,21.541C102.091,21.241 102.771,21.031 103.461,20.921C103.761,20.881 104.061,20.861 104.361,20.851L104.631,20.851L104.582,20.83Z" style="fill:rgb(255,0,0);"/>
    <g transform="matrix(2.45766,0,0,2.45766,-55.0423,-58.9072)">
        <path d="M40.289,59.657L38.531,59.657L38.531,56L35.103,56L35.103,59.657L33.345,59.657L33.345,51.125L35.103,51.125L35.103,54.582L38.531,54.582L38.531,51.125L40.289,51.125L40.289,59.657Z" style="fill:rgb(255,0,0);fill-rule:nonzero;"/>
        <path d="M45.206,59.657C45.128,59.504 45.072,59.315 45.036,59.088C44.626,59.545 44.093,59.774 43.437,59.774C42.816,59.774 42.301,59.594 41.893,59.235C41.485,58.875 41.281,58.422 41.281,57.875C41.281,57.203 41.53,56.688 42.028,56.328C42.526,55.969 43.245,55.787 44.187,55.784L44.966,55.784L44.966,55.42C44.966,55.127 44.891,54.893 44.74,54.717C44.59,54.541 44.353,54.453 44.029,54.453C43.743,54.453 43.52,54.522 43.358,54.659C43.196,54.795 43.115,54.983 43.115,55.221L41.421,55.221C41.421,54.854 41.534,54.514 41.761,54.202C41.988,53.889 42.308,53.644 42.722,53.466C43.136,53.288 43.601,53.2 44.116,53.2C44.898,53.2 45.518,53.396 45.977,53.788C46.436,54.181 46.665,54.733 46.665,55.444L46.665,58.192C46.669,58.793 46.753,59.248 46.917,59.557L46.917,59.657L45.206,59.657ZM43.806,58.479C44.056,58.479 44.286,58.423 44.497,58.312C44.708,58.201 44.865,58.051 44.966,57.864L44.966,56.774L44.333,56.774C43.486,56.774 43.034,57.067 42.98,57.653L42.974,57.752C42.974,57.963 43.048,58.137 43.197,58.274C43.345,58.41 43.548,58.479 43.806,58.479Z" style="fill:rgb(255,0,0);fill-rule:nonzero;"/>
        <path d="M49.813,51.758L49.813,53.317L50.897,53.317L50.897,54.559L49.813,54.559L49.813,57.723C49.813,57.957 49.858,58.125 49.948,58.227C50.038,58.328 50.21,58.379 50.464,58.379C50.651,58.379 50.817,58.366 50.962,58.338L50.962,59.621C50.63,59.723 50.288,59.774 49.936,59.774C48.749,59.774 48.143,59.174 48.12,57.975L48.12,54.559L47.194,54.559L47.194,53.317L48.12,53.317L48.12,51.758L49.813,51.758Z" style="fill:rgb(255,0,0);fill-rule:nonzero;"/>
        <path d="M54.579,59.774C53.649,59.774 52.892,59.489 52.308,58.918C51.724,58.348 51.432,57.588 51.432,56.639L51.432,56.475C51.432,55.838 51.555,55.269 51.801,54.767C52.047,54.265 52.396,53.878 52.847,53.607C53.298,53.335 53.813,53.2 54.391,53.2C55.258,53.2 55.941,53.473 56.439,54.02C56.937,54.567 57.186,55.342 57.186,56.346L57.186,57.037L53.149,57.037C53.204,57.452 53.369,57.784 53.644,58.034C53.92,58.284 54.268,58.409 54.69,58.409C55.342,58.409 55.852,58.172 56.219,57.7L57.051,58.631C56.797,58.991 56.454,59.271 56.02,59.472C55.587,59.673 55.106,59.774 54.579,59.774ZM54.385,54.571C54.049,54.571 53.777,54.684 53.568,54.91C53.359,55.137 53.225,55.461 53.167,55.883L55.522,55.883L55.522,55.748C55.514,55.373 55.413,55.083 55.217,54.878C55.022,54.673 54.745,54.571 54.385,54.571Z" style="fill:rgb(255,0,0);fill-rule:nonzero;"/>
        <path d="M64.26,52.549L61.647,52.549L61.647,59.657L59.889,59.657L59.889,52.549L57.311,52.549L57.311,51.125L64.26,51.125L64.26,52.549Z" style="fill-rule:nonzero;"/>
        <path d="M68.033,54.905C67.802,54.873 67.599,54.858 67.423,54.858C66.783,54.858 66.363,55.075 66.163,55.508L66.163,59.657L64.47,59.657L64.47,53.317L66.07,53.317L66.117,54.073C66.456,53.491 66.927,53.2 67.529,53.2C67.716,53.2 67.892,53.225 68.056,53.276L68.033,54.905Z" style="fill-rule:nonzero;"/>
        <path d="M72.405,59.657C72.327,59.504 72.27,59.315 72.235,59.088C71.825,59.545 71.292,59.774 70.636,59.774C70.014,59.774 69.5,59.594 69.092,59.235C68.683,58.875 68.479,58.422 68.479,57.875C68.479,57.203 68.728,56.688 69.226,56.328C69.724,55.969 70.444,55.787 71.386,55.784L72.165,55.784L72.165,55.42C72.165,55.127 72.09,54.893 71.939,54.717C71.789,54.541 71.552,54.453 71.227,54.453C70.942,54.453 70.719,54.522 70.556,54.659C70.394,54.795 70.313,54.983 70.313,55.221L68.62,55.221C68.62,54.854 68.733,54.514 68.96,54.202C69.186,53.889 69.507,53.644 69.921,53.466C70.335,53.288 70.8,53.2 71.315,53.2C72.096,53.2 72.717,53.396 73.176,53.788C73.635,54.181 73.864,54.733 73.864,55.444L73.864,58.192C73.868,58.793 73.952,59.248 74.116,59.557L74.116,59.657L72.405,59.657ZM71.005,58.479C71.255,58.479 71.485,58.423 71.696,58.312C71.907,58.201 72.063,58.051 72.165,57.864L72.165,56.774L71.532,56.774C70.684,56.774 70.233,57.067 70.178,57.653L70.173,57.752C70.173,57.963 70.247,58.137 70.395,58.274C70.544,58.41 70.747,58.479 71.005,58.479Z" style="fill-rule:nonzero;"/>
        <path d="M77.622,58.409C77.934,58.409 78.188,58.323 78.383,58.151C78.579,57.979 78.68,57.75 78.688,57.465L80.276,57.465C80.272,57.895 80.155,58.288 79.924,58.646C79.694,59.003 79.378,59.281 78.978,59.478C78.578,59.675 78.135,59.774 77.651,59.774C76.745,59.774 76.03,59.486 75.506,58.91C74.983,58.333 74.721,57.537 74.721,56.522L74.721,56.41C74.721,55.434 74.981,54.655 75.5,54.073C76.02,53.491 76.733,53.2 77.639,53.2C78.432,53.2 79.068,53.425 79.546,53.876C80.025,54.327 80.268,54.928 80.276,55.678L78.688,55.678C78.68,55.35 78.579,55.083 78.383,54.878C78.188,54.673 77.93,54.571 77.61,54.571C77.215,54.571 76.917,54.714 76.716,55.001C76.515,55.288 76.415,55.754 76.415,56.399L76.415,56.575C76.415,57.227 76.514,57.696 76.713,57.981C76.913,58.266 77.215,58.409 77.622,58.409Z" style="fill-rule:nonzero;"/>
        <path d="M83.485,57.114L82.876,57.723L82.876,59.657L81.183,59.657L81.183,50.657L82.876,50.657L82.876,55.643L83.204,55.221L84.827,53.317L86.86,53.317L84.569,55.959L87.06,59.657L85.114,59.657L83.485,57.114Z" style="fill-rule:nonzero;"/>
        <path d="M89.974,59.774C89.044,59.774 88.287,59.489 87.703,58.918C87.119,58.348 86.827,57.588 86.827,56.639L86.827,56.475C86.827,55.838 86.95,55.269 87.196,54.767C87.442,54.265 87.791,53.878 88.242,53.607C88.693,53.335 89.208,53.2 89.786,53.2C90.653,53.2 91.336,53.473 91.834,54.02C92.332,54.567 92.581,55.342 92.581,56.346L92.581,57.037L88.544,57.037C88.599,57.452 88.764,57.784 89.039,58.034C89.314,58.284 89.663,58.409 90.085,58.409C90.737,58.409 91.247,58.172 91.614,57.7L92.446,58.631C92.192,58.991 91.849,59.271 91.415,59.472C90.981,59.673 90.501,59.774 89.974,59.774ZM89.78,54.571C89.444,54.571 89.172,54.684 88.963,54.91C88.754,55.137 88.62,55.461 88.561,55.883L90.917,55.883L90.917,55.748C90.909,55.373 90.808,55.083 90.612,54.878C90.417,54.673 90.14,54.571 89.78,54.571Z" style="fill-rule:nonzero;"/>
        <path d="M96.924,54.905C96.694,54.873 96.491,54.858 96.315,54.858C95.674,54.858 95.255,55.075 95.055,55.508L95.055,59.657L93.362,59.657L93.362,53.317L94.962,53.317L95.008,54.073C95.348,53.491 95.819,53.2 96.421,53.2C96.608,53.2 96.784,53.225 96.948,53.276L96.924,54.905Z" style="fill-rule:nonzero;"/>
    </g>
</svg>
