<?xml version="1.0" encoding="UTF-8" standalone="no"?><!DOCTYPE svg PUBLIC "-//W3C//DTD SVG 1.1//EN" "http://www.w3.org/Graphics/SVG/1.1/DTD/svg11.dtd"><svg width="100%" height="100%" viewBox="0 0 450 157" version="1.1" xmlns="http://www.w3.org/2000/svg" xmlns:xlink="http://www.w3.org/1999/xlink" xml:space="preserve" style="fill-rule:evenodd;clip-rule:evenodd;stroke-linejoin:round;stroke-miterlimit:1.41421;"><rect id="Artboard1" x="0" y="0" width="450" height="157" style="fill:none;"/><g><path d="M97.229,56.787c0.903,-3.683 1.034,-9.171 1.034,-15.855l0,-29.509l10.332,0l0,29.347c0,6.427 0.291,12.174 -0.614,16.856c-1.711,9.07 -11.042,13.464 -16.564,13.655l-2.487,-5.422c3.358,-1.259 7.073,-3.843 8.299,-9.072" style="fill:#0e3862;fill-rule:nonzero;"/><path d="M118.609,11.422l10.171,0l-0.066,27.51c-0.031,11.461 3.456,13.946 9.752,13.946c6.2,0 9.558,-3.003 9.558,-13.946l0,-27.51l10.105,0l0,28.476c0,13.757 -6.715,21.183 -19.953,21.183c-14.725,0 -19.664,-8.59 -19.632,-21.601l0.065,-28.058l0,0Z" style="fill:#0e3862;fill-rule:nonzero;"/><path d="M167.987,49.941c2.744,1.517 7.395,3.1 12.658,3.1c5.454,0 7.199,-1.711 7.199,-5.007c0,-3.453 -1.97,-4.873 -9.524,-8.619c-5.813,-2.875 -12.206,-7.233 -12.206,-15.274c0,-9.686 7.911,-13.238 17.145,-13.238c6.199,0 10.944,1.713 12.689,2.843l-1.679,7.975c-2.389,-1.519 -5.81,-3.133 -10.718,-3.133c-5.459,0 -7.363,2.003 -7.363,5.04c0,3.516 2.519,5.036 8.493,8.198c7.715,4.07 13.496,7.589 13.496,15.565c0,8.846 -6.846,13.688 -16.888,13.688c-6.425,0 -12.915,-1.776 -14.756,-2.906l1.454,-8.232l0,0Z" style="fill:#0e3862;fill-rule:nonzero;"/><path d="M215.651,19.301l-14.078,0l0,-7.879l38.424,0l0,7.879l-14.013,0l0,41.262l-10.333,0l0,-41.262l0,0Z" style="fill:#0e3862;fill-rule:nonzero;"/><path d="M262.672,37.899c5.004,0 9.715,-2.067 9.715,-10.173c0,-6.231 -3.419,-9.621 -9.817,-9.362c-1.71,0.065 -3.709,0.128 -5.263,0.45l0,18.826c1.583,0.193 3.746,0.259 5.365,0.259m-15.63,-26.478l3.1,0c5.425,0 9.817,-0.518 14.495,-0.518c11.237,0 17.957,4.813 17.957,16.953c0,11.236 -6.943,17.822 -19.668,17.822c-2.773,0 -4.489,-0.033 -5.619,-0.063l0,14.948l-10.265,0l0,-49.142l0,0Z" style="fill:#0e3862;fill-rule:nonzero;"/><path d="M289.606,11.422l29.964,0l0,7.879l-19.697,0l0,12.203l15.109,0l0,7.782l-15.109,0l0,13.173l21.793,0l0,8.104l-32.06,0l0,-49.141l0,0Z" style="fill:#0e3862;fill-rule:nonzero;"/><path d="M356.189,42.772l-5.328,-16.854l-1.389,-5.069l-1.421,5.069l-5.263,16.854l13.401,0Zm-11.85,-31.869l10.396,0l18.306,49.66l-11.202,0l-3.293,-10.398l-18.079,0l-3.232,10.398l-11.04,0l18.144,-49.66l0,0Z" style="fill:#0e3862;fill-rule:nonzero;"/><path d="M397.236,10.903c7.136,0 10.268,1.326 13.365,1.907l-1.481,9.04c-1.745,-0.936 -4.586,-2.809 -11.238,-2.809c-7.975,0 -14.143,6.102 -14.143,16.435c0,10.202 5.587,17.662 14.918,17.662c4.457,0 9.686,-1.844 11.399,-3.1l0.032,8.46c-2.841,1.13 -6.427,2.582 -12.399,2.582c-15.141,0 -24.537,-10.076 -24.537,-24.958c0,-16.273 10.684,-25.219 24.084,-25.219" style="fill:#0e3862;fill-rule:nonzero;"/><path d="M417.94,11.422l29.964,0l0,7.879l-19.697,0l0,12.203l15.11,0l0,7.782l-15.11,0l0,13.173l21.793,0l0,8.104l-32.06,0l0,-49.141l0,0Z" style="fill:#0e3862;fill-rule:nonzero;"/></g><path d="M65.217,57.272l-8.455,-6.264c3.287,-4.437 5.025,-9.707 5.025,-15.252c0,-12.603 -9.39,-23.503 -21.836,-25.34l1.544,-10.416c17.563,2.6 30.811,17.984 30.811,35.756c0,7.814 -2.452,15.252 -7.089,21.516" style="fill:#f9a870;fill-rule:nonzero;"/><path d="M7.093,57.272c-4.644,-6.264 -7.093,-13.702 -7.093,-21.516c0,-17.772 13.245,-33.156 30.815,-35.756l1.54,10.416c-12.446,1.837 -21.838,12.737 -21.838,25.34c0,5.545 1.738,10.815 5.027,15.252l-8.451,6.264l0,0Z" style="fill:#f9a870;fill-rule:nonzero;"/><path d="M30.81,71.527c-5.833,-0.865 -11.422,-3.188 -16.163,-6.695l6.265,-8.455c3.358,2.489 7.314,4.128 11.442,4.745l-1.544,10.405l0,0Z" style="fill:#f9a870;fill-rule:nonzero;"/><path d="M41.49,71.527l-1.54,-10.416c4.128,-0.606 8.086,-2.245 11.456,-4.734l6.258,8.455c-4.752,3.518 -10.342,5.83 -16.174,6.695" style="fill:#f9a870;fill-rule:nonzero;"/><g><path d="M94.474,135.876l5.033,-40.045l-4.158,-0.719l0.376,-3.157l16.38,0l-0.344,3.157l-5.877,0.719l-5.033,40.045l14.505,-0.344l4.345,-10.379l3.72,0.719l-3.001,13.661l-30.822,0l0.25,-2.751l4.626,-0.906l0,0Z" style="fill:#0e3862;fill-rule:nonzero;"/><path d="M151.618,103.49c1.104,0.208 2.146,0.469 3.126,0.781l3.782,-1.062l-4.095,30.416c-0.021,0.167 -0.031,0.385 -0.031,0.656c0,0.563 0.094,0.99 0.281,1.282c0.188,0.292 0.417,0.438 0.688,0.438c0.313,0 0.677,-0.105 1.094,-0.313c0.417,-0.208 0.969,-0.584 1.657,-1.125l0.969,1.688c-0.187,0.354 -0.63,0.844 -1.328,1.469c-0.699,0.625 -1.553,1.188 -2.564,1.688c-1.011,0.5 -2.058,0.75 -3.141,0.75c-1.334,0 -2.361,-0.338 -3.08,-1.016c-0.719,-0.677 -1.036,-1.745 -0.953,-3.204l0.219,-2.063c-1.376,1.771 -2.96,3.261 -4.752,4.47c-1.792,1.209 -3.636,1.813 -5.533,1.813c-3.355,0 -5.819,-1.209 -7.393,-3.626c-1.573,-2.417 -2.36,-5.71 -2.36,-9.878c0,-3.397 0.828,-6.93 2.485,-10.597c1.657,-3.668 4.033,-6.732 7.127,-9.191c3.095,-2.459 6.664,-3.689 10.707,-3.689c0.959,0 1.99,0.105 3.095,0.313Zm-0.031,4.501c-1.022,-0.646 -2.366,-0.969 -4.033,-0.969c-2.772,0 -5.116,0.995 -7.033,2.986c-1.918,1.99 -3.351,4.449 -4.299,7.377c-0.948,2.928 -1.422,5.778 -1.422,8.55c0,6.502 1.48,9.753 4.439,9.753c1.646,0 3.35,-0.724 5.111,-2.173c1.761,-1.448 3.277,-3.079 4.548,-4.892l2.689,-20.632l0,0Z" style="fill:#0e3862;fill-rule:nonzero;"/><path d="M169.287,91.799l0.656,-2.626l7.659,-1.219l1.594,0.844l-2.595,19.412c1.126,-1.438 2.501,-2.636 4.127,-3.595c1.625,-0.958 3.397,-1.438 5.314,-1.438c2.334,0 4.298,0.573 5.893,1.72c1.594,1.146 2.782,2.735 3.563,4.767c0.782,2.032 1.173,4.381 1.173,7.049c0,3.418 -0.818,6.955 -2.454,10.613c-1.636,3.657 -3.97,6.71 -7.003,9.159c-3.032,2.449 -6.538,3.673 -10.519,3.673c-1.188,0 -2.475,-0.135 -3.86,-0.406c-1.386,-0.271 -2.59,-0.594 -3.611,-0.969l-3.126,1.375l6.158,-47.015l-2.969,-1.344l0,0Zm3.688,43.295c1.105,0.834 2.668,1.25 4.689,1.25c2.689,0 4.976,-1.016 6.862,-3.047c1.886,-2.032 3.287,-4.538 4.204,-7.519c0.917,-2.98 1.376,-5.866 1.376,-8.659c0,-2.98 -0.464,-5.298 -1.391,-6.955c-0.928,-1.657 -2.204,-2.485 -3.83,-2.485c-1.729,0 -3.412,0.599 -5.048,1.797c-1.636,1.199 -2.954,2.548 -3.955,4.048l-2.907,21.57l0,0Z" style="fill:#0e3862;fill-rule:nonzero;"/><path d="M205.392,135.157c1.521,0.5 3.126,0.75 4.814,0.75c1.772,0 3.241,-0.292 4.408,-0.875c1.167,-0.584 1.75,-1.782 1.75,-3.595c0,-1.063 -0.25,-2.038 -0.75,-2.923c-0.5,-0.886 -1.12,-1.662 -1.86,-2.329c-0.74,-0.667 -1.703,-1.438 -2.891,-2.313c-1.668,-1.23 -3.173,-2.741 -4.517,-4.533c-1.345,-1.792 -2.017,-3.793 -2.017,-6.002c0,-2.001 0.558,-3.772 1.673,-5.314c1.115,-1.543 2.6,-2.736 4.454,-3.58c1.855,-0.844 3.866,-1.266 6.034,-1.266c1.563,0 3.141,0.125 4.735,0.375c1.595,0.251 2.684,0.511 3.267,0.782l-1.188,5.283c-0.146,-0.229 -0.552,-0.537 -1.219,-0.922c-0.667,-0.386 -1.511,-0.724 -2.532,-1.016c-1.021,-0.292 -2.126,-0.438 -3.314,-0.438c-1.521,0 -2.823,0.318 -3.907,0.954c-1.084,0.635 -1.709,1.714 -1.876,3.235c-0.021,0.146 -0.031,0.365 -0.031,0.656c0,1.334 0.448,2.579 1.344,3.736c0.896,1.157 2.116,2.329 3.658,3.517c1.438,1.125 2.626,2.157 3.563,3.095c0.938,0.937 1.741,2.058 2.407,3.36c0.667,1.303 1.001,2.767 1.001,4.392c0,2.084 -0.568,3.882 -1.704,5.393c-1.136,1.51 -2.657,2.651 -4.564,3.423c-1.907,0.771 -3.986,1.156 -6.236,1.156c-1.876,0 -3.741,-0.187 -5.596,-0.562c-1.855,-0.376 -3.063,-0.803 -3.626,-1.282l1.156,-4.783c0.855,0.584 2.043,1.125 3.564,1.626l0,0Z" style="fill:#0e3862;fill-rule:nonzero;"/></g></svg>