<?xml version="1.0" encoding="utf-8"?>
<!-- Generator: Adobe Illustrator 23.0.1, SVG Export Plug-In . SVG Version: 6.00 Build 0)  -->
<svg version="1.1" id="Layer_1" xmlns="http://www.w3.org/2000/svg" xmlns:xlink="http://www.w3.org/1999/xlink" x="0px" y="0px"
	 viewBox="0 0 1000 1000" style="enable-background:new 0 0 1000 1000;" xml:space="preserve">
<style type="text/css">
	.st0{fill:#E9DBCC;}
</style>
<path class="st0" d="M291.17,786.89c0,0-0.01-0.01-0.02-0.03L291.17,786.89z"/>
<path class="st0" d="M498.82,468.56c-0.33,4.43-0.33,4.43-2.19,3.93c0.35,1.62,0.54,3.02,1.31,4.19c0.3,0.46,0.71,0.83,1.26,0.61
	c0.59-0.24,0.89-0.83,0.77-1.47C499.56,473.49,499.55,471.07,498.82,468.56z"/>
<path class="st0" d="M511.31,503.71c0.07,0.05,0.13,0.1,0.2,0.15c0-0.07,0-0.14,0-0.21C511.44,503.67,511.37,503.69,511.31,503.71z"
	/>
<path class="st0" d="M511.5,503.86c0,0.02,0,0.03,0,0.05c0.02,0,0.03,0,0.05,0c0-0.01-0.01-0.02-0.02-0.03
	C511.52,503.87,511.51,503.87,511.5,503.86z"/>
<path class="st0" d="M253.4,697.91c0.29-0.16,0.6-0.29,0.86-0.5c7.44-5.92,14.87-11.84,22.29-17.79c2.92-2.34,5.98-4.48,8.72-7.11
	c-0.08-0.08-0.15-0.15-0.22-0.24c-11.08,7.69-21.99,15.66-31.83,25.37c0,0,0,0,0,0c0,0,0,0,0,0
	C253.29,697.73,253.35,697.82,253.4,697.91z"/>
<path class="st0" d="M278.66,804.05c-2,2.2-3.63,4.77-5.4,7.2c-2.5,3.43-5.17,6.71-7.41,10.37c0.07,0.07,0.13,0.15,0.2,0.23
	c4.64-5.5,8.7-11.55,12.83-17.54l0,0v0C278.81,804.23,278.73,804.14,278.66,804.05z"/>
<path class="st0" d="M280.46,802.02c-0.05-0.07-0.11-0.14-0.16-0.21c-0.72,0.58-1.27,1.32-1.65,2.24c0.08,0.09,0.15,0.18,0.23,0.27
	c0.54-0.75,1.08-1.5,1.62-2.25l0,0l0,0C280.49,802.05,280.48,802.04,280.46,802.02z"/>
<path class="st0" d="M278.88,804.32L278.88,804.32c-0.08-0.09-0.15-0.18-0.23-0.27C278.73,804.14,278.81,804.23,278.88,804.32z"/>
<path class="st0" d="M284.57,795.81c0.01,0.02,0.01,0.04,0.01,0.06c0.01,0,0.01-0.01,0.01-0.01l-0.01-0.02
	C284.58,795.82,284.57,795.81,284.57,795.81z"/>
<path class="st0" d="M283.6,797.34c0.06,0.06,0.12,0.12,0.19,0.19c0.31-0.53,1.02-0.81,0.8-1.65
	C284.09,796.22,283.76,796.71,283.6,797.34z"/>
<polygon class="st0" points="284.57,795.81 284.57,795.81 284.57,795.81 "/>
<polygon class="st0" points="286.21,793.56 286.22,793.57 286.22,793.57 "/>
<path class="st0" d="M286.23,793.62c0,0,0.01-0.01,0.01-0.01c0,0-0.02-0.05-0.02-0.05C286.22,793.59,286.22,793.6,286.23,793.62z"/>
<path class="st0" d="M285.25,795.1c0.04,0.04,0.09,0.07,0.14,0.1c0.34-0.49,1.08-0.71,0.84-1.58
	C285.74,793.97,285.39,794.45,285.25,795.1z"/>
<path class="st0" d="M280.3,801.81c0.05,0.07,0.1,0.14,0.16,0.21c0.01,0.02,0.02,0.03,0.04,0.05c0.35-0.39,0.72-0.75,0.83-1.33
	c-0.08-0.07-0.16-0.15-0.23-0.23C280.83,800.94,280.57,801.38,280.3,801.81z"/>
<path class="st0" d="M280.5,802.07L280.5,802.07c-0.01-0.02-0.02-0.03-0.04-0.05C280.48,802.04,280.49,802.05,280.5,802.07z"/>
<path class="st0" d="M281.95,799.57c0.07,0.07,0.14,0.15,0.2,0.23c0.32-0.4,0.69-0.76,0.81-1.33c-0.08-0.05-0.15-0.11-0.22-0.16
	C282.38,798.66,282.06,799.03,281.95,799.57z"/>
<path class="st0" d="M286.25,671.75c-0.06-0.06-0.12-0.13-0.18-0.2c-0.34,0.24-0.67,0.48-1.01,0.72c0.07,0.08,0.14,0.16,0.22,0.24
	C285.73,672.47,286.07,672.24,286.25,671.75z"/>
<path class="st0" d="M286.89,792.86c0,0,0.1,0.06,0.1,0.06c0.37-0.1,0.53-0.4,0.57-0.8c-0.07-0.05-0.14-0.11-0.21-0.16
	C287.13,792.22,286.88,792.45,286.89,792.86z"/>
<path class="st0" d="M289.19,789.88c-0.55-0.18-0.54,0.36-0.66,0.73c0.04,0.04,0.09,0.09,0.14,0.13
	C288.94,790.53,289.16,790.28,289.19,789.88z"/>
<path class="st0" d="M289.21,789.88c-0.01-0.01-0.02-0.01-0.02-0.01c0,0,0,0.01,0,0.01c0.02,0.01,0.03,0,0.04,0.01
	C289.23,789.89,289.22,789.89,289.21,789.88z"/>
<path class="st0" d="M291.5,786.52c0.23,0.27,0.28-0.05,0.36-0.2c0.01-0.02-0.11-0.14-0.17-0.21
	C291.63,786.24,291.57,786.38,291.5,786.52c0,0-0.03-0.03-0.03-0.03C291.47,786.49,291.5,786.52,291.5,786.52
	C291.5,786.52,291.5,786.52,291.5,786.52z"/>
<path class="st0" d="M287.21,670.99c-0.35-0.21-0.51,0.04-0.64,0.37c0,0,0.01,0.01,0.01,0.01
	C286.93,671.56,287.1,671.34,287.21,670.99z"/>
<path class="st0" d="M287.21,670.98c0,0.01,0,0.01-0.01,0.01c0.02,0.01,0.03,0.01,0.04,0.02
	C287.25,671.01,287.21,670.98,287.21,670.98z"/>
<path class="st0" d="M264.97,823.24c0.03-0.3,0.61-0.42,0.25-0.84c0,0,0,0,0,0C264.91,822.61,264.62,822.82,264.97,823.24z"/>
<path class="st0" d="M264.97,823.24L264.97,823.24c0,0,0.02,0.03,0.02,0.03C264.99,823.26,264.98,823.25,264.97,823.24
	C264.97,823.24,264.97,823.24,264.97,823.24L264.97,823.24z"/>
<polygon class="st0" points="265.2,822.36 265.22,822.41 265.2,822.36 "/>
<polygon class="st0" points="265,823.28 265,823.28 265,823.28 "/>
<path class="st0" d="M288.08,670.44c0.01-0.02-0.03-0.15-0.06-0.16c-0.23-0.04-0.4,0.05-0.45,0.33
	C287.77,670.72,287.93,670.61,288.08,670.44z"/>
<path class="st0" d="M287.57,670.61c-0.01-0.01-0.02-0.01-0.04-0.02l0.03,0.03C287.56,670.62,287.56,670.62,287.57,670.61z"/>
<path class="st0" d="M253.4,697.91c-0.05-0.09-0.11-0.18-0.17-0.27c-0.17,0.21-0.33,0.42-0.5,0.62c0.05,0.05,0.1,0.1,0.15,0.15
	C253.11,698.33,253.34,698.23,253.4,697.91z"/>
<path class="st0" d="M253.23,697.64C253.23,697.64,253.23,697.65,253.23,697.64c0.06,0.09,0.12,0.17,0.17,0.27
	C253.35,697.82,253.29,697.73,253.23,697.64z"/>
<path class="st0" d="M252.4,698.65C252.4,698.65,252.4,698.65,252.4,698.65c0.01,0.02,0.02,0.02,0.04,0.03
	C252.44,698.68,252.4,698.65,252.4,698.65z"/>
<path class="st0" d="M251.71,699.01c0.39,0.34,0.55,0.02,0.69-0.35C252.06,698.44,251.9,698.78,251.71,699.01l-0.04-0.03
	C251.67,698.97,251.71,699,251.71,699.01C251.71,699,251.71,699.01,251.71,699.01z"/>
<path class="st0" d="M281.63,799.96c-0.18,0.18-0.36,0.36-0.53,0.54c0.07,0.08,0.15,0.16,0.23,0.23c0.17-0.18,0.33-0.36,0.5-0.53
	c0,0,0,0,0,0l0,0C281.76,800.13,281.69,800.05,281.63,799.96z"/>
<path class="st0" d="M283.28,797.72c-0.18,0.2-0.36,0.39-0.55,0.59c0.07,0.06,0.15,0.11,0.22,0.16c0.27-0.05,0.36-0.28,0.42-0.54
	c0,0,0,0,0,0c0,0,0,0,0,0C283.35,797.86,283.32,797.79,283.28,797.72z"/>
<path class="st0" d="M291.17,786.89c-0.27,0.16-0.59,0.29-0.34,0.73C291.09,787.45,291.42,787.33,291.17,786.89z"/>
<polygon class="st0" points="291.14,786.85 291.14,786.85 291.14,786.85 "/>
<path class="st0" d="M291.15,786.87c0-0.01-0.01-0.02-0.01-0.02c0.01,0.02,0.01,0.03,0.02,0.04c0,0,0,0,0,0L291.15,786.87z"/>
<path class="st0" d="M290.83,787.62C290.83,787.62,290.83,787.62,290.83,787.62c0,0,0.02,0.04,0.02,0.04
	C290.84,787.65,290.84,787.63,290.83,787.62z"/>
<polygon class="st0" points="290.85,787.66 290.85,787.66 290.85,787.66 "/>
<polygon class="st0" points="287.86,791.33 287.86,791.33 287.86,791.33 "/>
<path class="st0" d="M287.36,791.96c0.07,0.06,0.14,0.11,0.21,0.16c0.29-0.17,0.63-0.31,0.32-0.76c0,0,0,0,0,0
	C287.7,791.57,287.53,791.76,287.36,791.96z"/>
<path class="st0" d="M289.21,789.88c0.01,0.01,0.02,0.01,0.02,0.01c-0.01-0.01-0.01-0.02-0.02-0.04c-0.01,0-0.01,0.01-0.02,0.01l0,0
	v0C289.19,789.87,289.2,789.88,289.21,789.88z"/>
<path class="st0" d="M289.53,789.13C289.53,789.13,289.53,789.13,289.53,789.13c-0.27,0.16-0.59,0.3-0.32,0.73
	C289.48,789.7,289.79,789.56,289.53,789.13z"/>
<polygon class="st0" points="289.5,789.08 289.5,789.08 289.5,789.08 "/>
<path class="st0" d="M289.53,789.13c0,0-0.01-0.01-0.01-0.03L289.53,789.13z"/>
<path class="st0" d="M289.19,789.87L289.19,789.87c0,0,0.01,0.01,0.02,0.01C289.2,789.88,289.19,789.87,289.19,789.87z"/>
<path class="st0" d="M289.53,789.11c-0.01-0.01-0.02-0.02-0.03-0.03c0.01,0.02,0.02,0.03,0.02,0.04
	C289.53,789.12,289.53,789.12,289.53,789.11z"/>
<path class="st0" d="M289.5,789.08c0,0,0.01,0.01,0.01,0.02L289.5,789.08C289.5,789.08,289.5,789.08,289.5,789.08z"/>
<path class="st0" d="M289.94,788.9l-0.09-0.15c-0.21,0.01-0.3,0.15-0.32,0.36C289.8,789.44,289.84,789.09,289.94,788.9z"/>
<path class="st0" d="M289.5,789.08C289.5,789.08,289.5,789.08,289.5,789.08l0.01,0.02c0.01,0.01,0.01,0.03,0.01,0.03c0,0,0,0,0,0
	C289.52,789.11,289.51,789.1,289.5,789.08z"/>
<path class="st0" d="M290.17,788.39c-0.21-0.01-0.31,0.13-0.32,0.36c0,0,0.09,0.15,0.09,0.14
	C290.16,788.8,290.28,788.66,290.17,788.39z"/>
<path class="st0" d="M290.16,788.35C290.16,788.35,290.16,788.35,290.16,788.35L290.16,788.35c0.01,0.01,0.01,0.02,0.01,0.04
	c0.01,0,0.01,0,0.02,0C290.19,788.39,290.16,788.35,290.16,788.35z"/>
<path class="st0" d="M288.66,790.74c-0.05-0.04-0.09-0.09-0.14-0.13c-0.22,0-0.3,0.16-0.32,0.38c0,0,0,0,0,0
	C288.49,791.29,288.54,790.92,288.66,790.74z"/>
<path class="st0" d="M288.21,791c-0.01-0.01-0.02-0.02-0.03-0.03c0,0.02,0.01,0.04,0.01,0.06C288.19,791.01,288.2,791.01,288.21,791
	z"/>
<polygon class="st0" points="287.86,791.33 287.88,791.37 287.86,791.33 "/>
<path class="st0" d="M287.88,791.37c0,0,0.01-0.01,0.01-0.01c-0.01-0.01-0.02-0.02-0.04-0.02
	C287.87,791.34,287.87,791.35,287.88,791.37z"/>
<path class="st0" d="M288.19,791.39c0.04-0.09,0.01-0.23-0.01-0.36c-0.1,0.11-0.19,0.22-0.29,0.33
	C287.99,791.42,288.08,791.63,288.19,791.39z"/>
<path class="st0" d="M287.86,791.33l0.02,0.04c0,0,0,0,0,0C287.87,791.35,287.87,791.34,287.86,791.33L287.86,791.33z"/>
<path class="st0" d="M288.21,791c0,0-0.03-0.03-0.03-0.03C288.19,790.98,288.2,790.99,288.21,791C288.21,791,288.21,791,288.21,791z
	"/>
<path class="st0" d="M290.49,787.99c0,0.01,0,0.02,0,0.03c0.01,0,0.02,0,0.03,0.01C290.52,788.02,290.49,787.99,290.49,787.99z"/>
<path class="st0" d="M290.49,788.02c-0.27-0.09-0.28,0.13-0.3,0.34C290.47,788.46,290.48,788.23,290.49,788.02z"/>
<path class="st0" d="M290.19,788.36c-0.01,0-0.02,0-0.03-0.01l0.03,0.04C290.19,788.38,290.19,788.37,290.19,788.36z"/>
<polygon class="st0" points="290.19,788.39 290.16,788.35 290.16,788.35 "/>
<path class="st0" d="M286.56,793.23c0.07,0.07,0.14,0.14,0.2,0.21c0.08-0.17,0.16-0.34,0.24-0.51c0,0-0.1-0.06-0.1-0.06
	C286.68,792.86,286.58,793,286.56,793.23z"/>
<path class="st0" d="M286.24,793.61C286.24,793.61,286.24,793.61,286.24,793.61c0-0.02-0.01-0.03-0.02-0.05
	C286.22,793.57,286.24,793.61,286.24,793.61z"/>
<polygon class="st0" points="286.21,793.57 286.22,793.57 286.22,793.57 "/>
<path class="st0" d="M286.25,793.6c0.24,0.32,0.35-0.03,0.51-0.16c-0.06-0.07-0.13-0.14-0.2-0.21
	C286.45,793.35,286.35,793.48,286.25,793.6z"/>
<polygon class="st0" points="286.22,793.57 286.22,793.57 286.24,793.61 286.22,793.57 "/>
<path class="st0" d="M290.83,787.62c0,0.01,0,0.02,0,0.03c0.01,0.01,0.02,0.01,0.03,0.02L290.83,787.62z"/>
<path class="st0" d="M290.82,787.65c-0.39-0.23-0.31,0.09-0.3,0.34C290.72,787.98,290.8,787.85,290.82,787.65z"/>
<polygon class="st0" points="290.85,787.66 290.85,787.66 290.85,787.66 "/>
<path class="st0" d="M290.52,787.99c-0.01,0-0.02,0-0.03,0c0,0,0.03,0.03,0.03,0.03C290.52,788.01,290.52,788,290.52,787.99z"/>
<polygon class="st0" points="290.85,787.66 290.85,787.66 290.83,787.62 290.85,787.66 "/>
<path class="st0" d="M284.92,795.48c0,0,0.09,0.08,0.1,0.08c0.23,0.02,0.33-0.14,0.37-0.36c-0.05-0.03-0.1-0.06-0.14-0.1
	C285.03,795.11,284.94,795.25,284.92,795.48z"/>
<path class="st0" d="M284.61,795.85c0.31,0.31,0.34-0.04,0.41-0.28c-0.01,0-0.1-0.08-0.1-0.08
	C284.82,795.6,284.71,795.72,284.61,795.85z"/>
<path class="st0" d="M284.58,795.83l0.01,0.02c0,0,0.01-0.01,0.01-0.01c-0.01-0.01-0.02-0.02-0.04-0.03L284.58,795.83z"/>
<polygon class="st0" points="284.57,795.81 284.57,795.81 284.57,795.81 "/>
<path class="st0" d="M284.57,795.81C284.57,795.81,284.57,795.81,284.57,795.81C284.57,795.81,284.57,795.81,284.57,795.81
	c0,0,0.01,0.01,0.01,0.02L284.57,795.81z"/>
<path class="st0" d="M283.28,797.72c0.03,0.07,0.07,0.14,0.09,0.21c0.14-0.14,0.27-0.27,0.41-0.41c-0.06-0.06-0.12-0.13-0.19-0.19
	C283.39,797.35,283.3,797.5,283.28,797.72z"/>
<path class="st0" d="M283.37,797.93C283.37,797.93,283.37,797.93,283.37,797.93c-0.03-0.07-0.06-0.14-0.09-0.21
	C283.32,797.79,283.35,797.86,283.37,797.93z"/>
<polygon class="st0" points="291.14,786.85 291.14,786.85 291.14,786.85 "/>
<path class="st0" d="M291.17,786.89c0-0.01,0.01-0.02,0.01-0.03c-0.01-0.01-0.02,0-0.04-0.01l0.01,0.02
	C291.16,786.88,291.17,786.89,291.17,786.89z"/>
<path class="st0" d="M291.48,786.53c-0.18,0.01-0.27,0.13-0.3,0.33C291.53,787.05,291.52,786.81,291.48,786.53z"/>
<path class="st0" d="M291.47,786.49c0,0.02,0,0.03,0.01,0.04c0.01,0,0.01-0.01,0.02-0.01C291.49,786.51,291.48,786.5,291.47,786.49z
	"/>
<path class="st0" d="M291.5,786.52c0,0-0.03-0.03-0.03-0.03C291.48,786.5,291.49,786.51,291.5,786.52
	C291.5,786.52,291.5,786.52,291.5,786.52z"/>
<path class="st0" d="M291.14,786.85L291.14,786.85C291.14,786.85,291.14,786.85,291.14,786.85c0,0,0.01,0.01,0.01,0.02
	L291.14,786.85z"/>
<path class="st0" d="M281.63,799.96c0.06,0.09,0.13,0.17,0.2,0.24c0.11-0.13,0.21-0.27,0.32-0.4c-0.06-0.08-0.13-0.16-0.2-0.23
	C281.84,799.7,281.74,799.83,281.63,799.96z"/>
<path class="st0" d="M281.83,800.2L281.83,800.2c-0.07-0.07-0.14-0.16-0.2-0.24C281.69,800.05,281.76,800.13,281.83,800.2z"/>
<path class="st0" d="M251.79,699.23c-0.03-0.07-0.06-0.13-0.09-0.2c-0.05,0.08-0.09,0.16-0.14,0.24
	C251.63,699.26,251.71,699.24,251.79,699.23z"/>
<path class="st0" d="M251.67,698.97c0.01,0.02,0.02,0.04,0.03,0.06c0-0.01,0.01-0.02,0.02-0.03
	C251.7,698.99,251.68,698.99,251.67,698.97z"/>
<path class="st0" d="M251.71,699c0,0-0.05-0.03-0.05-0.03C251.68,698.99,251.7,698.99,251.71,699
	C251.71,699.01,251.71,699,251.71,699z"/>
<path class="st0" d="M252.73,698.27c-0.17,0.05-0.43,0.03-0.3,0.36c0.15-0.07,0.3-0.14,0.45-0.21
	C252.83,698.37,252.78,698.32,252.73,698.27z"/>
<path class="st0" d="M252.44,698.68c-0.01-0.02,0-0.03-0.01-0.04c-0.01,0-0.02,0.01-0.03,0.01l0,0v0L252.44,698.68z"/>
<polygon class="st0" points="252.4,698.65 252.4,698.65 252.44,698.68 "/>
<path class="st0" d="M287.24,670.97c-0.01,0-0.02,0-0.03,0c0,0,0.04,0.03,0.04,0.03C287.24,670.99,287.24,670.99,287.24,670.97z"/>
<path class="st0" d="M287.53,670.63c-0.17,0.04-0.43-0.02-0.29,0.34C287.42,670.94,287.62,670.94,287.53,670.63z"/>
<path class="st0" d="M287.53,670.59c0.01,0.02,0,0.02,0,0.04c0.01,0,0.02,0,0.03,0C287.56,670.63,287.53,670.59,287.53,670.59z"/>
<path class="st0" d="M265.55,822.02C265.54,822.03,265.54,822.03,265.55,822.02c0.24,0.32,0.35-0.04,0.5-0.17
	c-0.06-0.08-0.13-0.16-0.2-0.23C265.75,821.76,265.65,821.89,265.55,822.02z"/>
<path class="st0" d="M265.24,822.37c0.1,0.01,0.2,0.02,0.3,0.03c-0.01-0.12-0.01-0.24-0.02-0.35
	C265.35,822.07,265.26,822.18,265.24,822.37z"/>
<path class="st0" d="M265.52,822.04c0.01,0,0.01-0.01,0.02-0.01c-0.01-0.01-0.02-0.02-0.03-0.03
	C265.51,822.01,265.52,822.03,265.52,822.04z"/>
<path class="st0" d="M265.2,822.36c0.01,0.01,0.02,0.03,0.03,0.04c0-0.02,0.01-0.02,0.01-0.03
	C265.22,822.37,265.21,822.36,265.2,822.36L265.2,822.36z"/>
<path class="st0" d="M265.22,822.41C265.22,822.4,265.22,822.4,265.22,822.41c-0.01-0.02-0.01-0.03-0.03-0.04
	C265.2,822.36,265.22,822.41,265.22,822.41z"/>
<path class="st0" d="M265.51,822c0.01,0.01,0.02,0.02,0.03,0.03c0,0,0,0,0.01,0L265.51,822z"/>
<path class="st0" d="M286.57,671.37C286.57,671.37,286.56,671.36,286.57,671.37c-0.17,0.06-0.34,0.12-0.5,0.19
	c0.06,0.07,0.12,0.14,0.18,0.2C286.43,671.7,286.7,671.75,286.57,671.37z"/>
<path class="st0" d="M264.67,823.69c0-0.02,0-0.03,0-0.05c0,0.01-0.01,0.01-0.01,0.02L264.67,823.69z"/>
<polygon class="st0" points="265,823.28 265,823.27 265,823.28 "/>
<path class="st0" d="M264.96,823.26c0.01,0.01,0.02,0.01,0.04,0.02l-0.03-0.03C264.97,823.25,264.97,823.25,264.96,823.26z"/>
<path class="st0" d="M264.67,823.64c0.1-0.13,0.2-0.26,0.3-0.38C264.48,823,264.65,823.39,264.67,823.64z"/>
<path class="st0" d="M264.97,823.24l0.03,0.03c0,0,0,0,0,0c0,0,0,0,0,0C264.99,823.27,264.97,823.24,264.97,823.24L264.97,823.24z"
	/>
<path class="st0" d="M264.35,823.71c0.1-0.02,0.2-0.03,0.29-0.05C264.54,823.55,264.43,823.39,264.35,823.71z"/>
<path class="st0" d="M264.67,823.69c0,0-0.02-0.03-0.02-0.03c0,0-0.01,0-0.01,0C264.65,823.67,264.66,823.68,264.67,823.69z"/>
<path class="st0" d="M528.31,479.23c0.4-0.12,0.77-0.3,0.98-0.76c-0.07-0.07-0.14-0.15-0.2-0.24c-0.32,0.24-0.65,0.49-0.97,0.73
	c0,0,0,0,0,0c0,0,0,0,0,0C528.18,479.05,528.24,479.14,528.31,479.23z"/>
<path class="st0" d="M531.4,476.89c0.04-0.04,0.01-0.28,0-0.28c-0.24-0.03-0.41,0.09-0.48,0.36c0,0,0,0,0,0
	C531.1,477.2,531.26,477.01,531.4,476.89z"/>
<path class="st0" d="M530.59,477.34c0,0-0.05-0.04-0.05-0.04c-0.31-0.07-0.51,0.08-0.62,0.41c0.07,0.06,0.14,0.13,0.2,0.2
	C530.3,477.74,530.59,477.69,530.59,477.34z"/>
<path class="st0" d="M528.11,478.96c-0.19,0.18-0.37,0.35-0.56,0.53c0.07,0.1,0.15,0.2,0.22,0.3c0.18-0.18,0.36-0.37,0.53-0.55
	C528.24,479.14,528.18,479.05,528.11,478.96z"/>
<path class="st0" d="M527.77,479.78L527.77,479.78c-0.07-0.1-0.15-0.2-0.22-0.3C527.62,479.58,527.7,479.68,527.77,479.78z"/>
<path class="st0" d="M528.11,478.96C528.11,478.96,528.11,478.96,528.11,478.96c0.07,0.09,0.13,0.18,0.2,0.27
	C528.24,479.14,528.18,479.05,528.11,478.96z"/>
<path class="st0" d="M529.67,478.17L529.67,478.17L529.67,478.17c-0.05-0.06-0.11-0.13-0.16-0.19c-0.14,0.08-0.28,0.16-0.43,0.25
	c0.06,0.09,0.13,0.17,0.2,0.24C529.41,478.37,529.54,478.27,529.67,478.17z"/>
<path class="st0" d="M530.12,477.9c-0.06-0.07-0.13-0.14-0.2-0.2c-0.14,0.09-0.28,0.19-0.42,0.28c0.06,0.06,0.11,0.12,0.16,0.19
	C529.82,478.08,529.97,477.99,530.12,477.9z"/>
<path class="st0" d="M529.67,478.17c-0.05-0.06-0.11-0.13-0.16-0.19C529.56,478.05,529.62,478.11,529.67,478.17L529.67,478.17z"/>
<path class="st0" d="M530.59,477.34L530.59,477.34c0.16-0.06,0.49,0.03,0.31-0.36c-0.18,0.01-0.37,0.01-0.35,0.32L530.59,477.34
	L530.59,477.34z"/>
<path class="st0" d="M530.88,476.94c0.01,0.02,0,0.02,0.01,0.03c0.01,0,0.02,0,0.02,0C530.91,476.96,530.9,476.96,530.88,476.94z"/>
<path class="st0" d="M530.92,476.97c0,0-0.04-0.03-0.04-0.03C530.9,476.96,530.91,476.96,530.92,476.97
	C530.92,476.97,530.92,476.97,530.92,476.97z"/>
<polygon class="st0" points="530.59,477.34 530.54,477.3 530.59,477.34 "/>
<path class="st0" d="M511.5,503.86c0,0.02,0,0.03,0,0.05c0.02,0,0.03,0,0.05,0c0-0.01-0.01-0.02-0.02-0.03
	C511.52,503.87,511.51,503.87,511.5,503.86z"/>
<path class="st0" d="M511.31,503.71c0.07,0.05,0.13,0.1,0.2,0.15c0-0.07,0-0.14,0-0.21C511.44,503.67,511.37,503.69,511.31,503.71z"
	/>
<path class="st0" d="M498.82,468.56c-0.33,4.43-0.33,4.43-2.19,3.93c0.35,1.62,0.54,3.02,1.31,4.19c0.3,0.46,0.71,0.83,1.26,0.61
	c0.59-0.24,0.89-0.83,0.77-1.47C499.56,473.49,499.55,471.07,498.82,468.56z"/>
<path class="st0" d="M749.23,428.24c-15.14,4.28-30.27,8.56-45.41,12.83c-23.08,6.52-46.17,13.02-69.25,19.56
	c-20.47,5.8-40.94,11.63-61.41,17.45c-21.73,6.19-43.47,12.38-65.2,18.58c-0.36,0.1-0.72,0.23-1.25-0.05
	c7.07-5.65,14.06-11.24,21.05-16.83c0,0,0,0,0,0l0,0c-0.07-0.1-0.15-0.2-0.22-0.3c-2.38,1.49-4.75,3.01-7.14,4.47
	c-0.49,0.3-1.16,1.02-1.59,0.28c-0.41-0.71,0.21-1.39,0.76-1.84c4.45-3.59,8.8-7.36,13.38-10.72
	c16.05-11.77,32.35-23.13,47.84-35.88c19.02-15.66,38.17-31.13,56.88-47.28c7.13-6.15,14.61-11.79,21.84-17.78
	c8.27-6.84,17.09-12.68,25.57-19.13c8.75-6.67,17.03-14.15,25.83-20.74c11.08-8.3,22.14-16.64,32.89-25.48
	c8.05-6.63,16.58-12.44,24.59-19.13c1.5-1.25,164.62-111.06,231.6-155.93V0H817.25c-71.59,112.11-159.73,290.76-161.58,293.07
	c-4.9,6.14-9.2,12.81-13.91,19.11c-3.51,4.69-6.87,9.5-10.26,14.29c-3.39,4.78-7.36,9.05-10.43,14.14
	c-5.82,9.66-12.46,18.59-18.84,27.75c-3.56,5.11-7.91,9.48-11.65,14.44c-8.67,11.53-17.96,22.44-25.88,34.73
	c-4.68,7.26-9.95,14.06-15.25,20.76c-7.61,9.62-14.47,19.96-22.15,29.5c-4.91,6.1-9.71,12.37-15.05,17.97
	c-3.09,3.25-5.78,6.86-8.94,10.13c0.97-3.82,1.87-7.67,2.93-11.45c1.47-5.22,1.7-10.71,2.82-16.01c2.77-13.14,5.49-26.29,9.01-39.21
	c2.68-9.84,4.39-19.98,6.83-29.89c3.42-13.91,7.41-27.63,11.35-41.37c2.83-9.86,4.71-20.01,7.32-29.93
	c2.45-9.33,5.14-18.58,6.82-28.14c0.71-4.06,27.18-189.23,49.98-299.9H402.42c24.75,115.05,66.79,321.05,68.22,333.17
	c2.16,18.3,5.89,36.26,8.56,54.44c1.33,9.07,2.61,18.13,4.76,27c2.05,8.44,4.67,16.67,7.04,24.99c1.24,4.36,1.38,8.92,2.28,13.34
	c1.03,5.08,2.04,10.18,2.55,15.38c0.84,8.57,2.77,16.91,4.06,25.39c0.07,0.49,0.24,0.96,0.03,1.69c-2.72-2.12-5.4-4.2-8.07-6.3
	c-9.79-7.7-19.4-15.71-29.43-22.96c-3.84-2.78-8.01-5.16-12.02-7.72c-6.38-4.08-12.25-9.06-18.21-13.84
	c-8.13-6.52-16.67-12.35-24.71-18.99c-14.37-11.87-28.68-23.84-42.73-36.21c-15.42-13.58-30.97-27.01-46.74-40.08
	c-6.93-5.74-13.65-11.85-20.79-17.23c-15.46-11.66-30.37-24.29-46.57-34.66C246.03,294.46,97.69,175.5,0,85.15v292.95
	c52.47,12.63,116.14,30.31,117.95,30.54c9.49,1.21,18.44,5,27.74,6.99c9.28,1.99,18.27,5.34,27.55,7.23
	c9.34,1.9,18.48,4.94,27.81,6.77c13.66,2.68,27.15,6.27,40.59,10.02c13.88,3.88,27.78,7.54,41.83,10.45
	c6.33,1.31,12.75,2.07,19.1,3.28c4.51,0.86,8.9,2.5,13.45,3.13c12.16,1.68,23.88,5.84,35.91,8.25c9.41,1.89,18.84,3.58,28.29,5.17
	c11.92,2.01,23.66,5.1,35.15,9.28c7.38,2.68,14.97,4.26,22.55,5.99c4.73,1.08,9.49,2.13,14.09,3.76
	c14.22,5.03,29.04,6.85,43.54,11.13c-2.56,0.76-5.04,1.53-7.55,2.24c-18.22,5.15-36.46,10.2-54.64,15.52
	c-3.81,1.12-7.34,3.41-11.2,4.56c-6.58,1.97-12.91,5.03-19.68,6.1c-7.57,1.2-15.06,2.83-22.39,5.25
	c-8.31,2.74-16.57,5.67-24.79,8.78c-5.33,2.02-10.93,2.79-16.44,3.87c-11.1,2.19-22,5.38-32.99,8.13
	c-9.91,2.48-19.56,6.17-29.48,8.64c-6.8,1.69-13.71,2.8-20.4,5.02c-16.22,5.4-32.79,9.28-49.1,14.26
	c-15.93,4.87-32.17,8.15-48.17,12.61c-11.85,3.3-23.91,5.53-35.72,9.02c-6.86,2.03-13.44,5.04-20.15,7.58
	C102.61,611.78,40.2,630.21,0,639.72v262.97c51.09-46.03,158.16-131.25,168.14-138.68c6.49-4.83,12.45-10.53,18.98-15.29
	c6.07-4.43,12.3-8.6,17.77-13.98c4.34-4.27,8.77-8.46,13.52-12.08c5.22-3.98,10.09-8.49,15.27-12.51c2.85-2.21,5.15-5.2,7.7-7.84
	c10.44-10.85,21.72-20.45,33.74-28.89c8.96-6.3,17.7-12.98,26.56-19.44c7.53-5.48,15.5-10.21,22.65-16.34
	c14.19-12.17,29.59-22.22,44.23-33.6c5.55-4.32,10.85-9.02,15.94-14.02c5.27-5.18,11.16-9.37,17.03-13.55
	c3.53-2.52,6.67-5.61,10.14-8.2c0.66-0.49,1.23-1.15,2.05-0.78c0.96,0.43,0.59,1.46,0.68,2.54c2.98-2.36,5.88-4.63,8.76-6.93
	c23.12-18.39,46.24-36.79,69.36-55.18c1.6-1.27,3.11-2.71,4.88-3.71c0.04-0.19,0.12-0.33,0.32-0.23c-0.06,0.14-0.11,0.27-0.17,0.41
	c-4,5.51-7.98,11.04-11.99,16.54c-9.08,12.44-18.17,24.86-27.27,37.29c-7.9,10.8-15.81,21.58-23.72,32.37
	c-0.76,1.03-1.5,2.08-2.33,3.24c0.33,0.07,0.47,0.14,0.6,0.12c1.12-0.2,2.09,0.04,2.72,1.2c0.71,1.3,0.33,2.5-0.34,3.63
	c-2.11,3.55-4.39,6.96-6.74,10.32c-8.26,11.84-16.76,23.46-24.78,35.52c-3.37,5.08-7.44,9.45-11.08,14.26
	c-6.78,8.96-12.91,18.5-19.35,27.77c-5.01,7.22-10.32,14.18-15.26,21.47c-7.93,11.69-16.96,22.3-25.27,33.61
	c-5.64,7.68-10.8,15.8-16.19,23.71c-8.21,12.03-16.62,23.89-24.95,35.81c-5.31,7.59-10.56,15.23-15.95,22.74
	c-9.89,13.77-19.27,28.03-30.24,40.77c-4.24,4.93-7.87,10.5-11.55,16c-4.81,7.19-10.29,13.73-15.46,20.57
	c-4.13,5.48-8.02,11.18-12.08,16.72c-5.01,6.84-10.36,13.35-15.9,19.63c-7.18,8.14-13.52,17.13-20.02,25.95
	c-4.33,5.88-9.23,11.14-13.72,16.85c-5.01,6.38-9.88,12.89-14.66,19.5h234.34c3.79-15.04,7.58-30.07,11.37-45.11
	c8.69-34.47,17.38-68.94,26.06-103.41c8.85-35.13,17.68-70.25,26.52-105.38c1.65-6.55,3.3-13.09,4.95-19.64
	c0.09-0.36,0.34-0.81,0.23-1.05c-1.28-2.79,0.06-5.32,0.6-7.89c2.01-9.58,5.17-18.76,7.59-28.19c5.46-21.32,11.18-42.55,16.8-63.81
	c9.57-36.16,18.34-72.57,27.6-108.83c1.1-4.32,2.2-8.65,3.43-13.51c1.87,10.8,3.65,21.03,5.42,31.27
	c2.94,16.92,5.89,33.84,8.82,50.77c1.36,7.85,2.71,15.71,4,23.58c0.26,1.56,1.03,2.88,1.51,4.31c2.35,7.05,3.61,14.42,5.27,21.67
	c2.01,8.81,3.74,17.71,5.78,26.51c1.77,7.62,2.43,15.5,3.8,23.23c1.62,9.18,3.34,18.33,5.47,27.37c0.97,4.13,0.97,8.37,1.44,12.55
	c0.08,0.67,0,1.5-0.6,1.79c-0.71,0.34-1.24-0.31-1.65-0.9c-0.35-0.51-0.61-1.1-1.14-1.54c0.86,5.06,1.71,10.12,2.58,15.18
	c3.02,17.54,6.04,35.09,9.07,52.63c2.81,16.26,5.64,32.52,8.44,48.79c3.1,17.97,6.17,35.95,9.28,53.92
	c3.03,17.54,6.08,35.07,9.11,52.61c2.99,17.3,5.97,34.6,8.96,51.9c0.07,0.39,0.14,0.78,0.2,1.18H1000V860.14
	c-108.54-72-232.03-154.01-233.39-155.07c-32.58-25.65-65.13-51.33-97.7-76.99c-28.52-22.48-57.06-44.93-85.58-67.42
	c-0.83-0.66-1.51-1.11-2.64-0.72c-1.36,0.48-2.47-0.68-3.6-1.39c-4.93-3.1-9.42-6.97-14.07-10.55
	c-10.54-8.1-20.94-16.42-31.27-24.85c-0.66-0.54-1.28-1.16-1.9-1.77c-0.37-0.37-0.84-0.92-0.63-1.43c0.79-1.92-0.58-2.36-1.52-3.11
	c-4.98-3.94-9.97-7.86-14.94-11.81c-0.43-0.34-0.96-0.55-1.22-1.13c-0.02,0-0.03,0-0.05,0c0-0.02,0-0.03,0-0.05
	c-0.07-0.05-0.13-0.1-0.2-0.15c0.07-0.02,0.14-0.04,0.2-0.06c0,0.07,0,0.14,0,0.21c0.01,0.01,0.02,0.02,0.03,0.02
	c0,0.01,0.01,0.02,0.02,0.03c2.2-0.15,4.26,0.73,6.36,1.2c7.56,1.67,15.09,3.48,22.64,5.24c0.32,0.07,0.69,0.3,0.95,0.19
	c4.11-1.75,8.11-0.35,11.79,1.28c11.23,5,23.12,6.71,34.78,9.52c18.59,4.49,37.24,8.67,55.86,12.98
	c22.42,5.19,44.84,10.37,67.25,15.57c17.92,4.16,35.84,8.34,53.76,12.51c1.99,0.46,140.83,32.45,235.05,54.16V322.3
	C895.96,366.44,754.48,426.75,749.23,428.24z M499.2,477.29c-0.55,0.23-0.96-0.15-1.26-0.61c-0.77-1.17-0.96-2.57-1.31-4.19
	c1.87,0.5,1.87,0.5,2.19-3.93c0.73,2.51,0.74,4.93,1.15,7.25C500.09,476.46,499.79,477.05,499.2,477.29z"/>
</svg>
