<svg xmlns="http://www.w3.org/2000/svg" x="0px" y="0px" viewBox="0 0 383.7 63.2" >
<style type="text/css">
	.st0{fill:#8f4646;}
</style>
<path class="st0" d="M80.9,54.1H67.2c-7.4,0-13.5-6.1-13.5-13.5V0h-8.2v40.6c0,12,9.7,21.7,21.7,21.7h21.9V0h-8.2V54.1z"/>
<path class="st0" d="M114.5,42.3V0h-8.2v42.3c0,11,9,20,20,20h18.8v-8.2h-18.8C119.8,54.1,114.5,48.8,114.5,42.3z"/>
<path class="st0" d="M369.8,0c-12.8,0-23.2,10.4-23.2,23.2v15.6h8.2V23.2c0-8.3,6.7-15,15-15h13.9V0H369.8z"/>
<path class="st0" d="M368,39c0,8.3-6.8,15.1-15.1,15.1h-18.3v8.2h18.3c12.8,0,23.3-10.4,23.3-23.3V22.4H368V39z"/>
<path class="st0" d="M20.1,38.4c0,8.6-7,15.7-15.7,15.7H0.4v8.2h4.1c13.2,0,23.9-10.7,23.9-23.9V0h-8.2V38.4z"/>
<path class="st0" d="M155.6,23.3v38.9h8.2V38.8H191v23.4h8.2V38.8v-8.2V0h-20.2C166.1,0,155.6,10.5,155.6,23.3z M191,30.6h-27.2
	v-7.3c0-8.3,6.8-15.1,15.1-15.1h12V30.6z"/>
<polygon class="st0" points="254,15.3 225.4,15.3 225.4,0 217.2,0 217.2,15.3 217.2,23.5 217.2,62.3 225.4,62.3 225.4,23.5 
	254,23.5 254,62.3 262.2,62.3 262.2,23.5 262.2,15.3 262.2,0 254,0 "/>
<path class="st0" d="M278.9,23.3v38.9h8.2V38.8h27.2v23.4h8.2V38.8v-8.2V0h-20.2C289.3,0,278.9,10.5,278.9,23.3z M314.2,30.6h-27.2
	v-7.3c0-8.3,6.8-15.1,15.1-15.1h12V30.6z"/>
</svg>