<?xml version="1.0" encoding="utf-8"?>
<!-- Generator: Adobe Illustrator 23.0.4, SVG Export Plug-In . SVG Version: 6.00 Build 0)  -->
<svg version="1.1" id="Layer_1" xmlns="http://www.w3.org/2000/svg" xmlns:xlink="http://www.w3.org/1999/xlink" x="0px" y="0px"
	 viewBox="0 0 1400 1000" style="enable-background:new 0 0 1400 1000;" xml:space="preserve">
<style type="text/css">
	.st0{fill:none;stroke:#000000;stroke-width:5;stroke-miterlimit:10;}
	.st1{fill:none;stroke:#000000;stroke-width:5.2941;stroke-miterlimit:10;}
	.st2{fill:none;stroke:#000000;stroke-width:5.5882;stroke-miterlimit:10;}
	.st3{fill:none;stroke:#000000;stroke-width:5.8824;stroke-miterlimit:10;}
	.st4{fill:none;stroke:#000000;stroke-width:6.1765;stroke-miterlimit:10;}
	.st5{fill:none;stroke:#000000;stroke-width:6.4706;stroke-miterlimit:10;}
	.st6{fill:none;stroke:#000000;stroke-width:6.7647;stroke-miterlimit:10;}
	.st7{fill:none;stroke:#000000;stroke-width:7.0588;stroke-miterlimit:10;}
	.st8{fill:none;stroke:#000000;stroke-width:7.3529;stroke-miterlimit:10;}
	.st9{fill:none;stroke:#000000;stroke-width:7.6471;stroke-miterlimit:10;}
	.st10{fill:none;stroke:#000000;stroke-width:7.9412;stroke-miterlimit:10;}
	.st11{fill:none;stroke:#000000;stroke-width:8.2353;stroke-miterlimit:10;}
	.st12{fill:none;stroke:#000000;stroke-width:8.5294;stroke-miterlimit:10;}
	.st13{fill:none;stroke:#000000;stroke-width:8.8235;stroke-miterlimit:10;}
	.st14{fill:none;stroke:#000000;stroke-width:9.1176;stroke-miterlimit:10;}
	.st15{fill:none;stroke:#000000;stroke-width:9.4118;stroke-miterlimit:10;}
	.st16{fill:none;stroke:#000000;stroke-width:9.7059;stroke-miterlimit:10;}
	.st17{fill:none;stroke:#000000;stroke-width:10;stroke-miterlimit:10;}
	.st18{fill:none;stroke:#000000;stroke-width:10.5882;stroke-miterlimit:10;}
	.st19{fill:none;stroke:#000000;stroke-width:11.1765;stroke-miterlimit:10;}
	.st20{fill:none;stroke:#000000;stroke-width:11.7647;stroke-miterlimit:10;}
	.st21{fill:none;stroke:#000000;stroke-width:12.3529;stroke-miterlimit:10;}
	.st22{fill:none;stroke:#000000;stroke-width:12.9412;stroke-miterlimit:10;}
	.st23{fill:none;stroke:#000000;stroke-width:13.5294;stroke-miterlimit:10;}
	.st24{fill:none;stroke:#000000;stroke-width:14.1176;stroke-miterlimit:10;}
	.st25{fill:none;stroke:#000000;stroke-width:14.7059;stroke-miterlimit:10;}
	.st26{fill:none;stroke:#000000;stroke-width:15.2941;stroke-miterlimit:10;}
	.st27{fill:none;stroke:#000000;stroke-width:15.8824;stroke-miterlimit:10;}
	.st28{fill:none;stroke:#000000;stroke-width:16.4706;stroke-miterlimit:10;}
	.st29{fill:none;stroke:#000000;stroke-width:17.0588;stroke-miterlimit:10;}
	.st30{fill:none;stroke:#000000;stroke-width:17.6471;stroke-miterlimit:10;}
	.st31{fill:none;stroke:#000000;stroke-width:18.2353;stroke-miterlimit:10;}
	.st32{fill:none;stroke:#000000;stroke-width:18.8235;stroke-miterlimit:10;}
	.st33{fill:none;stroke:#000000;stroke-width:19.4118;stroke-miterlimit:10;}
	.st34{fill:none;stroke:#000000;stroke-width:20;stroke-miterlimit:10;}
</style>
<g>
	<line class="st0" x1="1398.6" y1="1" x2="0" y2="1"/>
	<line class="st1" x1="1398.6" y1="1" x2="0" y2="59.8"/>
	<line class="st2" x1="1398.6" y1="1" x2="0" y2="118.5"/>
	<line class="st3" x1="1398.6" y1="1" x2="0" y2="177.3"/>
	<line class="st4" x1="1398.6" y1="1" x2="0" y2="236.1"/>
	<line class="st5" x1="1398.6" y1="1" x2="0" y2="294.8"/>
	<line class="st6" x1="1398.6" y1="1" x2="0" y2="353.6"/>
	<line class="st7" x1="1398.6" y1="1" x2="0" y2="412.4"/>
	<line class="st8" x1="1398.6" y1="1" x2="0" y2="471.1"/>
	<line class="st9" x1="1398.6" y1="1" x2="0" y2="529.9"/>
	<line class="st10" x1="1398.6" y1="1" x2="0" y2="588.6"/>
	<line class="st11" x1="1398.6" y1="1" x2="0" y2="647.4"/>
	<line class="st12" x1="1398.6" y1="1" x2="0" y2="706.2"/>
	<line class="st13" x1="1398.6" y1="1" x2="0" y2="764.9"/>
	<line class="st14" x1="1398.6" y1="1" x2="0" y2="823.7"/>
	<line class="st15" x1="1398.6" y1="1" x2="0" y2="882.5"/>
	<line class="st16" x1="1398.6" y1="1" x2="0" y2="941.2"/>
	<line class="st17" x1="1398.6" y1="1" x2="0" y2="1000"/>
	<line class="st18" x1="1398.4" y1="1" x2="82.1" y2="1000"/>
	<line class="st19" x1="1398.2" y1="1" x2="164.1" y2="1000"/>
	<line class="st20" x1="1398" y1="1" x2="246.2" y2="1000"/>
	<line class="st21" x1="1397.8" y1="1" x2="328.2" y2="1000"/>
	<line class="st22" x1="1397.5" y1="1" x2="410.3" y2="1000"/>
	<line class="st23" x1="1397.3" y1="1" x2="492.4" y2="1000"/>
	<line class="st24" x1="1397.1" y1="1" x2="574.4" y2="1000"/>
	<line class="st25" x1="1396.9" y1="1" x2="656.5" y2="1000"/>
	<line class="st26" x1="1396.7" y1="1" x2="738.5" y2="1000"/>
	<line class="st27" x1="1396.5" y1="1" x2="820.6" y2="1000"/>
	<line class="st28" x1="1396.3" y1="1" x2="902.6" y2="1000"/>
	<line class="st29" x1="1396.1" y1="1" x2="984.7" y2="1000"/>
	<line class="st30" x1="1395.8" y1="1" x2="1066.8" y2="1000"/>
	<line class="st31" x1="1395.6" y1="1" x2="1148.8" y2="1000"/>
	<line class="st32" x1="1395.4" y1="1" x2="1230.9" y2="1000"/>
	<line class="st33" x1="1395.2" y1="1" x2="1312.9" y2="1000"/>
	<line class="st34" x1="1395" y1="1" x2="1395" y2="1000"/>
</g>
</svg>
