<?xml version="1.0" encoding="utf-8"?>
<!-- Generator: Adobe Illustrator 16.0.0, SVG Export Plug-In . SVG Version: 6.00 Build 0)  -->
<!DOCTYPE svg PUBLIC "-//W3C//DTD SVG 1.1//EN" "http://www.w3.org/Graphics/SVG/1.1/DTD/svg11.dtd">
<svg version="1.1" id="Layer_2_copy" xmlns="http://www.w3.org/2000/svg" xmlns:xlink="http://www.w3.org/1999/xlink" x="0px"
	 y="0px" width="1280px" height="1280px" viewBox="0 0 1280 1280" enable-background="new 0 0 1280 1280" xml:space="preserve">
<g>
	<path fill="#828282" d="M231.615,366.129h-1.398c-77.624,0-127.274-53.147-127.274-119.582
		c0-67.833,51.749-119.582,130.072-119.582c79.022,0,127.974,51.749,128.673,119.582
		C362.387,312.981,312.036,366.129,231.615,366.129z M347.001,1153.553H116.229V460.536h230.772V1153.553z M1177.083,1153.553
		H947.01V782.918c0-93.009-33.566-156.646-116.784-156.646c-63.638,0-101.4,42.658-118.184,83.917
		c-5.595,15.385-7.692,35.665-7.692,56.645v386.719H474.276c2.797-627.981,0-693.017,0-693.017H704.35v100.701h-1.399
		c30.07-47.553,84.617-116.785,209.094-116.785c151.751,0,265.039,99.302,265.039,311.892V1153.553z"/>
</g>
</svg>
