<svg viewBox="0 0 1280 1280">
	<path fill="#828282" d="M1266.598,1075.229c0,61.539-50.35,111.89-111.889,111.89H125.324c-61.539,0-111.89-50.351-111.89-111.89
		V314.38c0-61.539,50.351-111.89,111.89-111.89h1029.385c61.539,0,111.889,50.351,111.889,111.89V1075.229z M1154.709,292.002
		H125.324c-11.888,0-22.378,10.49-22.378,22.378c0,79.721,39.861,148.953,102.799,198.604
		c93.708,73.428,187.415,147.554,280.423,221.681c37.063,30.07,104.197,94.407,153.149,94.407h0.699h0.699
		c48.952,0,116.086-64.337,153.149-94.407c93.009-74.127,186.716-148.253,280.423-221.681
		c45.455-35.665,102.799-113.288,102.799-172.729C1177.086,322.771,1181.282,292.002,1154.709,292.002z M1177.086,538.159
		c-14.686,16.783-30.77,32.168-48.252,46.154c-100.002,76.925-200.702,155.247-297.906,236.367
		c-52.448,44.057-117.484,97.903-190.213,97.903h-0.699h-0.699c-72.729,0-137.764-53.847-190.212-97.903
		C351.9,739.561,251.2,661.238,151.198,584.313c-17.483-13.986-33.567-29.371-48.252-46.154v537.07
		c0,11.889,10.49,22.378,22.378,22.378h1029.385c11.888,0,22.377-10.489,22.377-22.378V538.159z"/>
</svg>
