<svg viewBox="0 0 1280 1280">
	<path fill="#828282" d="M1173.587,871.73c-4.196,86.015-23.777,162.239-86.715,225.178
		c-62.938,62.938-139.163,82.519-225.18,86.714c-74.127,4.196-147.554,3.497-221.681,3.497s-147.554,0.699-221.68-3.496
		c-86.015-4.196-162.24-23.777-225.178-86.715c-62.938-62.938-82.519-139.163-86.714-225.178
		c-4.196-74.127-3.497-147.554-3.497-221.681s-0.699-147.554,3.497-221.683c4.196-86.015,23.776-162.24,86.714-225.178
		s139.163-82.519,225.177-86.712c74.127-4.196,147.554-3.497,221.681-3.497s147.554-0.699,221.683,3.495
		c86.015,4.196,162.24,23.776,225.178,86.714s82.519,139.163,86.715,225.178c4.195,74.127,3.496,147.555,3.496,221.682
		S1177.782,797.604,1173.587,871.73z M323.225,231.162c-24.476,9.79-42.658,21.679-61.539,40.56
		c-18.881,18.882-30.77,37.063-40.56,61.54c-27.973,70.63-21.679,238.465-21.679,316.788c0,78.322-6.294,246.157,21.679,316.787
		c9.79,24.477,21.679,42.658,40.56,61.54c18.881,18.881,37.063,30.77,61.539,40.56c70.63,27.973,238.465,21.679,316.788,21.679
		c78.322,0,246.157,6.294,316.787-21.679c24.477-9.79,42.658-21.679,61.54-40.56c18.881-18.882,30.77-37.063,40.56-61.54
		c27.973-70.63,21.679-238.465,21.679-316.787c0-78.323,6.294-246.157-21.679-316.788c-9.79-24.476-21.679-42.658-40.56-61.54
		c-18.882-18.881-37.063-30.77-61.54-40.56c-70.63-27.973-238.465-21.679-316.787-21.679
		C561.69,209.483,393.855,203.189,323.225,231.162z M640.013,925.577c-152.45,0-275.528-123.079-275.528-275.528
		c0-152.45,123.079-275.528,275.528-275.528c152.449,0,275.528,123.079,275.528,275.528
		C915.541,802.498,792.462,925.577,640.013,925.577z M640.013,471.025c-98.603,0-179.023,80.421-179.023,179.023
		s80.421,179.023,179.023,179.023s179.023-80.421,179.023-179.023S738.615,471.025,640.013,471.025z M926.729,427.668
		c-35.664,0-64.336-28.671-64.336-64.336c0-35.665,28.672-64.336,64.336-64.336c35.665,0,64.337,28.672,64.337,64.336
		C991.066,398.997,962.395,427.668,926.729,427.668z"/>
</svg>
