<?xml version="1.0" encoding="utf-8"?>
<!-- Generator: Adobe Illustrator 23.0.1, SVG Export Plug-In . SVG Version: 6.00 Build 0)  -->
<svg version="1.1" id="Layer_1" xmlns="http://www.w3.org/2000/svg" xmlns:xlink="http://www.w3.org/1999/xlink" x="0px" y="0px"
	 viewBox="0 0 250 250" style="enable-background:new 0 0 250 250;" xml:space="preserve">
<g>
	<rect x="4.53" y="4.53" width="240.94" height="240.94"/>
	<g>
		<g>
			<g>
				<g>
					<path d="M247.97,244.35c-0.04,1.42,0.39,0.91,0.47,1.13C248.34,243.09,247.86,244.41,247.97,244.35z"/>
					<polygon points="246.99,220.86 247.17,221.27 246.74,217.81 					"/>
					<path d="M247,198.89c-0.73,2.08,0.12,7.96-0.14,11.87l-0.17,0.64l0.59,1.77C247.19,208.42,246.8,202.24,247,198.89z"/>
					<path d="M248.58,187.18c-0.28,0.72-0.25-2.53-0.09,2.73c0.04-0.26,0.05-0.34,0.07-0.49
						C248.56,188.94,248.56,188.29,248.58,187.18z"/>
					<path d="M248.57,189.42C248.59,191.73,248.8,187.9,248.57,189.42L248.57,189.42z"/>
					<path d="M248.4,178.73l0.25,3.05c0.17-0.64,0.21-3.35,0.33-2.34C248.85,176.31,248.68,176.96,248.4,178.73z"/>
					<path d="M247.87,175.85l0.11,1.58C248.05,177.15,248.07,176.73,247.87,175.85z"/>
					<path d="M248.2,180.77l-0.23-3.35c-0.12,0.44-0.36,0.49,0.08,1.54C247.84,178.69,248.05,179.35,248.2,180.77z"/>
					<path d="M248.09,182.67c-0.16,1.71-0.26,3.92-0.51,0.86C247.68,189.36,248.19,188.5,248.09,182.67z"/>
					<path d="M246.24,197.77l-0.21,2.28l0.25,1.98C246.15,201.04,246.47,197.63,246.24,197.77z"/>
					<path d="M248.78,159.75c-0.16-0.19-0.41,1.02-0.61,1.25l0.18,2.25C248.45,162.1,248.55,159.91,248.78,159.75z"/>
					<path d="M248.17,161.01l-0.27-3.37C247.87,160.65,248,161.2,248.17,161.01z"/>
					<polygon points="247.06,175.3 247.62,180.83 247.05,174.24 					"/>
					<polygon points="248.8,146.89 249.16,148.8 248.62,145.4 					"/>
					<path d="M248.74,138.36c0.3,1.41,0.51-1.94,0.69-0.44c-0.05-2.32-0.31-4.3-0.54-6.08
						C249.02,133.73,248.98,135.75,248.74,138.36z"/>
					<path d="M248.55,128.85c0.07,0.95,0.2,1.93,0.34,2.99C248.82,130.84,248.72,129.85,248.55,128.85z"/>
					<path d="M247.98,151.9c0.09-0.26,0.34-0.76,0.44-2.65l-0.44,1.32C247.98,150.98,247.98,151.44,247.98,151.9z"/>
					<path d="M247.97,150.62l0.01-0.05c0.01-1.44,0.02-2.43,0.02-2.86C248,148.08,247.99,148.96,247.97,150.62z"/>
					<path d="M247.98,152.24c0-0.12,0-0.21,0-0.33C247.93,152.03,247.92,152.11,247.98,152.24z"/>
					<path d="M247.45,166.47c-0.24-1.98-0.51-6.1-0.88-2.11C246.87,165.78,247.08,163.5,247.45,166.47z"/>
					<path d="M247.43,153.88l-0.1,3.58c0.12-0.07,0.28-0.72,0.41,0.26L247.43,153.88z"/>
					<polygon points="247.29,152.13 247.43,153.88 247.46,152.55 					"/>
					<path d="M248.14,134.98c-0.19-1.54-0.21-3.24-0.24-5.14c-0.09,2.05-0.13,4.16-0.13,6.17
						C247.91,136.29,248.16,137.17,248.14,134.98z"/>
					<path d="M248.02,142.58c-0.01-0.11-0.02-0.24-0.03-0.34C247.96,142.45,247.95,142.62,248.02,142.58z"/>
					<path d="M247.91,111.04c-0.03,0.1-0.05,0.2-0.08,0.3c0.03,0.02,0.05,0.04,0.08,0.07L247.91,111.04z"/>
					<path d="M247.69,136.35c-0.08,1.54,0.02,2.46,0.16,3.33c-0.04-1.15-0.07-2.37-0.08-3.68
						C247.71,135.88,247.67,135.85,247.69,136.35z"/>
					<path d="M248.35,123.61c-0.09,0.8-0.17,1.71-0.24,2.66C248.24,125.49,248.46,123.89,248.35,123.61z"/>
					<path d="M248.12,141.72c0.01,0.08,0.01,0.15,0.02,0.23C248.23,141.44,248.18,141.51,248.12,141.72z"/>
					<path d="M248.12,141.72c-0.06-0.79-0.17-1.41-0.27-2.04c0.03,0.94,0.08,1.8,0.15,2.56
						C248.03,142.05,248.07,141.85,248.12,141.72z"/>
					<path d="M245.09,105.34c0.41,0.27,0.78,4.31,0.35,7.8c0.3,3.43,1.64,1.19,2.39-1.81c-0.18-0.11-0.34-0.11-0.58-3.64
						c-0.22,1.24-0.52,7.84-0.89,4.86c-0.21-4.68,0.14-3.84,0.36-6.11c-0.51,1.93-0.74-5.96-1.48-4.94l0.26,4.11
						C245.39,105.69,245.2,104.2,245.09,105.34z"/>
					<path d="M247.79,118.07l0.05,1.45c0.07-1.66,0.23-2.85,0.55-5.03c-0.2-2.42-0.35-2.92-0.48-3.09l-0.06,7.16L247.79,118.07z"/>
					<path d="M247.84,126.06c-0.44-1.14-0.63-4.63-1.11-2.49c0.03,4.27,0.37,2.99,0.56,5.54c-0.11-6.89,0.25,1.98,0.5-3
						c0.08,1.35,0.1,2.57,0.12,3.72c0.05-1.24,0.12-2.44,0.2-3.56c-0.01,0.06-0.02,0.11-0.03,0.16l0,0.03l-0.01-0.01
						c-0.06,0.3-0.09,0.39-0.06,0.06c-0.01-0.02-0.01-0.11-0.01-0.14C247.95,126.32,247.89,126.2,247.84,126.06
						c0.09-1.99,0.12-0.31,0.17,0.31c0.02,0.02,0.04,0.08,0.07,0.08l0.01-0.03l-0.24-6.9C247.77,120.99,247.79,122.82,247.84,126.06
						z"/>
					<path d="M245.62,160.68c0.04-0.21,0.07-0.2,0.1-0.22C245.67,160.02,245.63,159.85,245.62,160.68z"/>
					<path d="M245.89,157.84c0.06,0.5,0.24,0.92,0.19,2.55c-0.13,1.41-0.21-0.01-0.36,0.07c0.12,0.98,0.32,3.44,0.53,0.36
						l-0.06-0.49c0.15-2.78,0.7-6.35,0.76-5.86C246.56,155.28,246.28,156,245.89,157.84z"/>
					<path d="M246.75,141.75l-0.22-5.75l-0.38,2.93l0.23-0.15C246.29,142.05,246.57,141.35,246.75,141.75z"/>
					<polygon points="248.13,110.38 248.59,111.14 247.93,107.82 					"/>
					<polygon points="248.07,102.91 248.48,103.19 248.23,101.22 					"/>
					<path d="M6.96,86.53l0.12,1.69C7.04,87.42,7,86.91,6.96,86.53z"/>
					<path d="M6.99,74.31l-0.2-0.3C6.9,74.58,6.98,74.81,6.99,74.31z"/>
					<path d="M160.48,1.98c-2.46-0.38-5.21-0.97-4.91-0.51l0.76,0.44C158.05,1.83,159.37,1.88,160.48,1.98z"/>
					<path d="M34.9,4.63c0.23,0.04,0.48,0.09,0.72,0.14c0.6-0.15,1.16-0.3,1.66-0.43C36.56,4.43,35.75,4.53,34.9,4.63z"/>
					<path d="M33.17,6.47l-3.24-0.29C30.65,6.28,31.69,6.38,33.17,6.47z"/>
					<path d="M7.43,153.29l0.45,1.97C7.88,152.17,7.66,153.53,7.43,153.29z"/>
					<path d="M247.91,26.44c0.17-2.12,0.25-3.81,0.27-5.29C247.92,23.71,247.54,25.77,247.91,26.44z"/>
					<path d="M2.24,81.72c0.08,1.03,0.17,1.47,0.27,1.44C2.44,82.1,2.35,81.5,2.24,81.72z"/>
					<path d="M248.17,15.02c-0.03,0.37-0.07,0.74-0.1,1.12c0.07,1.55,0.13,3.11,0.11,5.01C248.36,19.26,248.48,17.1,248.17,15.02z"
						/>
					<path d="M154.44,242.93c0.18,0.02,0.39,0.04,0.55,0.05C155.04,242.93,154.79,242.92,154.44,242.93z"/>
					<path d="M224.96,247.42c-0.69,0.03-1.83,0.03-2.9,0.03C222.59,247.49,223.46,247.48,224.96,247.42z"/>
					<path d="M248.26,72.87C248.29,74.46,248.31,73.12,248.26,72.87L248.26,72.87z"/>
					<path d="M246.51,80.57c-0.05-0.34-0.11-0.59-0.22-0.63C246.4,80.07,246.46,80.29,246.51,80.57z"/>
					<path d="M240.19,4.59c-0.05,0-0.08,0-0.14,0C240.52,4.68,240.44,4.66,240.19,4.59z"/>
					<path d="M248.06,75.26c0.05-0.59,0.1-1.28,0.13-2.03C248.16,73.56,248.12,74.17,248.06,75.26z"/>
					<path d="M248.27,74.93c-0.02,0.55-0.03,0.98-0.04,1.38C248.3,76.52,248.35,76.34,248.27,74.93z"/>
					<path d="M248.24,70.67c0.01,0.91-0.01,1.75-0.05,2.56c0.03-0.31,0.06-0.44,0.07-0.36C248.26,72.41,248.25,71.75,248.24,70.67z"
						/>
					<path d="M24.72,244.12c0.1,0.01,0.22,0.03,0.34,0.04C26.66,243.98,25.96,244.01,24.72,244.12z"/>
					<path d="M119.27,6.59c0.07-0.01,0.11-0.01,0.18-0.02c-0.07,0-0.17-0.01-0.23-0.02L119.27,6.59z"/>
					<path d="M113.58,6.92c2.42-0.55,3.8-0.49,5.63-0.37l-1.88-1.28L113.58,6.92z"/>
					<path d="M7.09,115.8l0.4-3.99c0.66,4.82,0.43,8.31,0.99,4.56c-1.39-0.57-0.14-15.53-1.53-16.08l0.29-2.63
						c-0.01,0.75,0.07,0.88,0.05,1.62c0.67-5.12-1.01-3.8-0.81-10.4c0.11-2.3,0.31-3.9,0.47-2.34l-0.34-5.12
						c0.03-1.49,0.27-1.13,0.24,0.36l-0.11-7.81l0.04,0.06c-0.22-1.11-0.56-3.64-0.7-4.88c0.2-1.99,0.15,1,0.32,0.49L6.07,65.3
						c0.36-1.76,0.71,1.82,0.66,4.81c1.39-4.04-0.35-3.59,0.46-12.31l0.18,4.09c0.79-2.63,0.5-5.82,1-10.44
						c-0.26,1.1-1.24,9.25-1.59,4.55c0.11-1.32,0.16-3.07-0.13-5.6C7.15,50.37,7.03,47.9,7,44.8l0.66,0.21
						c-0.19-3.35-0.52-3.08-0.82-5.05c0.06-3.73,0.57-4.5,1-5.38c0.1-5.97-0.81,4.12-0.94-2.95c0.25-4.97-0.02-8.46-0.41-14.4
						c0.23-3.48,0.4,0.61,0.59-0.64l-0.52-3.08c0.01-0.75,0.17-0.51,0.25-0.39c-0.2-2.6-0.66-0.21-0.83-4.3
						c-0.16-0.31-0.2-0.64-0.17-1.14c0.03-0.5,0.12-1.09,0.23-1.65c0.45,0.07,0.94,0.14,1.45,0.21c0.22,0.03,0.44,0.06,0.67,0.09
						l0.32,0.04L9.06,6.4c1.58,0.07,3.18,0.04,4.6-0.19c1.25,0.19-0.6,0.4-0.22,0.66c6.93-0.54,5.94-0.39,11.64-1.12l4.85,0.43
						c-3.56-0.49,0.99-1.08,4.98-1.55c-1.26-0.24-2.34-0.45-3.07-0.54l6.36-0.35c0.77,0.11,0.13,0.33-0.92,0.61
						c0.43-0.06,0.84-0.11,1.17-0.16c2.28,0.24,1.1,0.62-0.53,0.99c-0.77-0.14-1.54-0.27-2.29-0.4c-1.57,0.4-3.04,0.84-2.71,1.22
						c0.41-0.08,1.21-0.14,2.09-0.18c-0.41,0.11-0.67,0.2-0.48,0.27c0.22,0.07,0.88-0.08,1.92-0.24l1.45,0.73l0.35-0.29l8.33,0.46
						C52.51,6,57.69,4.92,67.14,4.62c-2.35,0.54-0.5,0.88-0.63,1.51c-2.58-0.67-7.32,0.29-12.22,0.15c2.56,0.07,1.99,0.37,1.34,0.48
						l8.74-0.61c-0.2,0.52,1.86,0.39,4.14,0.6c-1.73-1.03,6.51-0.68,10.07-1c0.22,0.34-0.63,0.7-4.97,0.61
						c4.79,0.77,6.18-1.21,10.88-0.55c-1.06,0.01-1.63-0.04-2.05,0.13c2.47-0.31,8.52-0.06,7.1,0.24l-1.06,0.01
						c7.03,0.12,21.41,0.01,22.46-0.86c0.07,0.11-0.92,1.05-1.35,1.23l12.55-2.93c-1.11,0.75,3.14,2.53-2.69,2.95
						c1.67,0.11,3.75,0.23,7.28-0.03c-1.14-0.11-2.85-1.08-1.29-1.15c4.28,0.83,2.97,0.45,8.26,1.16c-1.71-0.16,0.19-1.33,2.9-1.3
						c-0.42,0.18,0.23,1.16-0.76,1.28l6.73-1.15c-1.68,0.21-0.3,0.98,1.21,1.3c-0.7-0.23,5.82,0.02,7.62-0.09l-2.85-0.27
						c7.6,0.17,7.51-1.62,15.05-1.56c-0.91,0.24-2.26,1.47,1.58,1.61c1.76-0.59,7.78-2.84,14.46-3.29l1.28,0.34l5.12-0.38
						c-3.19,0.89-12.14,2.76-17.02,3.48c2.85,0.27,0.79,0.4,5.05,0.37c1.5,0.32-2.32,0.48-3.58,0.5l9.92,0.2
						c-0.44-0.69,7.59-0.69,7.21-1.27l-10.78,0.71c-0.44-0.69,6.23-1.96,13.26-1.83c1.79,0.27-1.34,1.23-1.19,1.46
						c0.91-0.24,6.67-0.45,7.32-0.28l-2.98,0.37c3.91,0.26,6.39-0.91,11.09-0.26c1.62,0.04,4.85,0.89,5.13,0.48
						c-2.65-0.79-3.16-3.22-1.4-3.81c0.57,0.05,8.52,0.75,10.38,1.14c2.67,0.62-4.01,1.47-1.74,2c0.1-0.19,1.57-0.42,2.19-0.5
						c1.7,0.16-0.71,0.58,3,0.5c0.62-0.7,7.53,0.06,1.75-0.59c3.62-0.2,3.85,0.14,8.11,0.11c-1.35-0.45,3.82-1.54,7.45-1.74
						c-0.21,0.18,0.6,0.41,1,0.51c1.98,0.02,3.63,0.05,5.12,0.09c-0.12,4.25-0.29,7.81-0.29,12.9c-0.17,0.64-0.37,3.98-0.67,2.56
						c0.12,1,0.36,1.91,0.38,4.05c-0.6,4.13-0.09-4.76-0.82-1.61c0.41,0.27,0.56,5.52,0.81,8.57c0.63-0.94,0.12-7.03-0.13-10.08
						c0.86-0.01,1.77,5.29,2.17,12.53c0.21,5.75-0.56,2.49-0.44,3.49c-0.15,10.81,1.51,9.21,0.89,18.18
						c-0.55,3.56-1.1,0.16-1.49,0.95c-0.21-4.69,0.35-7.2,0.33-10.37l-0.26,3.91c-0.18-1.49-0.32-4.62-0.16-6.32
						c-0.5,2.98-0.1,18.26-0.55,26.59c0.18,1.48,0.38,4.04,0.6,2.83l-0.08-2.64c0.44-2.42,0.61,4.96,0.82,1.63
						c0.31,3.54,0.8,7.51,0.55,12.49l-0.63,0.94c0.18-0.11,0.37-3.26,0.18-4.66c0.28,2.08-0.85,7.64-0.03,9.91l0.44-3.49
						c0.32,3.55,0.98,7.94,0.78,12.36c0.62-2.01-0.07-1.02,0.66-4.15c-0.9,2.72,0.04-11.29-0.91-6.92c0.84-3.22,0.36-5.57,1.08-9.78
						c-0.21,0.13-0.4,1.49-0.29-2.22c-0.06-0.17-0.14-0.56-0.18-0.81c0.01-0.11,0.01-0.15,0.02-0.25c-0.01,0.07-0.02,0.13-0.02,0.2
						c-0.03-0.16-0.04-0.18-0.01,0.08c-0.09,0.88-0.2,1.6-0.32,1.89c-0.48-1.84-0.46-7.73-0.71-9.73c0.1-2.2,0.24,0.92,0.46-0.28
						l-0.37-2.98c0.46-0.29,0.76-5.84,1.03-0.66l0.02-4.66c0.26-2.75,0.36-6.52,0.17-8.85c0.1-2.2-0.51-5.56-0.15-3.64l-0.29-7.31
						l0.12-0.07c0.06-7.22-0.76-14.85,0.07-23.1c-0.06-1.21-0.12-2.45-0.16-3.89c-0.02-0.72-0.03-1.49-0.02-2.34
						c0.02-1.1,0.03-2.3,0.05-3.62l0.4-1.5c-0.02-0.89-0.03-1.94-0.02-3.12c-1.4-0.02-2.93-0.04-4.46-0.06
						c-1.24-0.03-2.48-0.06-3.63-0.08c-1.67-0.04-3.08-0.03-3.64,0.14c-3.36-1.07-15.14-0.23-20.62-0.42l-0.21,0.52
						c-3.78-0.03-7.4,0.12-12.08,0.33l0.29,0.46c-4.04,0.38-10.39-0.33-16.78-0.28c0.43-0.18,2.06-0.13,3.2-0.02
						c-7.64-1.04-16.11,0.76-23.04,0c-1.73,0.17-2.98,0.11-4.19-0.01c0.16,0,0.3-0.01,0.43-0.02c-0.18,0-0.44,0-0.71-0.01
						c-0.76-0.08-1.55-0.16-2.4-0.24c0.72,0.11,1.41,0.2,2.02,0.25c-1.33,0.01-3.35,0.07-5.33,0.18l-0.84-0.49
						c-0.16,0-0.29,0.01-0.46,0.01c-1.94-0.18-1.56,0.23-0.53,0.61c-1,0.08-1.91,0.18-2.62,0.3c-1.58-0.8-5.19,0.27-7.34-0.58
						c-1.33,0.41-9.95,0.31-11,1.18c-0.07-0.11-0.65-0.17,0.42-0.17c-2.21-0.1-4.41-0.2-6.39,0.05l-0.94-0.63l-4.82,0.84
						c-2.93-0.38-4.14-0.6-1.23-1.09c-7.02,0.74-5.69,0.28-11.66,1.02l0.29-0.41c-2.13,0.02-5.54,0.56-6.83,0.22
						c-4.77-0.77-23.6-0.11-35.85-0.82c2.38,1.19-5.69-0.54-6.18,0.39c-0.71-0.28-2.42-0.44-0.44-0.69
						c-6.25,0.28-9.39-0.45-13.7,0.33c-0.72-0.28,1.34-0.41,0.7-0.58c-0.5,0.06-1.99,0.25-2.64,0.08c-0.64-0.17,0.92-0.24,1.9-0.36
						c-6.38,0.05-7.03,0.92-7.49,1.74c-3.24-0.39-4.85-0.33-7.19,0.2c-1.13-0.27-3-0.55,0.96-0.64c-2.23-0.04-13.63-0.39-13.86,0.26
						C18.76,3,16.34,3.12,15.75,3.2c-2.5-0.03-3.87-0.04-5.22-0.06c-0.69,0-1.37,0-2.2-0.01C7.25,3.14,5.97,3.15,4.32,3.16L6.2,3.27
						C5.42,3.55,4.65,3.65,3.67,3.67C3.69,4.59,3.64,5.53,3.6,6.7C3.58,7.28,3.56,7.9,3.54,8.58c-0.01,0.55-0.02,1.14,0,1.78
						l-0.08-0.11c-0.57,9.09,0.27,3.92-0.38,12.89l0.49-0.49c1.06,0.84-0.62,7.94-0.22,13.15l0.28-1.88
						C4,36.76,2.2,41.86,2.06,44.72c-0.09,0.62-0.15-0.98-0.22-1.85c-0.62,7.47,0.64,0.97,0.79,6.54c-0.35,1.03-0.88-1.32-0.95,2.42
						C1.41,53.69,2.82,62.7,2.16,67.81c0.27-1.13,0.53-2.25,0.74,0.34c0.1,3.96-1.01,10.72-0.17,14.3c-0.07,0.5-0.14,0.69-0.21,0.72
						c0.22,3.03,0.36,9.85,0.82,11.67c-1.7,2.8,0.83,18.84-0.74,18.77l0.08,9.32l-0.16-0.24c-0.1,5.96,0.27,8.07,0.65,10.16
						c-0.11,1.38-0.25,0.37-0.33,0.26c-0.32,8.71-0.25,9.57,0.53,16.87l-0.51,0.76c0.3,1.98-0.8,12.59-0.2,21.13
						c-0.06-0.08-0.16-0.26-0.23-0.94c0.6,9.61-1.41,23,0.44,26.52l0.46,6.34c0.14-8.2,0.8,1.22,1.11-2.15
						c0.11,3.23-0.56,8.34-0.65,4.38l0.09-0.62c-0.96-1.46-0.34,10.19-1,9.97c0.02,5.11-0.03,10.18-0.1,15.2
						c-0.08,5.69-0.16,11.33-0.24,16.9c3.53,0.04,7.03,0.08,10.51,0.13c2.81,0.02,5.61,0.04,8.38,0.07l-1.74-0.75l5.27,0.04
						c1.38,0.17,1.86,0.59-1.9,0.56c1.98,0.42,6.31-0.36,6.42-0.52c7.37,0.3-2.88,0.87-0.62,0.89l3.07-0.06l-0.69-0.09
						c2.49-0.31,2.71-0.63,7.23-0.59c2.86,0.15,1.47,0.46,2.59,0.49c-0.01,0.05,0.37,0.08,1.73,0.02l6.64,0.06l-2.66-0.59
						c2.95-0.29,6.25,0.03,3.18-0.64c4.5,1.03,24.78,0.37,27.55,0.69c4.12-0.43,8.2-0.42,13.24-0.37c-1.25-0.12-2-0.79,2.35-0.71
						c-1.59,1.37,7.97,0.6,11.48,1.58c-3.14-0.66,12.37-0.16,7.44-1.09c3.63,0.11,0.22,0.51,2.97,0.84
						c8.64-0.53,19.04,0.35,29.72,0.17c0.17-0.18-1.62-0.46,0.67-0.72l5.64,0.9c2.11-0.09,1.94-1.04,5.79-0.41
						c-0.54-0.15-1.36-0.38,0.06-0.44c20.92,0.88,42.75-0.72,63.99,0.93c-2.88-0.35-0.96-0.38,1.24-0.4
						c-1.43-0.08,0.03-0.45-0.25-0.69l8.89,0.68c1.62-0.68,9.54-0.05,10.46-0.69l-2.82,0.12c3.75-0.77-5.24-1.7-4.69-2.68
						c-4.19,0.87-11.06-1.29-17.94-0.04c-1.52-0.2,1.3-0.32,0.48-0.54c-1.74,0.42-3.85,0.51-7.75,0.32l0.44-0.1
						c-10.97,0.1-15.67-0.31-27.99-0.59l0.91,0.49c-2.65-0.06-3.2-0.22-4.44-0.34c-3.04,0.74,7.44,0.04,4.67,0.85
						c-3.51-0.99-18.67-0.01-21.04-1.14c-4.07-0.01,1.19,0.56-2.88,0.56l-1.08-0.3l-1.03,0.39c-2.67-0.06-4.02-0.44-4.12-0.7
						c0.65,0.03,1.84-0.07,2.54-0.09c-3.46-0.36-9.76,0.12-10.95,0.01l3.91,0.19c-11.12,0.28-24.69-0.11-35.42,0.5l0.82,0.23
						c-8.2,0.42-6.57-0.25-15.57-0.06l0.33-0.05c-1.8,0.23-4.21,0.34-6.67,0.32c2.27-0.27-4.28-0.52-1.3-0.82
						c-8.89,0.45-4.4,0.36-10.27,1.21l-1.35-0.38c-2,0.34-2.17,0.52-6.67,0.62c3.69-0.33-2.87-0.58,1.26-1.01
						c-9.44-0.83-14.01,0.84-18.34-0.38c-4.33,1.05,8.17,0.58,5.74,0.81c2.03,0.34-3.58,0.79-6.54,0.68
						c-3.01-0.02-5.13-1.35-12.71-1.33c0.75,0.01,0.81-0.07,1.56-0.07c-2.84-0.27-5.56,0.36-9.04-0.07
						c-1.95,0.64-4.52-0.04-5.08,0.77l6.96-0.19c-3.94,0.21-7.64,1.16-14.14,0.7c0.51-0.16,2.44-0.38,3.77-0.5
						c-1.9-0.24-3.66,0.16-5.63-0.09c0.56-0.81,8.45-0.18,12.68-0.8c-2.04-0.34-7.99,0.59-5.87-0.29
						c-3.05,1.12-7.47-0.14-12.61,0.71l0.34-0.49c-0.81,0.08-2.5,0.31-3.99,0.29l2.71-0.63c-1.32,0.17-2.72,0.19-3.9,0.13
						c-0.48-0.05-0.87-0.17-1.16-0.26c0.05-0.26,0.09-0.48,0.1-0.68c0.01-0.1,0.01-0.19,0-0.29l-0.02-0.14l-0.01-0.07l-0.02-0.23
						c0,0.25-0.01,0.47-0.01,0.66c-0.01,0.14-0.02,0.27-0.03,0.38c-0.03,0.22-0.06,0.37-0.11,0.48c0.08,0.1-0.13,0.24-0.33,0.38
						c-0.19,0.14-0.36,0.29,0.18,0.42c-0.26,0.03-0.51,0.05-0.72,0.07c-0.05-0.54-0.07-1.05-0.06-1.48c0-0.21,0.01-0.41,0.03-0.59
						c0.02-0.29,0.04-0.55,0.06-0.8c0.1-1.07,0.27-1.79,0.45-2.58c0.36-1.59,0.74-3.46,0.63-8.98c0.07,1.56-0.29,5.86-0.52,3.42
						c0.1-2.19,0.29-5.09,0.54-6.44c-0.1-7.64-0.5,1.17-0.8-2.08c0.59-2.6-0.24-3.75-0.43-7.1l0.49-0.02
						c0.32-8.7-1.03-2.31-0.65-10.14l0.69,3.31l-0.18-4.09l0.56,0.84c-0.42-4.44-0.31-5.83-0.15-10.18
						c-0.35,1.01-0.9-0.57-0.91-4.42c0.29-2.63,0.47,1.47,0.4-3.99c0.31,1.23,0.7,2.59,0.24,4.96c0.16,0.24,0.31,1.22,0.47,1.47
						c0.34-2.83,0.08-7.12,0.07-9.09c-0.02,0.76-0.05,1.67-0.12,2.14l-0.69-7.92c0.19-1.25,0.33-0.26,0.48,0.72
						c-0.05-1.6-0.28-2.71-0.32-5.07c0.4,0.61,0.82,0.46,1.01,3.8l-0.45-7.55c0.17-0.5,0.48-3.87,0.63-2.89
						c0.24-4.18-0.78-10.26-0.47-15.81c-0.08-0.29-0.15-0.87-0.21-2.05c0.09-5.21,0.58-9.83,0.03-16.01l0.72-3.51
						c-0.16-4.84-0.91,4.75-1.18-3.31c-0.23-5.71,0.61-2.13,0.82-4.13c-0.36-2.84-1.1-7.77-0.52-13.01
						C7.14,112.82,7.04,114.18,7.09,115.8z M6.77,56.11c0.1,1.16,0.42,3.46,0.13,4.31C6.34,59.1,6.61,58.08,6.77,56.11z M43.69,5.58
						C42.83,5.74,41.5,5.66,40,5.48C41.09,5.44,42.32,5.45,43.69,5.58z M247.86,55.52c-0.01-0.05-0.02-0.08-0.02-0.12
						C248.03,52.81,247.95,53.73,247.86,55.52z M247.65,60.87c0.07,0.54,0.14,0.5,0.21,0.27c-0.13-0.37-0.13-1.58-0.1-2.95
						C247.63,58.58,247.54,59.27,247.65,60.87z M41.63,247.45l-1.04-0.13C42.95,247.18,42.29,247.31,41.63,247.45z"/>
					<path d="M33.4,6.26c-0.33-0.08-0.42-0.18-0.49-0.27C32.45,6.07,32.44,6.17,33.4,6.26z"/>
					<path d="M7.35,152.92l-0.01,0.18c0.03,0.1,0.06,0.15,0.09,0.18L7.35,152.92z"/>
					<path d="M218.83,6.55c-1.1-0.07-1.72-0.16-2.13-0.26C216.64,6.41,217.14,6.51,218.83,6.55z"/>
					<path d="M248.49,89.26l-0.13-3.43c0.02,1.66-0.08,2.25-0.16,3.09C248.31,88.85,248.48,88.19,248.49,89.26z"/>
					<path d="M245.43,119.05c0.06,0.5,0.01,1.06,0.07,1.56l0.23-0.14C245.71,118.33,245.53,116.84,245.43,119.05z"/>
					<path d="M246.84,92.44c-0.42,0.27-0.27,2.42-0.2,4.83c0-0.14,0-0.28,0-0.43C247.23,97.55,247.04,94.99,246.84,92.44z"/>
					<path d="M246.66,97.83c0.02,0.74,0.03,1.5,0.01,2.22C246.9,100.33,246.72,99.15,246.66,97.83z"/>
					<path d="M247.92,67.67c-0.11,1.14,0.53,0.72,0.36,1.36C248.81,70.3,247.64,61.43,247.92,67.67z"/>
					<polygon points="245.47,94.39 245.99,93.52 245.57,92.18 					"/>
					<path d="M245.85,75.41l-0.14,3.84c0.09-0.06,0.14,0.43,0.18,1.03C245.9,77.91,246,75.32,245.85,75.41z"/>
					<path d="M245.88,80.28c-0.01,1.23,0,2.41,0.09,3.09C245.96,82.7,245.95,81.27,245.88,80.28z"/>
					<polygon points="245.32,89.14 245.43,88 245.46,85.29 					"/>
					<path d="M245.95,34.11l-0.15-4.19c-0.18-0.43-0.28,0.72-0.21,2.28C245.71,33.2,245.78,34.76,245.95,34.11z"/>
					<path d="M244.54,46.79c0.11-1.13,0.22-1.21,0.39-1.85l-0.64-0.13L244.54,46.79z"/>
					<path d="M244.4,34.57c-0.18-0.42-0.51-6.08-0.47-0.77C244.1,34.22,244.25,38.42,244.4,34.57z"/>
					<polygon points="212.34,4.8 213.41,4.79 213.26,3.75 					"/>
					<path d="M156.67,7.3c4.97,0.25,1.18-0.64,5.67-0.33c1.17-0.25-3.67-0.25-2.47-0.47C156.87,6.76,155.29,6.61,156.67,7.3z"/>
					<path d="M159.87,6.5c0.48-0.04,0.99-0.09,1.53-0.16C160.53,6.4,160.12,6.45,159.87,6.5z"/>
					<polygon points="236.67,247.98 239.86,248.2 237.8,247.85 					"/>
					<path d="M242.8,247.21l0.75,0.67l1.92-0.6C244.75,247.3,243.35,247.36,242.8,247.21z"/>
					<path d="M8.11,47.23l-0.16-0.24c-0.17,0.49-0.19,1.24-0.21,2.74L8.11,47.23z"/>
					<polygon points="7.61,90.56 7.63,89.81 7.03,91.21 					"/>
					<path d="M8.38,126.92c0.03-1.48-0.11-3.23-0.08-4.72C8.41,125.43,7.63,127.32,8.38,126.92z"/>
				</g>
			</g>
		</g>
	</g>
</g>
</svg>
