<svg id="icon_swipe" xmlns="http://www.w3.org/2000/svg" viewBox="0 0 300 300">

	<g>
		<path fill-rule="evenodd" clip-rule="evenodd" d="M119.018,175.292c0-15.88,0.001-30.939,0-45.998
			c-0.001-19.958-0.067-39.917,0.017-59.874c0.055-13.071,8.97-23.583,21.21-25.313c12.714-1.797,24.489,5.789,27.864,18.11
			c0.637,2.324,0.911,4.814,0.929,7.231c0.091,12.326,0.042,24.654,0.042,36.981c0,0.95,0,1.9,0,2.917
			c18.804-5.414,28.07-1.969,36.287,13.566c6.78-3.857,13.979-5.153,21.562-2.665c7.639,2.506,12.752,7.723,15.753,14.937
			c3.174-1.084,6.202-2.501,9.386-3.139c15.256-3.06,29.614,8.562,29.694,24.128c0.123,23.675,0.218,47.354-0.032,71.027
			c-0.353,33.272-26.39,62.669-59.506,66.257c-16.777,1.818-33.812,2.121-50.604-0.54c-10.807-1.712-19.99-7.206-27.721-14.918
			c-29.434-29.368-58.825-58.778-88.206-88.199c-9.74-9.753-8.852-22.196,2.092-30.576c10.978-8.405,26.464-9.035,37.882-1.19
			c6.846,4.703,13.366,9.882,20.034,14.843C116.611,173.555,117.536,174.214,119.018,175.292z M131.513,128.279
			c0,18.488,0,36.977,0,55.466c0,1.076-0.039,2.153,0.001,3.228c0.103,2.766-0.807,5.025-3.33,6.367
			c-2.638,1.403-5.055,0.8-7.367-0.939c-10.391-7.822-20.756-15.68-31.233-23.384c-7.818-5.749-18.142-5.25-25.187,0.966
			c-3.695,3.261-3.893,6.902-0.422,10.376c29.594,29.617,59.177,59.246,88.835,88.799c8.503,8.474,18.938,12.582,30.935,12.633
			c9.88,0.042,19.762,0.069,29.641-0.043c3.113-0.035,6.274-0.271,9.324-0.873c27.979-5.523,46.5-28.02,46.582-56.558
			c0.063-22.01,0.026-44.021,0.011-66.032c-0.001-1.361-0.096-2.743-0.343-4.079c-1.071-5.812-6.089-10.062-11.948-10.206
			c-5.715-0.14-11.001,3.712-12.254,9.409c-0.599,2.723-0.447,5.624-0.515,8.447c-0.107,4.409-2.562,7.255-6.352,7.214
			c-3.706-0.04-6.104-2.756-6.137-7.071c-0.045-5.967,0.103-11.938-0.069-17.9c-0.212-7.36-5.693-12.651-12.738-12.578
			c-6.952,0.072-12.234,5.649-12.276,13.015c-0.034,6.065,0.032,12.131-0.042,18.195c-0.037,3.053-1.819,5.368-4.582,6.098
			c-2.744,0.726-5.188-0.028-6.649-2.433c-0.805-1.324-1.158-3.109-1.175-4.692c-0.104-9.781-0.02-19.564-0.065-29.347
			c-0.033-7.1-4.504-12.494-10.83-13.219c-7.896-0.905-14.188,4.647-14.233,12.682c-0.058,10.271,0.017,20.543-0.038,30.814
			c-0.018,3.274-2.093,5.736-5.05,6.34c-2.813,0.575-5.913-0.986-6.896-3.73c-0.446-1.246-0.502-2.68-0.506-4.029
			c-0.033-12.424-0.016-24.848-0.015-37.271c0.002-18,0.032-36-0.008-54c-0.017-7.641-4.943-13.227-11.785-13.563
			c-7.521-0.37-13.256,5.25-13.275,13.204C131.476,89.149,131.507,108.714,131.513,128.279z"/>
		<path fill-rule="evenodd" clip-rule="evenodd" d="M247.815,31.079c-4.82-4.762-9.168-8.925-13.337-13.26
			c-1.157-1.203-2.193-2.824-2.557-4.419c-0.622-2.728,0.555-5.042,3.108-6.343c2.608-1.329,5.167-1.031,7.308,1.025
			c3.103,2.981,6.104,6.066,9.157,9.1c5.202,5.17,10.416,10.329,15.615,15.502c3.018,3.003,3.145,6.626,0.201,9.575
			c-8.152,8.168-16.34,16.301-24.552,24.408c-2.368,2.338-5.236,2.796-7.751,1.445c-2.426-1.303-3.838-3.915-3.083-6.654
			c0.414-1.504,1.435-2.982,2.538-4.13c4.171-4.339,8.487-8.539,13.228-13.267c-1.721-0.083-2.746-0.175-3.77-0.175
			c-17.898-0.005-35.796,0.005-53.694,0.003c-5.644,0-8.756-2.337-8.647-6.457c0.106-4.029,3.068-6.171,8.625-6.174
			c17.898-0.009,35.796,0,53.694-0.007C244.919,31.25,245.943,31.164,247.815,31.079z"/>
		<path fill-rule="evenodd" clip-rule="evenodd" d="M41.173,31.257c12.416,0,24.832,0.001,37.248,0
			c6.946,0,13.892-0.047,20.837,0.007c4.225,0.033,6.888,2.297,7.102,5.837c0.243,4.034-2.469,6.728-7.053,6.76
			c-9.195,0.064-18.391,0.025-27.587,0.025c-9.392,0-18.783-0.008-28.174,0c-0.836,0-1.672,0.095-3.415,0.2
			c4.352,4.252,8.168,7.974,11.974,11.708c0.977,0.958,2.005,1.885,2.856,2.949c2.038,2.548,1.804,5.987-0.462,8.271
			c-2.211,2.228-5.761,2.485-8.278,0.477c-1.217-0.971-2.275-2.145-3.383-3.248c-7.278-7.248-14.553-14.5-21.823-21.755
			c-3.136-3.129-3.165-6.67-0.061-9.768c7.892-7.879,15.793-15.75,23.697-23.617c3.316-3.301,7.083-3.69,9.796-1.035
			c2.855,2.794,2.49,6.45-1.034,9.979c-4.19,4.197-8.401,8.371-12.604,12.555C40.931,30.82,41.052,31.039,41.173,31.257z"/>
		<path fill-rule="evenodd" clip-rule="evenodd" fill="#FFFFFF" d="M131.51,128.279c-0.003-19.565-0.034-39.13,0.012-58.695
			c0.019-7.953,5.754-13.574,13.275-13.204c6.842,0.336,11.768,5.922,11.785,13.563c0.04,18,0.01,36,0.008,54
			c-0.001,12.423-0.019,24.847,0.015,37.271c0.004,1.349,0.06,2.783,0.506,4.029c0.983,2.744,4.083,4.305,6.896,3.73
			c2.957-0.604,5.032-3.066,5.05-6.34c0.055-10.271-0.02-20.543,0.038-30.814c0.045-8.034,6.337-13.587,14.233-12.682
			c6.326,0.725,10.797,6.12,10.83,13.219c0.045,9.782-0.039,19.565,0.065,29.347c0.017,1.583,0.37,3.369,1.175,4.692
			c1.462,2.405,3.906,3.159,6.649,2.433c2.763-0.73,4.545-3.045,4.582-6.098c0.074-6.064,0.007-12.13,0.042-18.195
			c0.042-7.366,5.325-12.943,12.276-13.015c7.045-0.073,12.526,5.218,12.738,12.578c0.172,5.962,0.024,11.934,0.069,17.9
			c0.032,4.315,2.431,7.032,6.137,7.071c3.789,0.041,6.245-2.806,6.352-7.214c0.068-2.823-0.084-5.724,0.515-8.447
			c1.253-5.697,6.54-9.549,12.254-9.409c5.859,0.144,10.877,4.395,11.948,10.206c0.247,1.336,0.341,2.718,0.343,4.079
			c0.015,22.011,0.052,44.021-0.011,66.032c-0.082,28.538-18.603,51.035-46.582,56.558c-3.049,0.602-6.21,0.838-9.324,0.873
			c-9.879,0.112-19.76,0.085-29.641,0.043c-11.997-0.051-22.431-4.159-30.935-12.633c-29.658-29.553-59.241-59.182-88.835-88.799
			c-3.471-3.474-3.273-7.115,0.422-10.376c7.044-6.217,17.368-6.715,25.187-0.966c10.477,7.705,20.842,15.562,31.233,23.384
			c2.312,1.739,4.729,2.342,7.367,0.939c2.523-1.342,3.433-3.601,3.33-6.367c-0.04-1.075-0.001-2.152-0.001-3.228
			C131.513,165.256,131.513,146.767,131.51,128.279z"/>
	</g>
</svg>
