<?xml version="1.0" encoding="utf-8"?>
<!-- Generator: Adobe Illustrator 23.0.5, SVG Export Plug-In . SVG Version: 6.00 Build 0)  -->
<svg version="1.1" id="Layer_1" xmlns="http://www.w3.org/2000/svg" xmlns:xlink="http://www.w3.org/1999/xlink" x="0px" y="0px"
	 viewBox="0 0 424.7 124.7" style="enable-background:new 0 0 424.7 124.7;" xml:space="preserve">
<g>
	<path d="M0,0v124.7h153.7v-5H5V5h414.7v114.7H249.4c-41.2,0-72.1-32.9-72.3-33.2l-13-14.7c8.9-2.1,13.6-9.6,13.6-17.1
		c0-8.8-6.4-17.6-18.7-17.6h-9.8v47.7h5V72.4h2.2h1.4l15.4,17.4c1.3,1.4,32.6,34.9,76.1,34.9h175.3V0H0z M156.6,67.4h-2.2V42.1h4.7
		c6.6,0,13.6,3.9,13.6,12.6c0,8.3-6.9,12.7-13.6,12.7H156.6z"/>
	<path d="M52.8,37.1H40.5v47.7h9.8c9.3,0,18.7-6.1,18.7-17.6c0-7.9-4.3-13.2-10-15.8c1.2-1.5,2-3.4,2-5.5
		C60.9,40.6,56.7,37.1,52.8,37.1z M45.6,42.1h7.2c1.1,0,3.1,1.4,3.1,3.6c0,2.3-2,3.6-3.1,3.6h-7.2V42.1z M63.9,67.1
		c0,6.3-4.2,12.6-13.6,12.6h-4.7V54.4h4.7C56.9,54.4,63.9,58.4,63.9,67.1z"/>
	<path d="M205.5,37.1h-12.3v47.7h9.8c9.3,0,18.7-6.1,18.7-17.6c0-7.9-4.3-13.2-10-15.8c1.2-1.5,2-3.4,2-5.5
		C213.7,40.6,209.4,37.1,205.5,37.1z M198.3,42.1h7.2c1.1,0,3.1,1.4,3.1,3.6c0,2.3-2,3.6-3.1,3.6h-7.2V42.1z M216.6,67.1
		c0,6.3-4.2,12.6-13.6,12.6h-4.7V54.4h4.7C209.6,54.4,216.6,58.4,216.6,67.1z"/>
	<rect x="83.6" y="37.1" width="5" height="47.7"/>
	<polygon points="133,42.1 133,37.1 111,37.1 111,49.7 104.3,49.7 104.3,54.8 111,54.8 111,84.7 133,84.7 133,79.7 116,79.7 
		116,54.8 133,54.8 133,49.7 116,49.7 116,42.1 	"/>
	<path d="M249.7,35.9L231,84.1h37.5L249.7,35.9z M249.7,49.7l6.6,17h-13.2L249.7,49.7z M241.2,71.8h17.1l2.8,7.3h-22.8L241.2,71.8z"
		/>
	<path d="M384.2,84.1l-16.5-49.2l-13,38.8l-13-38.8L325,84.1h26.1h7H384.2z M367.6,50.7l9.5,28.4h-19.1L367.6,50.7z M332,79
		l9.5-28.4l9.5,28.4H332z"/>
	<path d="M283.8,37.1h-5v28.5c0,9.3,6.1,18.7,17.6,18.7c0.1,0,0.3,0,0.4,0c11.6,0,17.6-9.4,17.6-18.7V37.1h-5v23.7v4.7
		c0,9.4-6.3,13.6-12.6,13.6c-0.1,0-0.3,0-0.4,0c-6.3,0-12.6-4.2-12.6-13.6v-4.7V37.1z"/>
</g>
</svg>
