<?xml version="1.0" encoding="utf-8"?>
<!-- Generator: Adobe Illustrator 23.0.5, SVG Export Plug-In . SVG Version: 6.00 Build 0)  -->
<svg version="1.1" id="Layer_1" xmlns="http://www.w3.org/2000/svg" xmlns:xlink="http://www.w3.org/1999/xlink" x="0px" y="0px"
	 viewBox="0 0 438.9 138.9" style="enable-background:new 0 0 438.9 138.9;" xml:space="preserve">
<g>
	<polygon points="265.4,78.8 248.3,78.8 245.4,86.1 268.2,86.1 	"/>
	<polygon points="374.7,57.8 365.2,86.1 384.3,86.1 	"/>
	<polygon points="256.8,56.8 250.2,73.8 263.4,73.8 	"/>
	<path d="M205.4,61.5v25.3h4.7c9.4,0,13.6-6.3,13.6-12.6c0-8.7-7.1-12.7-13.6-12.7H205.4z"/>
	<path d="M215.7,52.8c0-2.3-2-3.6-3.1-3.6h-7.2v7.3h7.2C213.7,56.5,215.7,55.1,215.7,52.8z"/>
	<path d="M179.8,61.8c0-8.7-7.1-12.6-13.6-12.6h-4.7v25.3h2.2h2.5C172.9,74.5,179.8,70.1,179.8,61.8z"/>
	<polygon points="339.1,86.1 358.2,86.1 348.7,57.8 	"/>
	<path d="M63,52.8c0-2.3-2-3.6-3.1-3.6h-7.2v7.3h7.2C61,56.5,63,55.1,63,52.8z"/>
	<path d="M0,0v138.9h438.9V0H0z M431.8,131.8H256.5c-43.5,0-74.7-33.4-76.1-34.9L165,79.5h-1.4h-2.2v12.3h-5V44.2h9.8
		c12.2,0,18.7,8.9,18.7,17.6c0,7.5-4.7,15-13.6,17.1l13,14.7c0.3,0.3,31.1,33.2,72.3,33.2h170.3V12.1H12.1v114.7h148.6v5H7.1V7.1
		h424.7V131.8z M228.8,74.2c0,11.6-9.4,17.6-18.7,17.6h-9.8V44.2h12.3c3.8,0,8.1,3.6,8.1,8.7c0,2.2-0.8,4.1-2,5.5
		C224.4,61,228.8,66.3,228.8,74.2z M238.1,91.2l18.7-48.2l18.7,48.2H238.1z M303.4,86.3c0.1,0,0.3,0,0.4,0c6.3,0,12.6-4.2,12.6-13.6
		v-4.7V44.2h5v28.5c0,9.3-6.1,18.7-17.6,18.7c-0.1,0-0.3,0-0.4,0c-11.6,0-17.6-9.4-17.6-18.7V44.2h5v23.7v4.7
		C290.8,82.1,297.2,86.3,303.4,86.3z M332.1,91.2L348.7,42l13,38.8l13-38.8l16.5,49.2h-26.1h-7H332.1z M140.1,56.8v5h-17v25h17v5
		h-22v-30h-6.7v-5h6.7V44.2h22v5h-17v7.6H140.1z M95.7,44.2v47.7h-5V44.2H95.7z M76,74.2c0,11.6-9.4,17.6-18.7,17.6h-9.8V44.2h12.3
		c3.8,0,8.1,3.6,8.1,8.7c0,2.2-0.8,4.1-2,5.5C71.7,61,76,66.3,76,74.2z"/>
	<path d="M52.7,61.5v25.3h4.7c9.4,0,13.6-6.3,13.6-12.6c0-8.7-7.1-12.7-13.6-12.7H52.7z"/>
</g>
</svg>
