<?xml version="1.0" encoding="utf-8"?>
<!-- Generator: Adobe Illustrator 23.0.4, SVG Export Plug-In . SVG Version: 6.00 Build 0)  -->
<svg version="1.1" id="Layer_1" xmlns="http://www.w3.org/2000/svg" xmlns:xlink="http://www.w3.org/1999/xlink" x="0px" y="0px"
	 viewBox="0 0 240 63" style="enable-background:new 0 0 240 63;" xml:space="preserve">
<style type="text/css">
	.st0{fill:#FFFFFF;}
	.st1{fill:#F9A870;}
</style>
<title>JustPeaceLabs Logo</title>
<g>
	<g id="Layer_1-2">
		<path class="st0" d="M82.4,23.4c0.4-2.3,0.6-4.7,0.5-7.1V3.1h4.6v13.1c0.1,2.5,0,5-0.3,7.5c-0.8,4.1-4.9,6-7.4,6.1l-1.1-2.4
			C80.6,26.8,82,25.3,82.4,23.4z"/>
		<path class="st0" d="M92,3.1h4.5v12.3c0,5.1,1.6,6.2,4.4,6.2s4.3-1.3,4.3-6.2V3.1h4.5v12.7c0,6.1-3,9.5-8.9,9.5
			c-6.6,0-8.8-3.8-8.8-9.6V3.1z"/>
		<path class="st0" d="M114,20.3c1.7,0.9,3.7,1.4,5.7,1.4c2.4,0,3.2-0.8,3.2-2.2s-0.9-2.2-4.2-3.9c-2.6-1.3-5.4-3.2-5.4-6.8
			c0-4.3,3.5-5.9,7.7-5.9c2-0.1,3.9,0.4,5.7,1.3l-0.8,3.6c-1.4-0.9-3.1-1.4-4.7-1.4c-2.4,0-3.3,0.9-3.3,2.2c0,1.6,1.1,2.2,3.8,3.7
			c3.4,1.8,6,3.4,6,7c0,4-3.1,6.1-7.5,6.1c-2.3,0-4.5-0.4-6.6-1.3L114,20.3z"/>
		<path class="st0" d="M135.3,6.6H129V3.1h17.2v3.5h-6.3V25h-4.6V6.6z"/>
		<path class="st0" d="M149.4,3.1h1.4c2.4,0,4.4-0.2,6.5-0.2c5,0,8,2.2,8,7.6c0,5-3.1,8-8.8,8c-1.2,0-2,0-2.5,0V25h-4.6L149.4,3.1z
			 M156.4,14.9c2.2,0,4.3-0.9,4.3-4.6c0-2.8-1.5-4.3-4.4-4.2c-0.8,0-1.6,0.1-2.4,0.2v8.4C154.7,14.9,155.5,14.9,156.4,14.9
			L156.4,14.9z"/>
		<path class="st0" d="M168.4,3.1h13.4v3.5h-8.8v5.4h6.8v3.5h-6.8v5.9h9.7V25h-14.3V3.1z"/>
		<path class="st0" d="M192.8,2.9h4.6l8.2,22.1h-5l-1.5-4.6h-8.1l-1.5,4.6h-4.9L192.8,2.9z M198.1,17.1l-2.4-7.5l-0.6-2.3l-0.6,2.3
			l-2.4,7.5H198.1z"/>
		<path class="st0" d="M216.4,2.9c2,0,4,0.3,6,0.9l-0.7,4c-1.5-0.9-3.2-1.3-5-1.3c-3.6,0-6.3,2.7-6.3,7.3s2.5,7.9,6.7,7.9
			c1.8,0,3.5-0.5,5.1-1.4v3.8c-1.7,0.8-3.6,1.2-5.5,1.1c-6.8,0-11-4.5-11-11.1C205.7,6.8,210.4,2.9,216.4,2.9z"/>
		<path class="st0" d="M225.7,3.1h13.4v3.5h-8.8v5.4h6.7v3.5h-6.7v5.9h9.7V25h-14.3V3.1z"/>
		<path class="st1" d="M80.4,39h2.5v20H92v2H80.4V39z"/>
		<path class="st1" d="M98,52.1c2.1-0.7,4.2-1,6.4-1v-1.9c0-2.7-1.4-3.1-3.8-3.1c-1.7,0.1-3.4,0.5-4.8,1.4l-0.6-1.6
			c1.8-1,3.9-1.6,6-1.6c3.3,0,5.6,0.9,5.6,5v11.9h-1c-0.8,0-1.3-0.1-1.3-1.2v-0.6c-1.4,1.2-3.2,1.8-5.1,1.8c-2.9,0-5-1.7-5-4.6
			C94.4,54.5,95.7,53,98,52.1z M100.2,59.4c1.5,0,3-0.5,4.2-1.4v-5.3c-1.7,0-3.4,0.2-5.1,0.8c-1.6,0.6-2.5,1.5-2.5,3
			C96.8,58.2,97.8,59.4,100.2,59.4L100.2,59.4z"/>
		<path class="st1" d="M112,37h2.4v6.8l-0.1,2.5c1.3-1.3,3.1-2,5-2c3.6,0,6.5,2.6,6.5,7.8s-3.3,9.1-8.3,9.1c-1.9,0-3.8-0.4-5.5-1.2
			V37z M117.8,59.4c2.9,0,5.5-2.3,5.6-7c0-4.1-1.6-6.3-4.7-6.3c-1.6,0-3.1,0.6-4.2,1.7v10.9C115.4,59.3,116.6,59.5,117.8,59.4
			L117.8,59.4z"/>
		<path class="st1" d="M129.4,58.2c1.5,0.8,3.1,1.2,4.7,1.2c2.1,0,3.6-0.8,3.6-2.5s-2-2.5-3.9-3.3c-2.5-1-4.7-2.4-4.7-5.1
			s2.7-4.1,5.7-4.2c1.5,0,2.9,0.3,4.2,0.9l-0.4,1.8c-1.1-0.6-2.4-0.9-3.7-0.9c-2.4,0-3.6,0.9-3.6,2.2c0,1.7,1.4,2.5,3.6,3.4
			s5,2.2,5,5s-2.2,4.5-5.7,4.5c-1.8,0-3.6-0.4-5.2-1.2L129.4,58.2z"/>
		<path class="st1" d="M7.2,31.7c0-12.2,8.9-22.6,21-24.4L27.1,0C11.6,2.4,0.1,15.7,0,31.5c0,6.8,2.2,13.5,6.2,19l5.8-4.3
			C8.9,42,7.2,36.9,7.2,31.7z"/>
		<path class="st1" d="M17.1,51.4l-4.2,5.7c4.2,3.1,9.1,5.1,14.2,5.9l1-7C24.1,55.4,20.3,53.8,17.1,51.4z"/>
		<path class="st1" d="M36.5,0l-1.1,7.3c13.5,2,22.7,14.5,20.7,28c-0.6,3.9-2.1,7.7-4.5,10.9l5.7,4.2c4.1-5.5,6.3-12.1,6.2-19
			C63.6,15.7,52.1,2.4,36.5,0z"/>
		<path class="st1" d="M35.5,56l1,7c5.2-0.8,10-2.8,14.2-5.9l-4.2-5.7C43.3,53.8,39.5,55.4,35.5,56z"/>
	</g>
</g>
</svg>
