<?xml version="1.0" encoding="utf-8"?>
<!-- Generator: Adobe Illustrator 23.0.4, SVG Export Plug-In . SVG Version: 6.00 Build 0)  -->
<svg version="1.1" id="cwn_logo" xmlns="http://www.w3.org/2000/svg" xmlns:xlink="http://www.w3.org/1999/xlink" x="0px" y="0px"
	 viewBox="0 0 1683.8 468.5" style="enable-background:new 0 0 1683.8 468.5;" xml:space="preserve">
<style type="text/css">
	.st0{fill:#F8E7E8;}
</style>
<path class="st0" d="M655.1,265.1v-55.6H477.3v55.6h56.7v198.6h64.3V265.1H655.1L655.1,265.1z"/>
<path class="st0" d="M931.8,209.6h-64.3v98.8h-94v-98.8h-64.3v254.2h64.3v-99.5h94v99.5h64.3L931.8,209.6L931.8,209.6z"/>
<path class="st0" d="M1005,209.6h64.3v254.2H1005V209.6z"/>
<path class="st0" d="M1303.2,463.8h63.9V209.6H1304v157.6l-96.2-157.6h-65.4v254.2h63.1V308L1303.2,463.8L1303.2,463.8z"/>
<path class="st0" d="M1670.7,321.1h-105.2V373h45.5v22.5c-4.1,4-22.9,15.6-56,15.6c-41.7,0-74-29.1-74-76.3c0-41,27.1-72.6,74-72.6
	c35.3,0,57.9,20.3,63.5,27.6l40.6-40.7c-13.5-16.3-45.1-44.3-107.1-44.3c-81.9,0-137.5,58.5-137.5,131.1
	c0,81.7,61.6,132.5,136,132.5c60.5,0,92.4-19.2,120.2-39.9L1670.7,321.1L1670.7,321.1z"/>
<g>
	<path class="st0" d="M327.3,251.3c-45.8,0-82.9,40-82.9,89.2c0,49.3,37.1,89.3,82.9,89.3c45.7,0,82.8-40,82.8-89.3
		C410.1,291.3,373,251.3,327.3,251.3L327.3,251.3z"/>
	<path class="st0" d="M167.5,209.6v157.6L14.2,209.6H167.5z"/>
	<path class="st0" d="M10.1,463.8V306.2l153.3,157.6H10.1z"/>
</g>
<path class="st0" d="M60,109.1c15.5,0,26.1-5.3,32.5-9.9l-6.1-18.5c-5,3.5-14.9,8.6-26.4,8.6c-19.3,0-33.1-14.6-33.1-34.7
	c0-19.8,13.8-34.7,33.1-34.7c10.8,0,20.4,4.8,25.5,8.4l6.1-18.6C84.7,4.7,74.1,0,60,0C27.9,0,4.6,23.6,4.6,54.5
	C4.6,85.5,26.7,109.1,60,109.1z"/>
<path class="st0" d="M208.4,109.1c32.7,0,55.3-23.6,55.3-54.6C263.7,23.9,241,0,208.4,0c-32.7,0-55.3,23.9-55.3,54.5
	C153.1,85.5,175.7,109.1,208.4,109.1z M208.4,19.8c19.1,0,33,14.9,33,34.7c0,20.1-13.8,34.7-33,34.7c-19.1,0-33-14.6-33-34.7
	C175.4,34.7,189.2,19.8,208.4,19.8z"/>
<path class="st0" d="M373.7,109.1c32.7,0,55.3-23.6,55.3-54.6C429,23.9,406.3,0,373.7,0c-32.6,0-55.3,23.9-55.3,54.5
	C318.4,85.5,341,109.1,373.7,109.1z M373.7,19.8c19.1,0,33,14.9,33,34.7c0,20.1-13.8,34.7-33,34.7s-33-14.6-33-34.7
	C340.7,34.7,354.5,19.8,373.7,19.8z"/>
<path class="st0" d="M492.3,107.1h21.4V56.1l35.7,51.1H574l-39.5-54.9L572.8,2h-24L513.8,50V2h-21.4L492.3,107.1L492.3,107.1z"/>
<rect x="645.4" y="2" class="st0" width="21.4" height="105.2"/>
<path class="st0" d="M814.6,107.1h21.3V2h-21.1v71.8L769.4,2h-21.7v105.2h21.1V35.9L814.6,107.1z"/>
<path class="st0" d="M951.2,0c-32.3,0-55.1,24.3-55.1,54.5c0,33.2,25.1,54.6,55.1,54.6c22.3,0,35.1-7.7,46.5-17.3V50.2h-40.3v17.9
	h20.2V81c-2.3,2.2-10.6,8.3-25.5,8.3c-19.1,0-33.7-13.2-33.7-34.7c0-19.5,12.9-34.9,33.7-34.9c15.2,0,24.3,8.1,27.5,11.6l13.5-13.8
	C987.7,11,973.6,0,951.2,0L951.2,0z"/>
<path class="st0" d="M1238.1,107.1h24.3L1290.8,2h-23.2L1249,80.7L1227.9,2h-19.7l-21.1,78.7L1168.7,2h-23.4l28.6,105.2h24.1
	l20-72.6L1238.1,107.1L1238.1,107.1z"/>
<rect x="1352.1" y="2" class="st0" width="21.4" height="105.2"/>
<path class="st0" d="M1469.5,107.1h21.4V21h24.8V2h-71.1V21h24.9V107.1z"/>
<path class="st0" d="M1576.8,107.1h21.4V63.7h44.2v43.4h21.4V2h-21.4v42.7h-44.2V2h-21.4V107.1z"/>
</svg>
