<?xml version="1.0" encoding="UTF-8" standalone="no"?><!DOCTYPE svg PUBLIC "-//W3C//DTD SVG 1.1//EN" "http://www.w3.org/Graphics/SVG/1.1/DTD/svg11.dtd"><svg width="100%" height="100%" viewBox="0 0 450 450" version="1.1" xmlns="http://www.w3.org/2000/svg" xmlns:xlink="http://www.w3.org/1999/xlink" xml:space="preserve" style="fill-rule:evenodd;clip-rule:evenodd;stroke-miterlimit:10;"><path d="M224.57,78.732c-140.238,0 -137.406,209.316 -96.313,293.833c41.092,84.521 96.313,77.28 96.313,77.28c0,0 55.217,7.241 96.309,-77.28c41.093,-84.517 43.928,-293.833 -96.309,-293.833" style="fill:#fff;fill-rule:nonzero;"/><path d="M188.823,256.554c0,6.741 -5.465,12.202 -12.203,12.202c-6.742,0 -12.206,-5.461 -12.206,-12.202c0,-6.746 5.464,-12.203 12.206,-12.203c6.738,0 12.203,5.457 12.203,12.203" style="fill:#231f20;fill-rule:nonzero;"/><path d="M260.313,256.554c0,6.741 5.465,12.202 12.203,12.202c6.745,0 12.206,-5.461 12.206,-12.202c0,-6.746 -5.461,-12.203 -12.206,-12.203c-6.738,0 -12.203,5.457 -12.203,12.203" style="fill:#231f20;fill-rule:nonzero;"/><g><clipPath id="_clip1"><rect x="180.476" y="371.754" width="88.185" height="15.16"/></clipPath><g clip-path="url(#_clip1)"><path d="M249.243,377.864l-17.511,-6.11l-7.162,4.48l-7.163,-4.48l-17.514,6.11l-19.415,5.204c8.2,-1.865 11.561,0 22.854,2.237c11.293,2.24 21.238,1.491 21.238,1.491c0,0 9.941,0.749 21.234,-1.491c11.293,-2.237 14.654,-4.102 22.858,-2.237l-19.419,-5.204Z" style="fill:#ff9000;fill-rule:nonzero;"/></g></g><g><clipPath id="_clip2"><rect x="180.476" y="369.403" width="88.185" height="13.666"/></clipPath><g clip-path="url(#_clip2)"><path d="M264.183,379.337l-8.95,0c0,0 -15.291,-8.582 -20.143,-9.702c-4.851,-1.116 -10.519,2.119 -10.519,2.119c0,0 -5.675,-3.235 -10.526,-2.119c-4.851,1.12 -20.14,9.702 -20.14,9.702l-8.953,0l-4.476,3.732c0,0 20.143,-4.852 26.485,-6.835c6.342,-1.987 17.61,0 17.61,0c0,0 11.261,-1.987 17.607,0c6.342,1.983 26.482,6.835 26.482,6.835l-4.477,-3.732Z" style="fill-rule:nonzero;"/></g></g><path d="M198.073,327.932c3.039,9.392 10.155,1.716 15.463,5.54c2.903,2.094 1.762,5.479 4.077,7.537c1.145,1.02 6.949,3.053 8.49,2.822c5.589,-0.832 6.702,-9.878 12.523,-11.311c6.328,-1.552 14.293,1.954 14.643,-7.93c0.285,-7.972 -7.555,-7.548 -12.638,-4.705c-5.536,3.093 -9.189,9.542 -15.788,9.31c-8.725,-0.3 -7.33,-10.041 -15.06,-9.627c-2.892,0.16 -18.291,5.268 -10.037,9.62" style="fill:#ff9000;fill-rule:nonzero;"/><path d="M214.417,331.221c-1.53,-3.35 -9.039,-9.56 -12.784,-6.071c-5.254,4.89 7.041,5.843 10.084,3.891c0.913,1.259 1.68,1.841 2.329,1.06" style="fill:#231f20;fill-rule:nonzero;"/><path d="M236.049,331.221c1.53,-3.35 9.039,-9.56 12.784,-6.071c5.255,4.89 -7.041,5.843 -10.08,3.891c-0.913,1.259 -1.68,1.841 -2.333,1.06" style="fill:#231f20;fill-rule:nonzero;"/><path d="M224.622,369.403l-0.054,-22.252l-6.641,18.446l6.695,3.806Z" style="fill:#ff7e00;fill-rule:nonzero;"/><path d="M232.555,266.401c4.801,12.92 -1.359,29.653 6.763,41.574c-0.135,-13.662 4.641,-22.583 8.365,-34.682c1.127,-3.653 2.44,-35.795 24.827,-43.65c11.118,-3.899 -13.669,-8.243 -22.187,-2.825c-7.459,3.742 -9.856,22.379 -12.538,29.118" style="fill:#ff9000;fill-rule:nonzero;"/><path d="M273.334,241.812c8.129,-2.008 18.827,6.203 22.041,12.716c1.576,-4.244 8.397,-10.348 8.126,-15.02c-0.343,-5.904 -10.37,-8.615 -15.403,-10.634c-5.525,-2.218 -10.672,-5.108 -16.843,-4.227c-5.03,0.724 -10.302,4.766 -13.473,8.579c-1.441,1.734 -8.24,13.141 -5.254,14.061c0.592,0.186 2.825,-1.123 3.428,-1.312c1.822,-0.575 3.741,-0.789 5.539,-1.413c1.98,-0.692 3.549,-1.534 5.611,-1.976c1.106,-0.235 1.834,0.111 2.847,-0.514" style="fill:#ff9000;fill-rule:nonzero;"/><path d="M247.71,224.147c0.382,3.382 -1.94,6.31 -2.818,9.956c17.09,-9.831 38.117,-2.016 56.498,-0.032c2.422,-15.567 -42.654,-14.739 -51.436,-14.411" style="fill-rule:nonzero;"/><path d="M201.426,224.147c-0.382,3.382 1.94,6.31 2.818,9.956c-17.09,-9.831 -38.117,-2.016 -56.498,-0.032c-2.419,-15.567 42.654,-14.739 51.436,-14.411" style="fill-rule:nonzero;"/><g><clipPath id="_clip3"><rect x="76.578" y="3.647" width="296.844" height="464.908"/></clipPath><g clip-path="url(#_clip3)"><path d="M219.972,56.358c-78.375,0 -115.062,51.151 -121.311,86.932c-6.735,38.563 -8.383,64.203 -6.307,96.22c8.557,1.937 10.305,7.402 15.278,14.008c-5.7,-17.717 9.392,-8.728 14.4,-24.855c6.221,-20.039 6.32,-35.388 4.519,-56.12c-2.871,-32.97 26.064,-69.225 60.333,-60.333c18.006,4.68 29.253,13.623 48.543,5.365c17.069,-7.305 31.023,-10.497 49.25,-6.674c15.403,3.236 29.236,8.786 32.799,23.436c1.53,-6.032 1.709,-12.289 -0.207,-19.601c7.102,-1.459 18.588,7.052 22.833,12.21c0.563,-5.618 -4.855,-11.45 -8.247,-15.577c4.523,0.592 11.179,7.037 16.169,10.965c-19.654,-37.108 -64.813,-65.976 -128.052,-65.976" style="fill-rule:nonzero;"/><path d="M340.101,126.946c-4.245,-5.158 -15.731,-13.669 -22.829,-12.21c1.912,7.312 1.733,13.569 0.203,19.601c0.585,2.397 0.92,5.008 0.913,7.915c-0.039,17.621 -6.374,33.612 1.37,50.48c2.772,6.036 8.468,10.602 11.218,16.805c3.439,7.751 3.428,16.54 4.238,24.709c1.562,15.698 8.557,4.28 12.813,19.272c0.984,-17.578 7.772,3.927 10.469,-12.848c3.392,-21.138 7.862,-41.139 -0.831,-90.563c-1.677,-9.542 -4.937,-18.891 -9.638,-27.773c-4.994,-3.931 -11.65,-10.373 -16.173,-10.965c3.392,4.127 8.814,9.959 8.247,15.577" style="fill-rule:nonzero;"/><path d="M117.407,276.12c3.953,26.575 -1.701,49.436 -12.627,51.062c-10.926,1.627 -22.986,-18.598 -26.942,-45.176c-3.952,-26.575 1.698,-49.436 12.628,-51.062c10.925,-1.627 22.989,18.602 26.941,45.176" style="fill:#fff;fill-rule:nonzero;"/><path d="M332.592,276.12c-3.952,26.575 1.702,49.436 12.628,51.062c10.926,1.627 22.986,-18.598 26.941,-45.176c3.953,-26.575 -1.697,-49.436 -12.627,-51.062c-10.926,-1.627 -22.989,18.602 -26.942,45.176" style="fill:#fff;fill-rule:nonzero;"/><path d="M138.622,131.729c0,0 -25.715,11.393 -30.991,-20.361c-10.009,-60.25 44.096,-96.081 85.266,-95.921c48.498,0.189 38.549,32.885 75.764,29.428c37.215,-3.453 34.846,-21.402 34.846,-21.402c0,0 20.81,16.958 12.403,36.562c0,0 27.844,-22.294 11.272,-43.696c0,0 67.855,85.423 25.194,115.39c0,0 -53.602,-32.182 -92.062,-36.024c-79.837,-7.965 -121.692,36.024 -121.692,36.024" style="fill-rule:nonzero;"/><path d="M106.421,89.057c0,0 6.217,-33.48 23.16,-62.908c0,0 -3.567,28.315 9.81,30.209c13.376,1.894 -32.97,32.699 -32.97,32.699" style="fill-rule:nonzero;"/><path d="M153.353,25.255c0,0 35.481,-24.074 77.643,-21.399c0,0 -48.501,22.083 -21.206,25.861c27.295,3.777 -56.437,-4.462 -56.437,-4.462" style="fill-rule:nonzero;"/></g></g><path d="M336.919,245.665c0.171,-0.004 0.339,-0.004 0.51,-0.004c0.31,-0.531 0.767,-1.038 0.878,-1.612c0.046,-0.257 -0.578,-0.928 -0.928,-0.956c-0.756,-0.054 -1.448,0.403 -1.334,1.337c0.057,0.443 0.571,0.824 0.874,1.235Zm-217.874,-2.019c0.118,-0.881 -0.378,-1.388 -1.059,-1.252c-0.443,0.085 -1.124,0.799 -1.088,1.155c0.05,0.493 0.617,1.192 1.077,1.309c0.663,0.172 1.177,-0.335 1.07,-1.212Zm213.023,-0.853c-0.171,-0.021 -0.343,-0.039 -0.514,-0.064c-0.367,0.546 -0.906,1.052 -1.038,1.659c-0.064,0.292 0.592,1.045 0.992,1.109c0.767,0.128 1.262,-0.539 1.234,-1.323c-0.021,-0.471 -0.439,-0.921 -0.674,-1.381Zm-218.42,0.974c0.075,-0.977 -0.349,-1.395 -0.991,-1.409c-0.753,-0.018 -1.367,0.51 -1.192,1.309c0.104,0.489 0.728,1.117 1.188,1.191c0.653,0.115 1.159,-0.399 0.995,-1.091Zm32.043,62.523c4.537,1.024 13.098,1.758 13.098,1.758c0.628,0 1.255,-0.018 1.883,0.004c1.408,0.046 2.815,0.079 4.22,0.076c3.67,-0.005 7.325,-0.244 10.954,-1.075c2.979,-0.681 5.857,-1.605 8.597,-3.06c3.742,-1.991 7.262,-4.288 10.145,-7.566c5.15,-5.854 8.746,-12.738 11.475,-20.157c2.593,-7.049 3.98,-14.333 3.192,-21.948c-0.596,-5.754 -3.107,-10.205 -7.969,-13.006c-4.997,-2.871 -10.433,-4.162 -15.976,-5.029c-9.795,-1.53 -19.644,-1.962 -29.525,-1.602c-5.921,0.211 -11.821,0.753 -17.621,2.126c-9.616,2.272 -15.827,9.663 -16.387,19.519c-0.424,7.427 0.029,14.81 1.409,22.094c1.067,5.633 2.023,11.361 5.7,15.927c1.695,2.104 3.318,4.348 5.308,6.089c3.346,2.921 7.281,4.894 11.497,5.85Zm174.27,-10.933c1.106,-1.876 2.212,-3.746 3.321,-5.618c0.646,-1.937 1.434,-3.838 1.919,-5.822c2.119,-8.653 2.636,-17.489 2.486,-26.392c-0.174,-10.658 -6.121,-18.577 -15.844,-20.978c-6.681,-1.644 -13.487,-2.044 -20.307,-2.083c-9.435,-0.05 -18.82,0.731 -28.137,2.358c-4.901,0.856 -9.709,2.08 -14.172,4.487c-4.84,2.611 -7.84,6.731 -8.707,12.503c-0.785,5.225 -0.428,10.39 0.813,15.495c2.094,8.621 5.7,16.472 10.716,23.56c5.432,7.676 12.52,12.781 21.341,14.871c5.501,1.306 11.097,1.787 16.722,0.995c3.542,-0.503 7.106,-0.924 10.594,-1.708c5.508,-1.242 10.766,-3.293 15.192,-7.156c1.502,-1.313 2.715,-3 4.063,-4.512Zm-145.82,16.187c-0.513,0.089 -19.319,0.489 -18.83,0.453c-6.331,-1.363 -12.467,-2.508 -18.145,-5.461c-6.421,-3.335 -11.454,-8.119 -14.418,-15.16c-1.741,-4.131 -2.636,-8.522 -3.318,-12.966c-0.934,-6.121 -1.844,-12.249 -2.679,-18.388c-0.535,-3.935 -2.418,-6.799 -5.846,-8.208c-2.483,-1.02 -3.442,-2.607 -3.249,-5.4c0.196,-2.854 0.039,-5.729 0.117,-8.593c0.047,-1.827 0.296,-2.169 1.969,-2.44c7.348,-1.195 14.682,-2.608 22.073,-3.41c7.694,-0.835 15.445,-1.06 23.175,-1.545c0.325,-0.021 0.656,-0.003 0.984,0.022c-6.078,0.36 -12.152,0.724 -18.227,1.084c0.004,0.082 0.007,0.164 0.014,0.243c2.583,-0.157 5.169,-0.354 7.755,-0.475c4.016,-0.189 8.036,-0.453 12.053,-0.463c5.468,-0.011 10.976,-0.204 16.401,0.374c9.695,1.034 19.455,1.93 28.672,5.764c1.106,0.461 2.186,1.017 3.221,1.634c4.312,2.604 8.807,4.32 13.879,4.034c3.232,-0.178 6.478,-0.028 9.72,0.125l-11.222,0c0,0.025 0,0.05 0,0.079c4.281,0 8.554,0 12.835,-0.004c0.667,0 1.341,-0.061 2.008,-0.003c2.989,0.239 5.582,-0.974 8.158,-2.369c2.461,-1.327 4.883,-2.85 7.49,-3.717c3.789,-1.259 7.709,-2.119 11.607,-2.943c7.06,-1.494 14.197,-2.4 21.388,-2.721c5.244,-0.236 10.498,-0.546 15.738,-0.407c12.863,0.343 25.636,1.737 38.26,4.498c1.566,0.343 3.121,0.746 4.691,1.045c1.12,0.218 1.805,0.849 1.772,2.066c-0.103,3.973 -0.235,7.947 -0.453,11.913c-0.028,0.528 -0.52,1.128 -0.948,1.495c-0.478,0.414 -1.106,0.667 -1.702,0.874c-3.852,1.338 -5.721,4.352 -6.296,8.454c-0.763,5.464 -1.316,10.972 -2.283,16.394c-0.756,4.245 -1.69,8.507 -3.092,12.545c-3.043,8.786 -9.356,14.104 -17.297,17.511c-5.368,2.304 -11.008,3.378 -16.668,4.341c-2.79,0.474 -5.618,0.742 -8.44,0.956c-2.725,0.207 -5.4,0.203 -8.147,-0.571c-4.937,-1.381 -9.909,-2.536 -14.482,-5.083c-7.972,-4.434 -14.083,-10.883 -18.306,-19.333c-3.599,-7.199 -6.881,-14.557 -9.496,-22.237c-0.392,-1.156 -0.824,-2.34 -0.934,-3.542c-0.1,-1.095 -0.025,-2.347 0.396,-3.325c1.291,-3.01 1.473,-5.643 -3.164,-6.438c-4.017,-0.692 -8.001,-0.746 -12.007,-0.193c-0.688,0.093 -1.373,0.375 -2.008,0.685c-1.987,0.985 -2.618,3.332 -1.398,5.301c0.735,1.184 1.002,2.447 0.57,3.745c-3.973,11.907 -8.425,23.599 -15.694,33.73c-6.603,9.192 -15.599,14.164 -26.197,16.03Z" style="fill-rule:nonzero;stroke:#000;stroke-width:0.5px;"/><path d="M113.649,243.766c0.16,0.692 -0.343,1.206 -0.995,1.095c-0.464,-0.078 -1.085,-0.706 -1.188,-1.191c-0.175,-0.803 0.439,-1.327 1.191,-1.313c0.639,0.014 1.067,0.435 0.992,1.409Z" style="fill:none;stroke:#fff;stroke-width:0.5px;"/><path d="M332.066,242.794c0.236,0.46 0.657,0.91 0.675,1.381c0.032,0.781 -0.464,1.451 -1.235,1.323c-0.399,-0.068 -1.056,-0.82 -0.991,-1.113c0.135,-0.606 0.67,-1.109 1.038,-1.659c0.171,0.025 0.342,0.047 0.513,0.068Z" style="fill:#3b0111;fill-rule:nonzero;stroke:#fff;stroke-width:0.5px;"/><path d="M119.046,243.644c0.107,0.878 -0.406,1.388 -1.073,1.217c-0.457,-0.118 -1.024,-0.821 -1.077,-1.309c-0.036,-0.361 0.649,-1.071 1.091,-1.16c0.681,-0.135 1.174,0.371 1.059,1.252Z" style="fill:none;stroke:#fff;stroke-width:0.5px;"/><path d="M336.919,245.665c-0.303,-0.411 -0.817,-0.792 -0.874,-1.235c-0.114,-0.934 0.578,-1.391 1.334,-1.337c0.35,0.028 0.974,0.699 0.928,0.956c-0.111,0.574 -0.568,1.081 -0.878,1.612c-0.171,0 -0.339,0 -0.51,0.004Z" style="fill:none;stroke:#fff;stroke-width:0.5px;"/></svg>