<?xml version="1.0" encoding="UTF-8" standalone="no"?><!DOCTYPE svg PUBLIC "-//W3C//DTD SVG 1.1//EN" "http://www.w3.org/Graphics/SVG/1.1/DTD/svg11.dtd"><svg width="100%" height="100%" viewBox="0 0 450 450" version="1.1" xmlns="http://www.w3.org/2000/svg" xmlns:xlink="http://www.w3.org/1999/xlink" xml:space="preserve" style="fill-rule:evenodd;clip-rule:evenodd;stroke-linejoin:round;stroke-miterlimit:1.41421;"><g id="Layer.-1"><rect x="259" y="244" width="29" height="23"/><rect x="159" y="244" width="29" height="23"/><path d="M256.899,322.472c1.166,-1.431 1.854,-2.178 2.415,-2.99c0.486,-0.703 1.415,-1.38 -0.222,-2.133c-1.337,-0.616 -1.949,-0.476 -2.497,0.661c-0.248,0.513 -0.728,0.942 -0.999,1.449c-0.15,0.284 -0.225,0.706 -0.088,0.972c0.318,0.617 0.786,1.176 1.391,2.041m34.417,-16.86c-1.441,0.326 -2.597,0.521 -3.691,0.863c-0.47,0.149 -0.813,0.602 -1.215,0.917c0.619,0.583 1.205,1.615 1.862,1.651c1.171,0.062 2.419,-0.405 3.564,-0.804c0.469,-0.163 1.146,-0.931 1.052,-1.066c-0.46,-0.646 -1.15,-1.169 -1.572,-1.561m-81.362,21.203c0.867,0.783 1.412,1.571 1.724,1.507c1.561,-0.317 3.126,-0.746 4.55,-1.373c0.526,-0.232 0.668,-1.11 0.985,-1.693c-0.968,-0.34 -1.717,-1.556 -3.047,-0.385c-0.496,0.437 -1.437,0.477 -2.13,0.774c-0.58,0.248 -1.096,0.608 -2.082,1.17m40.084,-28.774c-0.905,0.274 -1.643,0.499 -2.384,0.723c0.314,0.594 0.517,1.26 0.964,1.769c1.111,1.267 2.374,2.435 3.498,3.694c0.854,0.957 1.435,0.293 2.093,-0.148c0.642,-0.427 1.295,-0.773 0.429,-1.587c-1.289,-1.213 -2.441,-2.531 -3.677,-3.786c-0.271,-0.275 -0.65,-0.471 -0.923,-0.665m-12.587,56.349c0.727,-0.718 1.573,-1.175 1.549,-1.595c-0.134,-2.295 -3.919,-4.982 -6.587,-4.727c-0.468,0.044 -1.294,0.655 -1.236,0.847c0.197,0.663 0.652,1.751 1.115,1.792c1.782,0.157 2.637,1.103 3.477,2.237c0.325,0.441 0.87,0.761 1.682,1.446m-110.569,-30.511c0.007,-0.051 0.014,-0.1 0.021,-0.15c1.185,0 2.392,0.119 3.545,-0.047c0.651,-0.094 1.212,-0.657 1.814,-1.01c-0.759,-0.547 -1.448,-1.444 -2.293,-1.573c-2.241,-0.34 -4.552,-0.469 -6.831,-0.433c-0.988,0.016 -1.964,0.639 -2.947,0.987c0.737,0.552 1.376,1.359 2.231,1.601c1.413,0.399 2.966,0.436 4.46,0.625m29.834,-120.955c-0.29,-0.682 -0.359,-1.502 -0.84,-1.767c-0.391,-0.216 -1.398,0.088 -1.922,0.414c-2.093,1.301 -4.061,2.753 -6.162,4.045c-1.162,0.716 -0.647,1.236 -0.076,1.945c0.633,0.785 1.172,0.893 2.076,0.265c2.059,-1.429 4.201,-2.769 6.289,-4.168c0.274,-0.183 0.432,-0.494 0.635,-0.734m131.906,5.897c-0.389,-0.433 -0.655,-0.748 -0.944,-1.048c-2.121,-2.209 -5.097,-3.131 -8.127,-3.928c-0.566,-0.149 -1.595,-0.937 -1.833,0.333c-0.162,0.873 -0.99,1.93 0.964,2.338c2.641,0.552 5.132,1.455 6.953,3.358c0.201,0.21 0.857,0.346 1.109,0.222c0.662,-0.324 1.217,-0.81 1.878,-1.275m-76.711,138.442c-1.06,0.507 -2.487,1.033 -2.433,1.191c0.315,0.947 0.551,1.846 2.28,2.079c2.61,0.353 5.073,1.454 7.659,2.044c0.989,0.228 2.143,-0.074 3.223,-0.137c-0.464,-0.687 -0.738,-1.734 -1.421,-2c-3.036,-1.18 -6.188,-2.136 -9.308,-3.177m35.232,-55.423c-0.276,-0.342 -0.463,-0.563 -0.637,-0.794c-0.502,-0.666 -1.031,-1.319 -1.487,-2.007c-1.475,-2.216 -2.969,-4.424 -4.36,-6.678c-0.696,-1.129 -1.544,-0.631 -2.273,-0.234c-0.393,0.215 -0.863,0.957 -0.716,1.182c2.054,3.175 4.196,6.31 6.364,9.43c0.178,0.257 0.84,0.557 1.03,0.464c0.723,-0.355 1.347,-0.863 2.079,-1.363m-116.385,37.096c3.731,-0.267 7.046,-1.551 9.896,-3.751c0.565,-0.436 1.386,-0.934 0.3,-1.623c-0.773,-0.49 -1.257,-1.357 -2.582,-0.336c-2.572,1.981 -5.623,3.419 -9.225,2.713c-1.758,-0.345 -2.097,0.782 -2.998,1.378c0.708,0.445 1.359,1.008 2.145,1.298c0.701,0.26 1.552,0.216 2.464,0.321m22.721,-7.157c-0.321,-0.432 -0.48,-0.868 -0.825,-1.077c-1.49,-0.902 -2.917,-2.023 -4.586,-2.533c-2.593,-0.792 -5.428,-0.992 -8.039,-1.753c-1.838,-0.537 -2.206,0.393 -2.61,1.378c-0.532,1.295 0.997,1.032 1.631,1.304c0.736,0.317 1.67,0.274 2.499,0.454c3.087,0.671 6.429,0.72 8.871,2.967c0.346,0.318 1.637,-0.092 2.475,-0.228c0.212,-0.034 0.371,-0.317 0.584,-0.512m99.739,-29.452c-0.784,0.452 -1.567,0.798 -2.133,1.319c-0.113,0.104 0.504,0.983 0.962,1.329c4.65,3.508 10.093,5.816 15.901,7.474c0.578,0.165 1.601,-0.83 2.418,-1.286c-0.399,-0.388 -0.737,-0.847 -1.213,-1.14c-0.411,-0.252 -0.99,-0.293 -1.474,-0.466c-4.824,-1.728 -9.563,-3.585 -13.518,-6.63c-0.278,-0.213 -0.6,-0.384 -0.943,-0.6m-147.339,-159.861c-0.504,0.714 -1.074,1.366 -1.385,2.1c-0.057,0.136 0.886,0.672 1.438,0.894c0.646,0.26 1.452,0.26 2.045,0.575c4.7,2.485 8.899,5.389 10.584,10.195c0.356,1.013 0.781,1.368 2.091,0.931c1.251,-0.416 1.338,-0.844 0.943,-1.879c-2.15,-5.632 -6.972,-9.117 -12.672,-11.907c-0.781,-0.382 -1.721,-0.522 -3.044,-0.909m146.666,177.189c-0.651,2.369 -1.228,4.754 -1.966,7.102c-1.346,4.286 -4.306,6.281 -9.408,6.544c-0.428,0.024 -1.222,0.513 -1.186,0.617c0.248,0.723 0.576,1.944 1.053,2.006c2.742,0.356 5.425,0.134 7.611,-1.658c3.01,-2.466 5.195,-5.366 5.891,-8.914c0.463,-2.353 0.603,-4.759 0.745,-7.147c0.043,-0.731 -0.059,-1.454 -1.628,-1.202c-2.187,0.352 -1.362,1.574 -1.112,2.652m46.429,1.602c0.724,0.041 1.527,0.271 2.155,0.079c0.885,-0.267 1.641,-0.849 2.452,-1.297c-0.706,-0.492 -1.408,-0.989 -2.124,-1.468c-0.089,-0.06 -0.258,-0.033 -0.391,-0.039c-3.954,-0.17 -7.77,0.185 -11.295,1.945c-4.469,2.232 -8.132,5.268 -11.571,8.52c-0.517,0.487 -0.603,1.313 -0.889,1.983c0.814,0.094 1.629,0.266 2.438,0.244c0.357,-0.01 0.735,-0.383 1.041,-0.645c1.457,-1.247 2.796,-2.61 4.356,-3.751c4.005,-2.927 8.04,-5.879 13.828,-5.571m-97.45,15.154c0.149,0 0.419,0.029 0.679,-0.004c6.775,-0.88 12.612,-3.617 18.16,-6.892c0.303,-0.18 0.455,-1.111 0.347,-1.161c-0.79,-0.367 -1.077,-1.626 -2.57,-0.817c-4.183,2.264 -8.396,4.465 -13.275,5.596c-3.583,0.831 -6.636,0.792 -9.067,-1.984c-0.255,-0.29 -0.994,-0.266 -1.509,-0.387c-0.235,0.762 -1.839,1.139 -0.749,2.29c2.046,2.16 4.546,3.458 7.984,3.359m62.941,-34.086c-0.495,-0.352 -0.901,-0.693 -1.364,-0.96c-2.8,-1.617 -6.005,-2.879 -8.345,-4.89c-5.746,-4.938 -12.046,-9.538 -15.687,-16.02c-0.719,-1.278 -1.489,-0.338 -2.255,-0.146c-0.922,0.231 -1.135,0.672 -0.601,1.398c1.309,1.782 2.373,3.736 3.922,5.344c6.193,6.422 12.631,12.647 21.343,16.684c0.457,0.212 1.245,0.492 1.49,0.322c0.591,-0.409 0.953,-1.065 1.497,-1.732m35.544,39.956c6.968,-0.416 11.786,-2.399 15.334,-6.093c3.194,-3.325 5.813,-7.059 8.73,-10.587c0.968,-1.173 -0.482,-1.279 -0.972,-1.785c-0.663,-0.684 -1.183,-0.417 -1.679,0.246c-1.798,2.393 -3.616,4.771 -5.457,7.139c-2.714,3.492 -6.105,6.28 -10.851,7.63c-3.504,0.998 -6.983,0.902 -10.076,-0.833c-1.502,-0.842 -2.273,0.198 -3.384,0.315c0.458,0.638 0.748,1.623 1.401,1.856c2.638,0.942 5.386,1.652 6.954,2.112m16.388,-132.954c1.556,3.68 2.745,7.256 4.555,10.58c2.298,4.224 5.187,8.205 7.655,12.363c1.564,2.638 2.786,5.422 4.241,8.108c0.36,0.662 0.557,1.766 2.092,0.939c1.2,-0.646 1.635,-1.138 0.7,-2.235c-0.533,-0.625 -0.718,-1.462 -1.137,-2.169c-2.219,-3.742 -4.449,-7.479 -6.699,-11.208c-3.197,-5.301 -6.647,-10.53 -7.594,-16.572c-0.218,-1.383 -1.011,-1.684 -2.16,-1.45c-0.576,0.118 -0.964,0.923 -1.653,1.644m-1.723,-17.546c0.659,1.449 1.259,2.922 2.035,4.321c0.124,0.221 1.046,0.112 1.599,0.156c-0.007,-0.227 -0.027,-0.454 -0.02,-0.681c0.052,-1.828 -0.197,-3.708 0.221,-5.472c1.175,-4.958 2.247,-9.973 4.069,-14.766c1.784,-4.692 4.382,-9.161 6.754,-13.677c0.667,-1.269 -0.257,-1.385 -1.105,-1.833c-1.133,-0.599 -1.49,-0.048 -1.881,0.713c-1.657,3.225 -3.443,6.405 -4.992,9.667c-3.263,6.874 -5.722,13.934 -6.68,21.572m-135.672,15.196c1.777,0.174 4.282,0.369 6.768,0.674c9.134,1.12 15.902,4.898 19.113,12.684c0.147,0.359 0.871,0.783 1.31,0.77c2.113,-0.058 2.274,-0.254 1.522,-2.054c-2.6,-6.23 -7.512,-10.706 -14.797,-12.642c-4.682,-1.245 -9.71,-1.664 -14.624,-2.069c-4.082,-0.336 -7.828,0.919 -11.047,3.163c-0.56,0.391 -1.504,0.779 -0.427,1.553c0.717,0.514 1.051,1.658 2.461,0.601c2.543,-1.905 5.643,-2.655 9.721,-2.68m-21.112,100.756c1.626,-0.184 3.016,-0.137 4.227,-0.518c3.347,-1.048 6.594,-2.332 9.925,-3.419c8.031,-2.622 15.032,-6.467 20.343,-12.398c0.564,-0.63 1.18,-1.092 0.034,-1.761c-0.875,-0.51 -1.424,-1.163 -2.514,-0.064c-2.02,2.037 -4.092,4.101 -6.497,5.775c-5.945,4.143 -13.231,6.14 -20.115,8.722c-4.326,1.624 -8.877,0.628 -13.272,-0.221c-1.438,-0.277 -1.615,0.298 -2.002,1.198c-0.469,1.092 0.184,1.349 1.125,1.483c3.001,0.431 6.008,0.829 8.746,1.203m-62.82,-44.823c0.187,2.163 0.03,4.4 0.644,6.469c0.858,2.886 2.254,5.658 3.528,8.442c0.156,0.338 0.982,0.448 1.496,0.663c0.305,-0.76 1.98,-0.993 1.087,-2.225c-4.053,-5.59 -4.098,-11.857 -3.064,-17.951c1.153,-6.785 5.107,-12.786 9.345,-18.553c0.385,-0.523 0.895,-1.026 1.474,-1.386c1.375,-0.856 0.699,-1.498 -0.079,-2.318c-1.058,-1.117 -1.656,-0.185 -2.148,0.345c-1.444,1.553 -3.003,3.082 -4.085,4.819c-1.904,3.057 -3.484,6.264 -5.206,9.404c-2.132,3.892 -3.147,7.974 -2.992,12.291m157.096,-57.67c-8.804,0.428 -16.346,3.473 -21.925,9.436c-2.06,2.202 -3.26,5.013 -4.733,7.595c-0.169,0.295 0.385,1.284 0.691,1.316c0.849,0.086 1.85,0.45 2.372,-0.828c2.943,-7.22 9.128,-11.503 17.287,-14.02c4.076,-1.258 8.198,-0.914 12.367,-0.816c3.082,0.073 5.849,0.687 8.443,2.13c1.435,0.797 2.991,1.562 4.617,1.917c0.839,0.182 1.95,-0.564 2.939,-0.89c-0.582,-0.534 -1.064,-1.213 -1.765,-1.575c-1.635,-0.842 -3.326,-1.634 -5.085,-2.256c-2.181,-0.77 -4.406,-1.655 -6.702,-1.929c-2.785,-0.334 -5.667,-0.08 -8.506,-0.08m-124.633,-7.004c-0.404,-10.151 -2.286,-23.127 -8.205,-35.286c-1.048,-2.151 -2.776,-4.134 -4.559,-5.92c-1.627,-1.628 -3.781,-2.86 -5.652,-4.316c-0.738,-0.575 -1.147,-0.549 -1.926,0.053c-1.42,1.096 -0.741,1.676 0.363,2.457c3.575,2.529 7.4,4.852 8.984,8.917c1.929,4.958 4.078,9.82 5.158,15.034c1.55,7.486 3.144,14.92 2.314,22.576c-0.036,0.334 0.701,0.981 1.162,1.047c0.752,0.109 1.941,0.561 2.007,-0.856c0.068,-1.48 0.279,-2.957 0.354,-3.706m181.362,0.062c0.353,2.691 0.441,5.341 1.086,7.887c1.716,6.775 3.681,13.501 5.53,20.251c0.396,1.447 1.729,0.935 2.738,0.923c0.125,-0.001 0.471,-1.152 0.313,-1.681c-1.171,-3.921 -2.564,-7.794 -3.661,-11.728c-1.691,-6.065 -3.02,-12.193 -2.475,-18.48c0.303,-3.474 0.872,-6.932 1.17,-10.407c0.481,-5.615 2.1,-10.925 5.515,-15.752c0.899,-1.272 -0.438,-1.415 -1.008,-1.958c-0.787,-0.754 -1.288,-0.216 -1.618,0.38c-1.28,2.307 -2.762,4.56 -3.715,6.966c-3.04,7.662 -2.58,15.757 -3.875,23.599m-193.002,97.73c-0.607,-2.323 -0.906,-4.261 -1.632,-6.072c-1.375,-3.436 -3.259,-6.734 -4.446,-10.211c-1.562,-4.578 -3.827,-9.027 -3.956,-13.927c-0.016,-0.605 -0.768,-1.194 -1.178,-1.791c-0.599,0.729 -2.393,0.508 -1.962,2.105c0.641,2.371 0.795,4.854 1.593,7.178c1.722,5.015 3.654,9.981 5.651,14.921c0.515,1.278 0.173,2.026 -0.931,2.782c-1.712,1.171 -3.588,2.233 -5.007,3.632c-1.426,1.406 -2.569,1.625 -4.179,0.404c-0.668,-0.505 -1.408,-0.908 -2.018,0.207c-0.486,0.887 -0.932,1.474 0.442,2.2c3.631,1.921 7.584,2.961 11.718,3.571c2.106,0.31 3.921,-0.319 5.374,-1.668c0.255,-0.238 0.414,-0.553 0.618,-0.833c-1.592,-0.848 0.313,-1.989 -0.087,-2.498m68.496,-86.925c-6.058,0.394 -11.526,1.895 -16.72,4.402c-2.11,1.018 -4.477,1.649 -6.749,2.404c-4.246,1.41 -8.777,2.189 -12.597,4.524c-5.189,3.171 -10.506,6.187 -15.667,9.391c-1.813,1.128 -3.368,2.58 -4.942,3.967c-0.262,0.229 -0.228,1.107 0.041,1.3c0.539,0.386 1.781,0.854 1.959,0.685c4.469,-4.262 10.329,-6.946 15.624,-10.248c3.033,-1.893 6.225,-3.807 9.688,-4.926c6.051,-1.956 12.123,-3.735 17.971,-6.219c6.978,-2.964 14.363,-3.235 21.579,0.033c0.756,0.342 1.954,-0.031 2.94,-0.116c0.037,-0.003 0.145,-0.609 0.008,-0.703c-1.339,-0.914 -2.586,-2.123 -4.127,-2.583c-2.909,-0.869 -5.996,-1.298 -9.008,-1.911m-50.432,-16.59c-0.072,-0.019 -0.143,-0.036 -0.214,-0.054c-0.16,-1.644 -0.267,-3.295 -0.531,-4.926c-0.047,-0.297 -0.884,-0.805 -1.099,-0.722c-0.703,0.273 -1.81,0.751 -1.835,1.19c-0.25,4.327 -0.107,8.675 -0.489,12.989c-0.331,3.738 -0.687,7.571 -1.922,11.133c-3.222,9.301 -7.631,18.211 -13.5,26.536c-1.925,2.732 -4.016,5.378 -5.902,8.129c-0.862,1.259 -1.498,2.652 -2.049,4.04c-0.178,0.447 0.244,1.072 0.392,1.616c0.911,-0.349 2.341,0.375 2.728,-1.114c0.228,-0.872 0.706,-1.73 1.249,-2.501c1.822,-2.589 3.75,-5.121 5.589,-7.702c6.485,-9.108 11.741,-18.763 14.732,-29.098c1.828,-6.317 1.958,-12.998 2.851,-19.516m200.705,73.261c0.03,-0.002 0.06,-0.003 0.09,-0.004c-0.173,-2.911 -0.122,-5.848 -0.588,-8.722c-0.423,-2.621 -1.34,-5.19 -2.187,-7.746c-0.268,-0.811 -1.123,-1.464 -1.511,-2.262c-1.458,-2.991 -2.789,-6.027 -4.283,-9.004c-0.282,-0.564 -0.491,-1.781 -1.925,-1.001c-1.06,0.576 -1.871,0.947 -0.901,2.325c3.718,5.283 5.595,11.214 5.56,17.264c-0.036,6.399 -0.972,12.845 -2.188,19.174c-0.874,4.548 -2.874,8.934 -4.332,13.403c-1.767,5.418 -2.403,10.974 -2.428,16.578c-0.015,2.92 1.893,4.81 5.206,4.718c2.427,-0.066 4.835,-0.897 7.231,-1.453c2.896,-0.671 2.239,-3.415 3.748,-4.907c0.059,-0.059 0.019,-0.219 -0.019,-0.32c-0.703,-1.846 -1.145,-1.994 -3.649,-1.644c-0.51,0.072 -1.352,-0.252 -1.621,-0.621c-0.318,-0.436 -1.408,-1.205 0.171,-1.701c0.277,-0.087 0.368,-0.877 0.352,-1.337c-0.038,-1.078 -0.206,-2.151 -0.294,-3.229c-0.516,-6.349 1.081,-12.48 2.672,-18.602c0.266,-1.028 0.769,-2.063 1.424,-2.951c0.729,-0.986 1.451,-1.752 -0.189,-2.593c-0.295,-0.152 -0.314,-0.817 -0.325,-1.247c-0.038,-1.372 -0.014,-2.746 -0.014,-4.118m-113.935,9.108c-0.684,0.115 -2.047,0.18 -3.264,0.579c-2.781,0.914 -5.348,2.136 -5.974,4.986c-0.099,0.45 0.056,1.348 0.233,1.375c1.524,0.236 0.817,0.943 0.409,1.434c-0.873,1.052 -1.997,1.964 -2.761,3.064c-0.949,1.366 -1.561,2.901 -2.449,4.302c-5.339,8.416 -9.185,17.352 -12.332,26.517c-1.124,3.273 -2.172,6.407 1.927,9.266c3.069,2.139 5.684,3.602 9.392,2.239c3.558,-1.307 6.809,-3.234 10.189,-4.894c2.356,-1.158 5.235,-1.595 7.346,-0.603c5.083,2.386 9.662,5.528 15.187,7.299c1.941,0.623 4.243,0.925 5.202,-0.57c1.654,-2.582 2.692,-5.456 3.973,-8.214c0.068,-0.143 0.034,-0.354 -0.033,-0.508c-1.198,-2.82 -2.4,-5.638 -3.628,-8.447c-0.109,-0.25 -0.39,-0.611 -0.62,-0.628c-1.83,-0.143 -2.184,-1.518 -2.823,-2.556c-1.179,-1.916 -2.29,-3.873 -3.239,-5.881c-2.953,-6.245 -5.821,-12.519 -8.712,-18.785c-0.385,-0.835 -1.638,-1.884 0.65,-2.178c0.201,-0.026 0.448,-0.542 0.45,-0.833c0.024,-3.231 -4.584,-6.996 -9.123,-6.964m-12.19,-25.498c0.225,-0.003 0.45,-0.006 0.674,-0.01c-1,-4.885 -1.49,-9.9 -3.118,-14.624c-2.713,-7.877 -6.115,-15.438 -16.646,-18.383c-4.376,-1.225 -8.515,-1.775 -12.725,-0.363c-3.407,1.142 -6.61,2.744 -9.882,4.175c-2.537,1.108 -5.033,2.284 -7.568,3.394c-0.49,0.215 -1.393,0.513 -1.574,0.346c-1.325,-1.229 -2.455,-0.362 -3.505,0.206c-2.3,1.245 -4.514,2.603 -6.776,3.899c-2.425,1.387 -4.867,2.752 -7.298,4.132c-0.828,0.47 -1.727,0.877 -2.453,1.446c-7.968,6.257 -15.408,12.937 -21.079,20.89c-1.489,2.091 -2.598,4.518 -3.182,6.916c-0.741,3.034 -1.517,6.259 -0.035,9.289c2.298,4.694 4.847,9.281 9.511,12.705c1.024,0.753 1.824,1.816 2.471,2.854c4.116,6.592 10.226,11.078 18.68,12.915c8.71,1.893 17.544,2.229 25.579,-1.696c8.952,-4.375 17.3,-9.601 24.366,-16.158c9.674,-8.975 15.816,-19.189 14.56,-31.933m19.847,-7.974c0.049,0.799 0.084,1.599 0.149,2.397c0.652,7.99 2.99,15.689 5.921,23.225c1.224,3.146 3.116,6.26 5.454,8.893c7.325,8.252 15.887,15.369 25.852,21.401c8.541,5.169 17.536,7.33 27.717,6.314c0.706,-0.071 1.527,-0.694 1.939,-1.255c0.894,-1.223 1.973,-1.949 3.635,-2.406c2.227,-0.613 4.568,-1.375 6.363,-2.608c5.74,-3.94 9.907,-9.026 13.152,-14.663c0.544,-0.945 0.675,-2.072 0.957,-3.123c0.753,-2.803 1.387,-5.632 2.247,-8.41c1.454,-4.704 3.08,-9.403 1.83,-14.32c-0.676,-2.659 -1.99,-5.2 -2.634,-7.863c-0.582,-2.407 -1.813,-4.422 -3.723,-6.131c-2.99,-2.674 -5.911,-5.443 -9.214,-7.807c-2.723,-1.948 -5.945,-3.379 -8.967,-5.01c-2.229,-1.204 -4.712,-2.134 -6.701,-3.577c-6.198,-4.5 -13.353,-7.345 -20.936,-9.535c-0.31,-0.088 -0.826,-0.245 -0.942,-0.134c-1.227,1.17 -2.271,0.097 -3.367,-0.162c-2.618,-0.622 -5.235,-1.238 -7.836,-1.905c-0.795,-0.203 -1.506,-0.699 -2.305,-0.827c-2.629,-0.42 -5.32,-1.134 -7.908,-0.944c-1.683,0.124 -3.273,1.289 -5.264,0.806c-0.359,-0.088 -1.089,0.54 -1.455,0.962c-1.427,1.645 -2.781,3.335 -4.154,5.014c-5.332,6.527 -10.868,12.986 -9.81,21.668m-6.029,128.582c-3.4,-8.406 -14.234,-8.876 -19.744,0.433c-1.388,-1.32 -2.682,-2.815 -4.281,-4.004c-2.247,-1.67 -4.893,-2.165 -7.791,-1.186c-0.378,0.127 -0.959,-0.027 -1.379,-0.185c-1.628,-0.615 -3.253,-1.245 -4.827,-1.954c-0.592,-0.266 -1.182,-0.689 -1.537,-1.17c-1.474,-1.998 -2.974,-2.586 -5.859,-2.237c-0.362,0.045 -0.982,-0.093 -1.128,-0.319c-1.413,-2.169 -3.642,-2.698 -6.278,-2.379c-1.051,0.127 -1.111,-0.331 -0.968,-0.978c1.145,-5.171 -0.061,-10.222 -1.08,-15.276c-1.459,-7.231 -5.461,-13.155 -12.418,-17.48c-1.105,-0.686 -2.401,-1.179 -3.678,-1.602c-0.41,-0.136 -1.512,0.25 -1.506,0.369c0.035,0.728 0.039,1.892 0.525,2.102c6.489,2.813 10.535,7.31 12.714,13.174c-1.995,-0.427 -3.987,-1.232 -5.956,-1.19c-3.621,0.075 -7.262,0.501 -10.828,1.084c-1.543,0.253 -2.953,1.213 -4.361,1.942c-0.787,0.408 -1.417,1.036 -2.164,1.508c-7.069,4.462 -11.413,3.789 -16.898,-0.415c-1.826,-1.4 -3.44,-3.028 -4.988,-4.665c-5.893,-6.237 -12.827,-11.544 -20.183,-16.405c-2.89,-1.911 -6.488,-3.023 -9.761,-4.504c-0.753,-0.341 -1.635,-0.582 -2.214,-1.079c-2.499,-2.146 -4.903,-4.372 -7.35,-6.563c-1.398,-1.253 -2.999,-2.376 -4.176,-3.768c-2.565,-3.032 -3.121,-6.477 -2.142,-10.113c0.981,-3.638 1.763,-7.329 3.007,-10.897c1.658,-4.751 3.799,-9.373 5.485,-14.116c0.697,-1.964 0.896,-4.088 1.063,-6.154c0.26,-3.232 0.256,-6.478 0.442,-9.715c0.369,-6.401 0.739,-12.802 1.209,-19.197c0.298,-4.058 0.852,-8.102 1.155,-12.16c0.466,-6.223 0.919,-12.45 1.177,-18.68c0.183,-4.41 0.134,-8.83 0.015,-13.242c-0.267,-9.894 1.479,-19.538 4.584,-29.028c2.418,-7.388 6.341,-14.196 10.914,-20.74c4.659,-6.665 10.169,-12.773 16.906,-17.962c5.758,-4.436 11.698,-8.702 17.695,-12.896c4.196,-2.935 8.516,-5.759 12.971,-8.392c8.329,-4.925 17.084,-9.278 26.804,-11.782c6.316,-1.628 12.837,-2.756 19.342,-3.733c5.14,-0.773 10.386,-1.227 15.602,-1.368c6.087,-0.166 12.205,-0.021 18.283,0.327c5.925,0.34 11.891,0.779 17.704,1.77c6.53,1.114 13.03,2.594 19.32,4.47c6.364,1.898 12.665,4.134 18.617,6.835c9.54,4.327 19.024,8.811 27.568,14.563c3.246,2.185 6.581,4.332 9.462,6.849c3.561,3.109 6.741,6.549 9.998,9.909c3.862,3.983 7.096,8.331 9.515,13.09c2.82,5.55 4.752,11.354 6.037,17.302c1.059,4.903 2.013,9.829 2.786,14.772c0.934,5.969 1.674,11.96 2.411,17.949c0.6,4.882 1.318,9.766 1.545,14.664c0.348,7.523 0.67,15.07 0.359,22.588c-0.327,7.877 -0.595,15.793 -2.539,23.57c-0.618,2.469 -0.291,5.128 -1.027,7.559c-1.487,4.911 1.543,8.765 3.47,12.898c1.832,3.926 3.963,7.761 5.553,11.757c1.774,4.457 0.676,8.587 -3.245,11.979c-5.056,4.377 -9.41,9.207 -13.196,14.45c-0.953,1.32 -2.329,2.489 -3.754,3.462c-3.277,2.238 -5.787,4.967 -8.013,7.992c-4.504,6.12 -9.196,12.136 -13.77,18.218c-3.808,5.062 -8.849,7.47 -15.986,5.929c-3.847,-0.83 -7.865,-1.275 -11.047,-3.513c-1.325,-0.932 -2.692,-2.125 -3.279,-3.45c-0.732,-1.648 -2.016,-2.198 -3.684,-2.689c-2.903,-0.855 -5.779,-1.785 -8.639,-2.746c-0.283,-0.094 -0.53,-0.62 -0.527,-0.944c0.048,-3.746 1.109,-7.101 4.865,-9.465c1.437,-0.905 2.734,-1.976 4.058,-3.006c0.177,-0.137 0.288,-0.606 0.173,-0.709c-0.537,-0.481 -1.098,-1.059 -1.783,-1.259c-0.438,-0.127 -1.172,0.272 -1.665,0.566c-7.524,4.495 -9.976,10.911 -8.845,18.406c0.569,3.766 1.87,7.456 2.951,11.155c0.303,1.038 0.282,1.612 -0.978,2.161c-1.453,0.633 -3.543,1.395 -3.885,2.454c-0.784,2.419 -2.059,3.282 -4.94,3.276c-1.819,-0.003 -2.824,1.552 -3.415,3.014c-0.345,0.856 -0.68,1.218 -1.947,0.956c-2.12,-0.438 -4.025,0.173 -5.571,1.591c-0.324,0.298 -1.131,0.572 -1.475,0.429c-2.792,-1.161 -5.213,-0.964 -7.576,1.047c-1.589,1.35 -2.962,2.906 -4.284,4.462c-0.557,0.657 -0.778,0.758 -1.382,0.113c-0.872,-0.932 -1.755,-1.875 -2.768,-2.688c-2.501,-2.007 -5.486,-2.271 -8.086,-0.36c-2.065,1.517 -3.689,3.48 -5.484,5.219" style="fill:#fff;"/><path d="M261.716,399.46c0.128,-0.099 0.682,-0.4 1.022,-0.829c0.597,-0.749 0.96,-1.645 1.603,-2.358c1.189,-1.317 -0.464,-1.513 -1.082,-2.01c-0.192,-0.155 -1.252,0.147 -1.527,0.479c-0.765,0.919 -1.404,1.932 -1.948,2.965c-0.803,1.522 -0.572,1.778 1.932,1.753m-87.145,11.071c-0.404,1.143 -1.145,2.102 -0.905,2.815c0.391,1.152 1.493,2.108 2.17,3.206c0.58,0.941 1.114,1.117 2.254,0.54c1.145,-0.578 1.258,-1.048 0.522,-1.942c-0.872,-1.058 -1.573,-2.221 -2.417,-3.297c-0.311,-0.397 -0.821,-0.68 -1.624,-1.322m110.663,-41.862c0.142,-0.095 0.678,-0.3 0.941,-0.656c0.819,-1.104 1.448,-2.318 2.314,-3.391c0.863,-1.072 0.311,-1.484 -0.738,-2.073c-1.229,-0.69 -1.578,-0.082 -2.054,0.667c-0.732,1.151 -1.518,2.275 -2.269,3.418c-1.029,1.562 -0.764,1.951 1.806,2.035m-50.594,66.977c-0.159,-0.12 -0.388,-0.408 -0.696,-0.505c-2.102,-0.658 -4.187,-1.418 -6.357,-1.816c-0.612,-0.112 -1.493,0.878 -2.25,1.362c0.39,0.385 0.698,0.955 1.189,1.121c1.843,0.62 3.743,1.108 5.624,1.646c1.269,0.363 2.543,-0.467 2.49,-1.808m2.478,-21.045c2.278,-0.056 4.002,-1.151 4.646,-2.816c0.396,-1.021 0.58,-2.113 1.059,-3.102c0.711,-1.462 -1.002,-1.465 -1.573,-2.149c-0.471,0.364 -1.009,0.683 -1.39,1.109c-0.263,0.295 -0.338,0.73 -0.452,1.112c-0.448,1.513 -0.541,3.192 -3.123,3.325c-0.514,0.027 -0.966,0.956 -1.446,1.468c0.848,0.392 1.697,0.784 2.279,1.053m13.088,-3.378c0.224,-0.142 0.49,-0.232 0.611,-0.4c1.122,-1.568 2.435,-3.071 3.254,-4.753c0.647,-1.327 0.727,-2.87 0.941,-4.331c0.054,-0.363 -0.221,-0.949 -0.564,-1.134c-1.818,-0.987 -2.108,-0.836 -2.678,1.044c-0.744,2.466 -0.414,5.264 -3.04,7.158c-0.396,0.285 -0.836,1.147 -0.737,1.22c0.634,0.468 1.413,0.791 2.213,1.196m29.928,-26.842c-0.334,-1.52 -0.78,-3.466 -1.183,-5.419c-0.185,-0.894 -0.43,-1.244 -1.683,-0.857c-0.922,0.285 -1.68,0.342 -1.382,1.353c1.329,4.511 1.326,8.874 -1.476,13.07c-0.24,0.358 0.821,1.361 1.277,2.066c0.529,-0.321 1.266,-0.541 1.551,-0.978c1.764,-2.72 2.676,-5.667 2.896,-9.235m-129.067,-26.96c0.104,1.358 0.15,2.672 0.316,3.975c0.498,3.909 2.424,7.311 5.187,10.373c0.358,0.397 1.167,0.491 1.766,0.727c0.246,-0.816 1.021,-1.989 0.656,-2.388c-3.633,-3.972 -4.832,-8.53 -4.76,-13.436c0.018,-1.238 -0.418,-1.467 -1.882,-1.3c-1.904,0.217 -1.239,1.234 -1.283,2.049m70.973,70.189c-6.462,0.245 -10.88,2.475 -13.905,6.707c-0.249,0.348 0.037,1.442 0.158,1.452c0.885,0.073 1.757,1.124 2.716,-0.192c2.637,-3.618 6.492,-5.509 11.522,-5.045c2.747,0.253 5.558,0.607 8.145,1.396c4.399,1.34 8.188,0.349 11.849,-1.62c0.451,-0.242 0.909,-1.272 0.737,-1.432c-0.64,-0.589 -1.021,-1.752 -2.624,-0.809c-2.823,1.661 -5.838,2.198 -9.363,1.143c-3.137,-0.939 -6.563,-1.163 -9.235,-1.6m-82.597,-88.585c-0.915,0.351 -1.635,0.628 -2.355,0.905c0.335,0.541 0.533,1.208 1.026,1.604c4.904,3.922 6.4,8.961 6.949,14.491c0.487,4.919 0.845,9.899 3.303,14.543c0.687,1.299 1.385,0.975 2.408,0.739c1.256,-0.29 1.071,-0.934 0.65,-1.684c-2.453,-4.367 -2.709,-9.131 -3.174,-13.822c-0.6,-6.08 -2.256,-11.701 -7.72,-15.997c-0.366,-0.288 -0.762,-0.548 -1.087,-0.779m148.414,36.807c0.708,-0.474 1.363,-0.794 1.842,-1.25c3.361,-3.196 5.11,-6.98 5.535,-11.272c0.329,-3.347 0.613,-6.713 1.277,-10.017c0.624,-3.109 1.17,-6.362 5.043,-8.103c0.634,-0.287 0.764,-1.405 1.128,-2.138c-0.987,-0.029 -1.978,-0.105 -2.959,-0.062c-0.353,0.017 -0.71,0.296 -1.027,0.498c-2.216,1.417 -3.725,3.296 -4.301,5.597c-0.782,3.117 -1.584,6.256 -1.943,9.422c-0.604,5.344 -0.514,10.811 -5.832,14.773c-0.238,0.177 0.205,1.106 0.438,1.648c0.138,0.318 0.491,0.568 0.799,0.904m-196.095,-66.571c5.487,2.219 9.609,5.675 13.621,9.262c1.006,0.899 2.219,1.624 3.252,2.503c1.83,1.557 3.58,3.183 5.389,4.761c3.249,2.83 6.26,5.917 9.833,8.404c5.396,3.755 11.046,2.456 16.39,-0.413c1.564,-0.84 2.9,-1.993 4.373,-2.965c0.548,-0.361 1.249,-0.896 1.554,0.229c0.524,1.927 2.247,2.763 4.201,3.286c3.411,0.913 6.825,1.855 10.304,2.527c1.06,0.204 2.357,-0.4 3.51,-0.726c0.259,-0.073 0.369,-0.538 0.549,-0.824c0.199,0.389 0.497,0.761 0.583,1.167c0.79,3.7 0.483,7.374 -0.145,11.08c-0.265,1.565 0.206,3.221 0.335,4.837c0.022,0.268 0.058,0.547 0,0.808c-0.606,2.671 -1.288,5.332 -1.834,8.013c-1.011,4.954 -1.95,9.918 -2.911,14.88c-1.785,9.226 0.011,17.966 4.841,26.286c0.355,0.61 0.728,1.25 1.265,1.734c0.499,0.452 0.617,1.786 2.001,0.814c0.982,-0.688 1.576,-1.085 0.656,-2.403c-3.484,-4.987 -5.698,-10.42 -6.107,-16.26c-0.361,-5.135 0.233,-10.233 1.834,-15.593c0.668,1.086 1.055,1.981 1.704,2.699c0.673,0.745 0.883,2.2 2.695,1.659c0.104,-0.031 0.395,0.328 0.56,0.53c1.283,1.578 2.574,3.152 3.815,4.753c0.233,0.3 0.323,0.721 0.353,1.094c0.318,3.999 2.623,7.064 6.33,9.261c1.25,0.741 3.058,0.957 4.637,1.043c0.981,0.055 1.309,0.119 1.586,0.964c0.842,2.569 2.055,3.266 5.158,3.426c0.526,0.028 1.348,0.418 1.481,0.788c1.653,4.598 5.19,6.206 10.566,4.714c0.247,-0.069 0.502,-0.12 0.863,-0.204c0.767,3.399 2.446,6.212 6.817,6.702c4.474,0.502 9.023,0.817 11.927,-3.566c1.288,2.209 3.363,3.36 5.897,4.029c3.671,0.971 6.641,0.065 8.436,-2.811c0.997,-1.6 1.776,-3.301 2.757,-5.152c0.693,0.835 1.296,1.611 1.96,2.348c1.162,1.287 2.697,2.187 4.596,1.973c1.883,-0.212 2.432,-1.648 2.962,-3.061c0.858,-2.279 1.918,-4.5 2.847,-6.761c0.325,-0.79 0.57,-1.209 1.805,-0.894c2.666,0.678 4.116,0.118 5.398,-2.036c1.053,-1.772 1.855,-3.655 2.64,-5.233c1.01,0 2.172,0.306 2.729,-0.065c1.157,-0.769 2.397,-1.771 2.878,-2.906c0.922,-2.171 1.575,-4.475 1.906,-6.771c0.467,-3.225 0.562,-6.492 0.758,-9.744c0.04,-0.67 0.098,-1.524 -0.312,-1.998c-2.144,-2.485 -0.081,-4.501 0.958,-6.555c0.307,-0.605 1.577,-0.853 2.428,-1.23c0.028,-0.012 0.402,0.366 0.436,0.583c0.721,4.655 0.416,9.178 -1.578,13.654c-1.046,2.345 -1.254,4.959 -1.95,7.429c-0.585,2.074 -1.115,4.192 -2.076,6.142c-0.644,1.303 0.542,1.592 1.066,2.239c0.074,0.092 1.43,-0.256 1.596,-0.609c0.964,-2.036 2.374,-4.118 2.455,-6.219c0.134,-3.455 0.939,-6.636 2.549,-9.746c0.477,-0.922 0.696,-1.941 1.572,-3.032c1.307,4.701 2.723,9.384 3.876,14.113c0.543,2.223 0.488,4.548 0.873,6.806c1.022,5.978 -1.953,10.796 -5.843,15.366c-3.997,4.696 -8.12,9.307 -10.966,14.661c-0.79,1.486 0.637,1.598 1.272,2.203c0.087,0.084 1.183,-0.306 1.361,-0.651c3.164,-6.11 8.137,-11.2 12.552,-16.6c4.482,-5.482 5.838,-11.473 4.404,-18.043c-0.793,-3.63 -1.112,-7.341 -1.962,-10.959c-0.574,-2.434 -1.635,-4.792 -2.654,-7.127c-0.156,-0.359 -1.279,-0.604 -1.925,-0.563c-1.177,0.074 -1.478,-0.243 -1.325,-1.204c0.623,-3.94 0.19,-7.829 -0.847,-11.686c-0.083,-0.305 0.041,-0.689 0.182,-0.998c1.875,-4.12 1.232,-8.32 0.474,-12.502c-0.185,-1.018 -0.291,-1.19 1.179,-1.224c3.828,-0.09 7.395,-1.033 10.074,-3.669c0.252,-0.248 1.035,-0.411 1.337,-0.262c4.872,2.403 10.295,2.81 15.696,3.347c5.408,0.536 8.845,-2.289 11.983,-5.365c2.003,-1.961 3.624,-4.225 5.295,-6.421c3.887,-5.112 7.537,-10.367 11.616,-15.363c1.991,-2.437 4.712,-4.438 7.157,-6.59c0.148,-0.131 1.035,0.049 1.162,0.266c0.61,1.041 1.058,2.151 1.599,3.222c1.31,2.595 2.783,5.135 3.929,7.783c1.906,4.409 1.934,8.682 -0.647,13.1c-2.532,4.336 -5.722,8.163 -9.449,11.729c-3.52,3.37 -7.276,6.587 -10.437,10.19c-3.43,3.908 -4.945,8.705 -6.897,13.257c-3.168,7.39 -5.871,14.947 -9.47,22.173c-3.443,6.912 -8.391,13.166 -13.945,18.997c-4.363,4.58 -9.039,8.944 -13.264,13.614c-2.746,3.035 -5.243,6.307 -7.295,9.721c-3.013,5.011 -6.629,9.676 -10.661,14.044c-1.808,1.959 -4.771,3.415 -7.548,4.347c-3.397,1.138 -7.115,1.795 -10.756,2.102c-5.442,0.458 -10.623,-1.083 -15.493,-2.937c-3.534,-1.344 -6.75,-1.043 -10.25,-0.356c-5.687,1.115 -11.387,2.428 -17.164,2.882c-4.273,0.335 -8.646,-0.646 -12.765,-2.031c-5.929,-1.994 -11.392,-4.693 -15.439,-8.935c-3.543,-3.713 -6.782,-7.694 -9.648,-11.82c-3.682,-5.3 -7.256,-10.622 -11.977,-15.318c-8.527,-8.487 -15.092,-17.965 -19.215,-28.66c-3.323,-8.617 -8.206,-16.556 -14.395,-23.887c-4.706,-5.572 -10.168,-10.592 -16.052,-15.24c-4.1,-3.237 -8.673,-6.037 -12.669,-9.36c-3.615,-3.005 -6.011,-6.81 -5.38,-11.323c0.432,-3.086 1.605,-6.095 2.433,-9.141c0.408,-1.497 0.786,-2.999 1.185,-4.532" style="fill:#fff;"/><path d="M220.552,372.935c0,1.998 0.079,3.999 -0.055,5.99c-0.033,0.496 -0.643,1.225 -1.179,1.393c-4.846,1.516 -9.701,1.384 -14.511,-0.192c-1.464,-0.48 -2.26,-1.323 -2.074,-2.743c0.578,-4.407 0.852,-8.864 1.808,-13.21c0.656,-2.974 2.477,-5.652 5.919,-7.118c3.04,-1.297 6.002,-0.494 7.765,2.047c1.865,2.688 2.221,5.685 2.45,8.696c0.13,1.705 0.024,3.424 0.024,5.137l-0.147,0l0,0Z" style="fill:#fff;"/><path d="M238.773,371.347c0,2.342 0.026,4.687 -0.011,7.029c-0.021,1.357 -2.295,3.149 -4.52,3.194c-3.109,0.065 -6.232,-0.137 -9.334,-0.374c-0.468,-0.036 -1.218,-0.879 -1.218,-1.349c-0.002,-3.887 -0.166,-7.806 0.344,-11.653c0.376,-2.834 1.092,-5.874 2.717,-8.294c3.531,-5.26 6.163,-4.25 9.32,-0.543c2,2.347 2.796,5.015 2.889,7.871c0.045,1.373 0.008,2.747 0.008,4.119c-0.066,0 -0.131,0 -0.195,0" style="fill:#fff;"/><path d="M221.066,391.31c0,3.483 0.07,6.967 -0.024,10.448c-0.062,2.306 -1.077,3.381 -3.756,3.658c-1.929,0.199 -3.995,0.134 -5.866,-0.272c-1.009,-0.219 -2.274,-1.298 -2.5,-2.168c-1.137,-4.36 -2.05,-8.769 -2.844,-13.189c-0.179,-0.998 0.293,-2.144 0.709,-3.146c0.883,-2.128 1.811,-2.577 4.411,-2.607c1.785,-0.02 3.571,-0.104 5.348,-0.236c2.119,-0.157 4.942,1.918 4.971,3.738c0.022,1.258 0.005,2.516 0.005,3.774l-0.454,0l0,0Z" style="fill:#fff;"/><path d="M232.907,384.405c0.26,-0.01 1.133,0.128 1.832,-0.11c1.78,-0.607 2.494,0.164 3.15,1.404c1.864,3.532 2.895,7.037 0.886,10.85c-1.195,2.268 -1.909,4.719 -2.967,7.046c-0.614,1.352 -1.531,2.65 -3.546,2.546c-2.175,-0.113 -4.058,-0.718 -5.369,-2.44c-1.917,-2.516 -1.946,-5.287 -1.707,-8.083c0.202,-2.381 0.514,-4.769 1.04,-7.11c0.654,-2.906 2.719,-4.18 6.681,-4.103" style="fill:#fff;"/><path d="M253.852,366.979c-0.147,1.306 0.132,2.813 -0.544,3.868c-0.931,1.457 -1.417,3.36 -3.705,4.023c-0.747,0.216 -1.678,0.826 -1.878,1.417c-0.731,2.164 -3.086,1.864 -4.784,2.523c-0.124,0.048 -1.004,-0.754 -1.001,-1.159c0.017,-2.624 0.265,-5.248 0.272,-7.872c0.009,-2.6 -0.277,-5.2 -0.25,-7.799c0.033,-3.174 2.394,-5.249 5.047,-7.034c1.952,-1.313 3.483,-0.981 4.222,1.169c1.085,3.152 1.689,6.429 2.471,9.656c0.093,0.383 0.014,0.798 0.014,1.199c0.044,0.003 0.09,0.005 0.136,0.009" style="fill:#fff;"/><path d="M252.329,388.227c-0.811,2.175 -2.018,5.468 -3.274,8.744c-0.559,1.455 -1.251,2.872 -1.824,4.323c-0.346,0.876 -0.892,0.953 -1.518,0.307c-0.843,-0.872 -1.355,-2.154 -2.402,-2.672c-2.222,-1.099 -1.196,-2.367 -0.712,-3.682c1.563,-4.238 -0.369,-7.948 -2.405,-11.623c-0.696,-1.259 -0.285,-1.874 1.267,-2.122c2.232,-0.358 4.418,-0.934 6.634,-1.369c0.444,-0.087 1.22,-0.123 1.375,0.081c1.562,2.061 2.875,4.223 2.859,8.013" style="fill:#fff;"/><path d="M200.826,366.214c-0.436,3.074 -0.81,5.729 -1.214,8.381c-0.007,0.051 -0.358,0.072 -0.55,0.092c-0.432,0.045 -0.868,0.065 -1.298,0.124c-0.387,0.054 -0.813,0.283 -1.141,0.199c-1.769,-0.459 -3.528,-0.957 -5.261,-1.51c-1.51,-0.482 -2.615,-0.991 -2.161,-2.884c0.888,-3.703 1.14,-7.521 2.02,-11.227c0.499,-2.105 2.26,-2.592 4.3,-1.276c1.465,0.946 2.784,2.255 3.652,3.641c0.914,1.46 1.213,3.205 1.653,4.46" style="fill:#fff;"/><path d="M194.945,386.657c0.705,-1.746 1.524,-4.112 2.63,-6.373c0.562,-1.147 1.529,-0.942 2.571,-0.077c1.201,0.999 2.638,1.798 4.027,2.614c0.543,0.32 1.206,0.345 0.618,1.178c-2.847,4.038 -2.304,8.328 -0.885,12.572c0.548,1.641 0.012,2.369 -1.737,2.667c-3.074,0.525 -5.035,-0.719 -5.383,-2.908c-0.473,-2.982 -1.121,-5.944 -1.841,-9.673" style="fill:#fff;"/><path d="M260.816,371.534c2.125,6.081 0.34,11.922 -2.279,17.676c-0.312,0.685 -0.666,1.396 -1.202,1.95c-0.283,0.294 -1.079,0.471 -1.498,0.344c-0.394,-0.119 -0.927,-0.787 -0.833,-1.078c1.386,-4.319 -0.17,-8.084 -2.711,-11.724c-0.266,-0.381 -0.106,-1.16 0.174,-1.609c0.591,-0.947 1.377,-1.806 2.115,-2.681c0.261,-0.31 0.559,-0.668 0.939,-0.824c1.754,-0.723 3.546,-1.384 5.295,-2.054" style="fill:#fff;"/><path d="M186.29,389.254c-4.81,-0.591 -8.195,-3.439 -8.617,-7.418c-0.38,-3.592 0.078,-7.153 1.535,-10.595c0.372,-0.88 0.635,-0.862 1.491,-0.47c1.374,0.63 2.851,1.092 4.213,1.6c-3.081,5.641 -2.112,11.282 1.378,16.883" style="fill:#fff;"/><path d="M195.584,377.819c-3.591,4.245 -4.022,8.817 -3.007,13.645c0.12,0.569 -0.095,1.654 -0.437,1.75c-1.211,0.337 -1.813,-0.307 -2.176,-1.373c-0.959,-2.814 -2.461,-5.53 -3.04,-8.391c-0.522,-2.572 -0.156,-5.288 -0.08,-7.938c0.03,-1.038 0.758,-0.546 1.37,-0.321c2.401,0.879 4.819,1.722 7.37,2.628" style="fill:#fff;"/><path d="M257.239,369.884c-0.351,-2.912 -0.63,-5.832 -1.083,-8.732c-0.236,-1.511 -0.767,-2.99 -1.188,-4.48c-0.412,-1.456 0.29,-3.005 1.686,-3.601c1.664,-0.711 2.94,0.05 3.767,1.093c0.751,0.946 1.164,2.141 1.499,3.276c1.168,3.977 0.3,7.62 -2.569,10.924c-0.586,0.674 -0.934,1.502 -1.391,2.259c-0.24,-0.247 -0.48,-0.493 -0.721,-0.739" style="fill:#fff;"/><path d="M181.149,365.874c0.493,-3.036 0.99,-6.071 1.476,-9.107c0.153,-0.96 0.669,-1.242 1.698,-0.756c0.461,0.217 0.975,0.348 1.45,0.543c2.561,1.056 2.422,1.034 1.846,3.403c-0.647,2.664 -1.154,5.366 -1.441,8.074c-0.136,1.273 -0.747,1.378 -1.857,1.228c-2.027,-0.274 -3.017,-1.401 -3.172,-3.385" style="fill:#fff;"/><path d="M263.698,384.502c0.267,-0.985 0.497,-1.981 0.804,-2.957c1.187,-3.776 0.169,-7.515 -0.559,-11.188c-0.312,-1.575 -1.281,-2.806 1.075,-3.621c0.157,-0.055 0.107,-0.462 0.272,-0.605c0.495,-0.434 1.049,-0.82 1.58,-1.225c0.396,0.463 1.094,0.905 1.135,1.389c0.145,1.704 0.271,3.445 0.029,5.132c-0.515,3.599 -1.181,7.187 -1.978,10.748c-0.208,0.929 -1.122,1.738 -1.712,2.602c-0.215,-0.092 -0.43,-0.183 -0.646,-0.275" style="fill:#fff;"/><path d="M265.686,361.028c-0.255,-1.622 -0.438,-3.146 -0.751,-4.65c-0.186,-0.887 -0.333,-1.903 -0.927,-2.578c-1.258,-1.43 -0.788,-2.725 0.14,-3.931c0.423,-0.55 1.494,-1.148 2.124,-1.047c0.681,0.111 1.599,0.962 1.699,1.576c0.327,2.025 0.199,4.105 0.494,6.135c0.297,2.031 -0.427,3.474 -2.779,4.495" style="fill:#fff;"/><path d="M172.924,361.548c-3.276,-2.093 -4.731,-4.797 -4.075,-8.259c0.074,-0.39 0.087,-0.8 0.04,-1.192c-0.081,-0.653 -0.234,-1.301 -0.355,-1.95c1.266,-0.034 2.864,-0.484 3.706,0.013c0.834,0.495 1.508,2.107 1.203,2.944c-1.024,2.81 -1.354,5.552 -0.519,8.444" style="fill:#fff;"/><path d="M271.992,355.717c-0.477,-2.664 -0.927,-4.953 -1.284,-7.254c-0.289,-1.865 1.485,-4.584 3.419,-5.265c0.251,-0.088 0.992,0.207 1.009,0.366c0.385,3.54 -0.001,7.02 -1.5,10.351c-0.281,0.623 -0.989,1.102 -1.644,1.802" style="fill:#fff;"/><path d="M177.577,366.228c-0.223,-0.479 -0.756,-1.047 -0.613,-1.423c0.64,-1.679 -0.417,-3.062 -0.896,-4.523c-0.801,-2.441 -0.449,-4.746 0.92,-6.917c0.295,-0.468 1.23,-0.638 1.871,-0.945c0.391,0.636 1.163,1.302 1.098,1.901c-0.188,1.738 -0.805,3.438 -1.086,5.173c-0.354,2.189 -0.544,4.399 -0.804,6.6c-0.164,0.045 -0.327,0.09 -0.49,0.134" style="fill:#fff;"/><path d="M167.002,360.438c1.26,1.156 2.304,2.106 3.333,3.067c0.162,0.152 0.393,0.382 0.359,0.538c-0.256,1.172 -0.651,2.323 -0.843,3.501c-0.192,1.178 -0.201,2.379 -0.313,3.878c-2.575,-3.478 -2.976,-7.029 -2.536,-10.984" style="fill:#fff;"/><path d="M173.433,365.894c0.85,0.869 1.781,1.79 2.661,2.747c0.216,0.234 0.437,0.62 0.363,0.872c-0.638,2.18 -1.343,4.346 -2.035,6.536c-1.963,-2.098 -2.203,-4.736 -0.989,-10.155" style="fill:#fff;"/><path d="M284.911,255.971c0.016,-5.927 -6.207,-10.763 -12.93,-10.079c-1.188,0.121 -1.867,0.185 -1.468,1.603c0.721,2.574 -2.914,5.773 -5.606,4.915c-1.831,-0.584 -1.769,0.252 -1.803,1.165c-0.115,3.047 1.073,5.726 3.379,8.008c3.031,2.997 7.043,3.828 11.318,2.433c4.369,-1.426 7.1,-4.516 7.11,-8.045m13.986,-1.301c-1.118,3.732 -1.819,7.607 -3.454,11.163c-2.421,5.263 -7.969,7.663 -13.837,9.206c-3.309,0.869 -6.886,0.999 -10.355,1.389c-0.759,0.085 -1.624,-0.016 -2.342,-0.252c-4.86,-1.593 -9.51,-3.433 -12.742,-7.223c-4.142,-4.856 -6.908,-10.04 -6.821,-16.255c0.087,-6.069 3.042,-10.964 8.367,-14.502c5.147,-3.42 11.146,-5.561 17.969,-4.615c4.785,0.663 9.452,1.621 13.543,4.088c5.33,3.215 7.582,7.906 8.754,13.138c0.274,1.228 0.311,2.495 0.458,3.745c0.153,0.039 0.307,0.079 0.46,0.118" style="fill:#fff;"/><path d="M161.784,252.113c-1.301,2.885 -0.152,6.698 2.614,8.674c2.935,2.098 6.657,2.297 9.978,0.534c3.731,-1.981 5.379,-5.842 4.443,-10.413c-0.854,-4.165 -6.198,-6.254 -10.53,-4.116c2.047,1.788 2.301,3.632 0.727,5.259c-1.677,1.734 -4.13,1.755 -7.232,0.062m30.09,3.461c1.038,9.998 -8.373,16.764 -18.009,17.886c-3.634,0.423 -7.352,0.637 -11.007,0.485c-1.984,-0.082 -4.323,-0.724 -5.793,-1.82c-4.551,-3.396 -8.558,-7.342 -9.178,-12.78c-0.379,-3.322 -0.297,-6.769 0.321,-10.056c0.379,-2.011 1.754,-4.159 3.394,-5.669c5.304,-4.879 11.958,-7.862 19.624,-8.997c1.368,-0.204 2.937,-0.041 4.272,0.328c12.035,3.318 16.202,10.135 16.373,19.594c0.006,0.343 0.001,0.687 0.003,1.029" style="fill:#fff;"/></g><g id="Layer3"><g><path d="M440,65l-52.442,0l-25.559,44.408l-0.582,-44.511l-354.476,1.103l0,-58l433.059,0l0,57Zm-427.059,-51l0,45.981l354.398,-1.102l0.373,28.573l16.376,-28.452l49.912,0l0,-45l-421.059,0Z" style="fill:#fff;"/><g><path d="M26.391,45.969l0.732,-10.02c0.245,-3.359 0.425,-5.825 0.542,-7.397c0.118,-1.573 0.176,-2.354 0.176,-2.344c0.01,-0.176 0.02,-0.322 0.029,-0.439c0.01,-0.118 0.03,-0.215 0.059,-0.293c0.029,-0.079 0.068,-0.137 0.117,-0.176c0.049,-0.039 0.122,-0.069 0.22,-0.088l5.068,-1.216c0.127,-0.039 0.259,-0.058 0.396,-0.058c0.137,0 0.229,0.041 0.278,0.124c0.049,0.083 0.073,0.251 0.073,0.505c-0.068,0.606 -0.122,1.172 -0.161,1.7c-0.039,0.527 -0.071,1.03 -0.095,1.508c-0.024,0.479 -0.046,0.94 -0.066,1.385c-0.019,0.444 -0.044,0.886 -0.073,1.325c-0.059,0.479 -0.11,0.957 -0.154,1.436c-0.044,0.478 -0.085,0.974 -0.124,1.487c-0.039,0.512 -0.081,1.054 -0.125,1.626c-0.044,0.571 -0.095,1.194 -0.154,1.867l-0.644,7.72c-0.01,0.088 -0.027,0.173 -0.052,0.256c-0.024,0.083 -0.09,0.149 -0.197,0.198c-0.01,0 -0.069,0.02 -0.176,0.059c-0.108,0.039 -0.249,0.09 -0.425,0.154c-0.176,0.063 -0.381,0.129 -0.615,0.197c-0.234,0.069 -0.484,0.132 -0.747,0.191c-0.44,0.097 -0.823,0.195 -1.15,0.293c-0.327,0.097 -0.618,0.188 -0.872,0.271c-0.254,0.083 -0.488,0.149 -0.703,0.198c-0.215,0.048 -0.429,0.073 -0.644,0.073c-0.147,0 -0.269,-0.039 -0.367,-0.117c-0.097,-0.079 -0.146,-0.22 -0.146,-0.425Z" style="fill:#fff;fill-rule:nonzero;"/><path d="M37.07,34.016c-0.069,-1.377 -0.132,-2.823 -0.191,-4.336c-0.058,-1.514 -0.122,-3.008 -0.19,-4.483l0,-0.19c0,-0.254 0.029,-0.427 0.088,-0.52c0.058,-0.093 0.171,-0.154 0.337,-0.183c0.468,0 0.957,-0.003 1.464,-0.008c0.508,-0.004 1.019,-0.007 1.531,-0.007c0.513,0 1.018,-0.002 1.516,-0.007c0.498,-0.005 0.972,-0.008 1.421,-0.008c0.088,0 0.161,0.025 0.22,0.074c0.059,0.048 0.088,0.141 0.088,0.278l0,0.088l-2.285,9.331c-0.039,0.156 -0.071,0.29 -0.096,0.403c-0.024,0.112 -0.053,0.202 -0.087,0.271c-0.035,0.068 -0.079,0.119 -0.132,0.154c-0.054,0.034 -0.125,0.051 -0.213,0.051c-0.527,0 -1.04,0.005 -1.538,0.014c-0.498,0.01 -1.04,0.015 -1.626,0.015c-0.078,0 -0.136,-0.039 -0.175,-0.117c-0.04,-0.078 -0.069,-0.169 -0.088,-0.271c-0.02,-0.103 -0.032,-0.208 -0.037,-0.315c-0.005,-0.107 -0.007,-0.186 -0.007,-0.234Z" style="fill:#fff;fill-rule:nonzero;"/><path d="M65.239,46.027c-0.108,0.03 -0.249,0.076 -0.425,0.14c-0.176,0.063 -0.347,0.095 -0.513,0.095c-0.137,0 -0.256,-0.034 -0.359,-0.103c-0.102,-0.068 -0.154,-0.185 -0.154,-0.351l0,-0.088c0.069,-0.713 0.127,-1.292 0.176,-1.736c0.049,-0.444 0.088,-0.803 0.117,-1.077c0.03,-0.273 0.054,-0.481 0.074,-0.622c0.019,-0.142 0.039,-0.274 0.058,-0.396c0.02,-0.122 0.037,-0.256 0.052,-0.403c0.014,-0.146 0.036,-0.354 0.065,-0.622c0.03,-0.269 0.066,-0.625 0.11,-1.07c0.044,-0.444 0.1,-1.027 0.169,-1.75c0.039,-0.391 0.08,-0.779 0.124,-1.165c0.044,-0.385 0.066,-0.739 0.066,-1.062c0,-0.41 -0.022,-0.783 -0.066,-1.12c-0.044,-0.337 -0.122,-0.625 -0.234,-0.864c-0.112,-0.24 -0.266,-0.428 -0.462,-0.564c-0.195,-0.137 -0.444,-0.206 -0.747,-0.206c-0.185,0 -0.427,0.04 -0.725,0.118c-0.298,0.078 -0.598,0.217 -0.901,0.417c-0.302,0.2 -0.576,0.464 -0.82,0.791c-0.244,0.327 -0.4,0.74 -0.469,1.238l0,0.059c-0.117,1.113 -0.222,2.077 -0.315,2.893c-0.092,0.815 -0.173,1.516 -0.241,2.102c-0.069,0.586 -0.125,1.074 -0.169,1.465c-0.044,0.39 -0.08,0.72 -0.11,0.988c-0.029,0.269 -0.051,0.491 -0.066,0.667c-0.014,0.176 -0.022,0.342 -0.022,0.498c0,0.078 0.003,0.144 0.008,0.198c0.005,0.053 0.007,0.1 0.007,0.139c0,0.078 -0.036,0.144 -0.11,0.197c-0.073,0.054 -0.237,0.12 -0.49,0.198l-3.443,0.996c-0.107,0.03 -0.249,0.076 -0.425,0.14c-0.175,0.063 -0.346,0.095 -0.512,0.095c-0.137,0 -0.257,-0.034 -0.359,-0.103c-0.103,-0.068 -0.154,-0.185 -0.154,-0.351l0,-0.088c0.068,-0.713 0.124,-1.292 0.168,-1.736c0.044,-0.444 0.083,-0.803 0.118,-1.077c0.034,-0.273 0.061,-0.481 0.08,-0.622c0.02,-0.142 0.037,-0.274 0.051,-0.396c0.015,-0.122 0.032,-0.256 0.052,-0.403c0.019,-0.146 0.041,-0.354 0.066,-0.622c0.024,-0.269 0.058,-0.625 0.102,-1.07c0.044,-0.444 0.1,-1.027 0.169,-1.75c0.039,-0.391 0.08,-0.779 0.124,-1.165c0.044,-0.385 0.066,-0.739 0.066,-1.062c0,-0.41 -0.019,-0.783 -0.059,-1.12c-0.039,-0.337 -0.109,-0.625 -0.212,-0.864c-0.102,-0.24 -0.242,-0.428 -0.417,-0.564c-0.176,-0.137 -0.401,-0.206 -0.674,-0.206c-0.196,0 -0.462,0.049 -0.799,0.147c-0.336,0.098 -0.673,0.259 -1.01,0.483c-0.337,0.225 -0.635,0.52 -0.894,0.887c-0.259,0.366 -0.408,0.817 -0.447,1.355c-0.078,0.722 -0.141,1.315 -0.19,1.779c-0.049,0.464 -0.088,0.845 -0.117,1.143c-0.03,0.298 -0.052,0.537 -0.066,0.718c-0.015,0.18 -0.027,0.349 -0.037,0.505c-0.01,0.039 -0.024,0.149 -0.044,0.33c-0.019,0.18 -0.041,0.395 -0.066,0.644c-0.024,0.249 -0.048,0.518 -0.073,0.806c-0.024,0.288 -0.046,0.557 -0.066,0.806c-0.019,0.249 -0.036,0.463 -0.051,0.644c-0.015,0.181 -0.022,0.291 -0.022,0.33l0,0.263c0,0.098 -0.005,0.181 -0.015,0.249c-0.009,0.069 -0.039,0.132 -0.088,0.191c-0.048,0.058 -0.119,0.112 -0.212,0.161c-0.093,0.049 -0.222,0.102 -0.388,0.161l-3.838,1.362c-0.108,0.039 -0.249,0.088 -0.425,0.147c-0.176,0.058 -0.347,0.088 -0.513,0.088c-0.136,0 -0.256,-0.034 -0.358,-0.103c-0.103,-0.068 -0.154,-0.185 -0.154,-0.351l1.318,-14.942c0.029,-0.322 0.066,-0.544 0.11,-0.666c0.044,-0.122 0.154,-0.203 0.33,-0.242c0.888,-0.176 1.796,-0.354 2.724,-0.535c0.928,-0.18 1.836,-0.412 2.725,-0.695c0.078,0 0.124,0.012 0.139,0.036c0.015,0.025 0.022,0.061 0.022,0.11l-0.191,2.139c0.362,-0.186 0.767,-0.388 1.216,-0.608c0.449,-0.22 0.921,-0.423 1.414,-0.608c0.493,-0.186 0.996,-0.339 1.509,-0.462c0.512,-0.122 1.013,-0.183 1.501,-0.183c0.674,0 1.296,0.154 1.868,0.462c0.571,0.307 1.042,0.818 1.413,1.531c0.44,-0.284 0.906,-0.547 1.399,-0.791c0.493,-0.245 0.996,-0.455 1.509,-0.63c0.513,-0.176 1.028,-0.313 1.545,-0.411c0.518,-0.097 1.021,-0.146 1.509,-0.146c0.616,0 1.197,0.088 1.743,0.264c0.547,0.175 1.023,0.464 1.429,0.864c0.405,0.4 0.725,0.92 0.959,1.56c0.235,0.64 0.352,1.418 0.352,2.336c0,0.235 -0.005,0.476 -0.015,0.726c-0.01,0.249 -0.029,0.505 -0.059,0.769l-0.673,6.269c-0.049,0.41 -0.079,0.789 -0.088,1.135c-0.01,0.347 -0.015,0.75 -0.015,1.209c0,0.078 0.003,0.144 0.007,0.198c0.005,0.053 0.008,0.1 0.008,0.139c0,0.088 -0.037,0.156 -0.11,0.205c-0.073,0.049 -0.237,0.112 -0.491,0.19l-3.603,0.996Z" style="fill:#fff;fill-rule:nonzero;"/><path d="M79.008,41.457c0,-0.01 -0.002,-0.017 -0.007,-0.022c-0.005,-0.005 -0.007,-0.012 -0.007,-0.022c0,-0.127 0.068,-0.19 0.205,-0.19c0.087,0 0.166,0.034 0.234,0.102c0.391,0.371 0.837,0.674 1.34,0.908c0.503,0.235 1.048,0.352 1.634,0.352c0.156,0 0.337,-0.017 0.542,-0.051c0.205,-0.034 0.4,-0.091 0.586,-0.169c0.185,-0.078 0.339,-0.183 0.461,-0.315c0.122,-0.132 0.183,-0.295 0.183,-0.49c0,-0.215 -0.054,-0.413 -0.161,-0.594c-0.107,-0.18 -0.249,-0.329 -0.425,-0.446c-0.098,-0.069 -0.268,-0.188 -0.513,-0.359c-0.244,-0.171 -0.505,-0.354 -0.783,-0.55c-0.279,-0.195 -0.542,-0.381 -0.791,-0.556c-0.249,-0.176 -0.423,-0.303 -0.52,-0.381c-0.44,-0.332 -0.789,-0.669 -1.048,-1.011c-0.258,-0.342 -0.456,-0.696 -0.593,-1.062c-0.137,-0.366 -0.225,-0.749 -0.264,-1.15c-0.039,-0.4 -0.058,-0.825 -0.058,-1.274c0,-0.684 0.18,-1.328 0.542,-1.934c0.361,-0.605 0.837,-1.138 1.428,-1.597c0.591,-0.459 1.262,-0.822 2.014,-1.091c0.752,-0.268 1.519,-0.403 2.3,-0.403c0.645,0 1.279,0.098 1.904,0.293c0.625,0.196 1.206,0.528 1.743,0.996c0.049,0.616 0.083,1.221 0.103,1.817c0.02,0.596 0.049,1.221 0.088,1.875c0,0.127 -0.029,0.212 -0.088,0.256c-0.059,0.044 -0.127,0.066 -0.205,0.066c-0.068,0 -0.127,-0.024 -0.176,-0.073c-0.224,-0.215 -0.454,-0.427 -0.688,-0.637c-0.235,-0.21 -0.481,-0.396 -0.74,-0.557c-0.259,-0.161 -0.535,-0.293 -0.828,-0.396c-0.293,-0.102 -0.605,-0.153 -0.937,-0.153c-0.205,0 -0.41,0.017 -0.615,0.051c-0.206,0.034 -0.391,0.098 -0.557,0.19c-0.166,0.093 -0.3,0.218 -0.403,0.374c-0.102,0.156 -0.154,0.356 -0.154,0.6c0,0.284 0.034,0.528 0.103,0.733c0.068,0.205 0.229,0.405 0.483,0.6l2.725,1.846c0.498,0.342 0.901,0.676 1.208,1.004c0.308,0.327 0.55,0.651 0.725,0.974c0.176,0.322 0.296,0.642 0.359,0.959c0.064,0.318 0.095,0.633 0.095,0.945c0,0.879 -0.202,1.653 -0.607,2.322c-0.406,0.669 -0.931,1.225 -1.575,1.67c-0.645,0.444 -1.375,0.781 -2.19,1.01c-0.815,0.23 -1.633,0.345 -2.454,0.345c-0.625,0 -1.228,-0.066 -1.809,-0.198c-0.581,-0.132 -1.12,-0.335 -1.618,-0.608l-0.191,-3.999Z" style="fill:#fff;fill-rule:nonzero;"/><path d="M99.282,34.206c-0.137,1.025 -0.267,2.048 -0.389,3.069c-0.122,1.02 -0.197,1.975 -0.227,2.864c0,0.381 0.03,0.698 0.088,0.952c0.059,0.254 0.144,0.454 0.257,0.6c0.112,0.147 0.246,0.252 0.402,0.315c0.157,0.064 0.332,0.096 0.528,0.096c0.312,0 0.654,-0.047 1.025,-0.14c0.371,-0.092 0.742,-0.212 1.113,-0.358c0.118,-0.049 0.218,-0.086 0.301,-0.11c0.083,-0.025 0.154,-0.037 0.212,-0.037c0.098,0 0.164,0.044 0.198,0.132c0.034,0.088 0.068,0.242 0.102,0.461c0.035,0.22 0.086,0.515 0.154,0.887c0.069,0.371 0.181,0.839 0.337,1.406c0.01,0.049 0.017,0.09 0.022,0.124c0.005,0.034 0.007,0.066 0.007,0.096c0,0.136 -0.051,0.234 -0.153,0.292c-0.103,0.059 -0.271,0.127 -0.506,0.206c-0.4,0.136 -0.822,0.275 -1.267,0.417c-0.444,0.142 -0.884,0.271 -1.318,0.388c-0.435,0.117 -0.852,0.213 -1.253,0.286c-0.4,0.073 -0.752,0.11 -1.054,0.11c-1.631,0 -2.82,-0.406 -3.567,-1.216c-0.747,-0.811 -1.121,-2.046 -1.121,-3.706c0,-0.283 0.01,-0.574 0.029,-0.872c0.02,-0.298 0.044,-0.608 0.074,-0.93c0.097,-0.976 0.183,-1.902 0.256,-2.776c0.073,-0.874 0.149,-1.711 0.227,-2.512l-1.538,0c-0.527,0 -0.908,-0.022 -1.143,-0.066c-0.234,-0.044 -0.351,-0.134 -0.351,-0.271c0,-0.039 0.049,-0.144 0.146,-0.315c0.098,-0.171 0.223,-0.376 0.374,-0.615c0.151,-0.239 0.315,-0.496 0.491,-0.769c0.175,-0.274 0.344,-0.53 0.505,-0.769c0.161,-0.239 0.3,-0.447 0.418,-0.623c0.117,-0.176 0.19,-0.283 0.219,-0.322l1.04,0c0.088,-0.742 0.159,-1.365 0.213,-1.868c0.053,-0.503 0.097,-0.92 0.132,-1.252c0.034,-0.332 0.065,-0.588 0.095,-0.769c0.029,-0.181 0.061,-0.315 0.095,-0.403c0.034,-0.088 0.078,-0.144 0.132,-0.168c0.053,-0.025 0.124,-0.047 0.212,-0.066c0.44,-0.088 0.864,-0.169 1.275,-0.242c0.41,-0.073 0.82,-0.149 1.23,-0.227c0.41,-0.078 0.828,-0.169 1.252,-0.271c0.425,-0.103 0.867,-0.222 1.326,-0.359c0.029,0 0.049,-0.002 0.059,-0.007c0.01,-0.005 0.029,-0.008 0.058,-0.008c0.118,0 0.176,0.039 0.176,0.118l0,0.029c-0.049,0.537 -0.124,1.284 -0.227,2.241c-0.102,0.957 -0.217,2.041 -0.344,3.252l3.926,0c0.078,0 0.153,0.027 0.227,0.081c0.073,0.053 0.11,0.144 0.11,0.271c0,0.048 -0.059,0.224 -0.176,0.527c-0.117,0.303 -0.283,0.698 -0.498,1.186l-0.528,1.187c-0.068,0.146 -0.139,0.254 -0.212,0.322c-0.073,0.069 -0.222,0.113 -0.447,0.132l-2.724,0Z" style="fill:#fff;fill-rule:nonzero;"/><path d="M119.877,42.556c-0.009,0.039 -0.014,0.075 -0.014,0.11c0,0.034 0,0.065 0,0.095c0,0.244 0.039,0.447 0.117,0.608c0.078,0.161 0.163,0.293 0.256,0.395c0.093,0.103 0.178,0.186 0.257,0.249c0.078,0.064 0.117,0.12 0.117,0.169c0,0.136 -0.147,0.263 -0.44,0.381l-3.94,1.684c-0.01,0.01 -0.044,0.015 -0.103,0.015c-0.078,0 -0.156,-0.069 -0.234,-0.205c-0.078,-0.137 -0.154,-0.31 -0.227,-0.52c-0.073,-0.21 -0.142,-0.435 -0.205,-0.674c-0.064,-0.239 -0.12,-0.462 -0.169,-0.667c-0.615,0.713 -1.279,1.236 -1.992,1.568c-0.713,0.332 -1.421,0.498 -2.124,0.498c-0.82,0 -1.621,-0.181 -2.402,-0.542c-0.781,-0.362 -1.475,-0.877 -2.08,-1.546c-0.606,-0.669 -1.092,-1.477 -1.458,-2.424c-0.366,-0.947 -0.549,-2.012 -0.549,-3.193c0,-1.397 0.203,-2.671 0.608,-3.824c0.405,-1.152 0.954,-2.143 1.648,-2.973c0.693,-0.83 1.501,-1.472 2.424,-1.927c0.923,-0.454 1.902,-0.681 2.937,-0.681c0.732,0 1.426,0.149 2.08,0.447c0.654,0.298 1.275,0.681 1.86,1.15c0.059,-0.293 0.093,-0.527 0.103,-0.703c0.01,-0.176 0.032,-0.313 0.066,-0.41c0.034,-0.098 0.1,-0.164 0.198,-0.198c0.097,-0.034 0.258,-0.061 0.483,-0.081c0.703,-0.097 1.404,-0.188 2.102,-0.271c0.698,-0.083 1.428,-0.144 2.19,-0.183l-1.509,13.653Zm-4.38,-5.523c0.098,-0.556 0.164,-1.081 0.198,-1.575c0.034,-0.493 0.061,-0.944 0.081,-1.354c-0.157,-0.118 -0.325,-0.24 -0.506,-0.367c-0.18,-0.127 -0.376,-0.246 -0.586,-0.359c-0.21,-0.112 -0.429,-0.202 -0.659,-0.271c-0.229,-0.068 -0.471,-0.102 -0.725,-0.102c-0.527,0 -0.969,0.171 -1.326,0.513c-0.356,0.341 -0.644,0.761 -0.864,1.259c-0.22,0.498 -0.376,1.026 -0.469,1.582c-0.092,0.557 -0.139,1.05 -0.139,1.48c0,1.543 0.203,2.673 0.608,3.391c0.405,0.718 0.969,1.077 1.692,1.077c0.293,0 0.62,-0.083 0.982,-0.249c0.361,-0.166 0.727,-0.396 1.098,-0.689l0.615,-4.336Z" style="fill:#fff;fill-rule:nonzero;"/><path d="M135.185,33.576c-0.205,-0.019 -0.435,-0.041 -0.689,-0.066c-0.253,-0.024 -0.522,-0.036 -0.805,-0.036c-0.43,0 -0.867,0.036 -1.311,0.109c-0.445,0.074 -0.857,0.218 -1.238,0.433c-0.381,0.214 -0.708,0.51 -0.981,0.886c-0.274,0.376 -0.45,0.862 -0.528,1.457c-0.068,0.723 -0.124,1.316 -0.168,1.78c-0.044,0.464 -0.076,0.845 -0.096,1.143c-0.019,0.298 -0.036,0.537 -0.051,0.718c-0.014,0.18 -0.027,0.349 -0.036,0.505c0,0.039 -0.008,0.146 -0.022,0.322c-0.015,0.176 -0.037,0.381 -0.066,0.615c-0.03,0.235 -0.056,0.489 -0.081,0.762c-0.024,0.274 -0.051,0.527 -0.08,0.762c-0.03,0.234 -0.052,0.439 -0.066,0.615c-0.015,0.176 -0.022,0.283 -0.022,0.322c0,0.078 0.002,0.144 0.007,0.198c0.005,0.054 0.007,0.105 0.007,0.154c0,0.078 -0.036,0.144 -0.11,0.198c-0.073,0.053 -0.236,0.114 -0.49,0.183l-3.882,1.391c-0.108,0.039 -0.249,0.088 -0.425,0.147c-0.176,0.058 -0.347,0.088 -0.513,0.088c-0.136,0 -0.256,-0.034 -0.358,-0.103c-0.103,-0.068 -0.154,-0.185 -0.154,-0.351l1.259,-14.517c0.03,-0.322 0.066,-0.544 0.11,-0.666c0.044,-0.123 0.154,-0.203 0.33,-0.242c0.889,-0.176 1.807,-0.354 2.754,-0.535c0.947,-0.181 1.865,-0.412 2.754,-0.696c0.078,0 0.124,0.013 0.139,0.037c0.015,0.024 0.022,0.061 0.022,0.11c0,0.019 -0.003,0.049 -0.007,0.088c-0.005,0.039 -0.02,0.127 -0.044,0.263c-0.025,0.137 -0.059,0.345 -0.103,0.623c-0.044,0.278 -0.105,0.666 -0.183,1.164c0.449,-0.351 0.945,-0.673 1.487,-0.966c0.542,-0.293 1.086,-0.545 1.633,-0.755c0.547,-0.21 1.074,-0.376 1.582,-0.498c0.508,-0.122 0.952,-0.183 1.333,-0.183l-0.908,4.541Z" style="fill:#fff;fill-rule:nonzero;"/><path d="M147.211,29.299c0.039,-0.098 0.113,-0.147 0.22,-0.147c0.02,0 0.039,0.003 0.059,0.008c0.019,0.005 0.039,0.007 0.058,0.007c0.733,0.283 1.485,0.515 2.256,0.696c0.772,0.18 1.538,0.354 2.3,0.52c0.185,0.039 0.278,0.146 0.278,0.322c0,0.127 -0.058,0.322 -0.176,0.586l-6.035,12.832c-0.078,0.176 -0.146,0.317 -0.205,0.425c-0.058,0.107 -0.117,0.195 -0.176,0.264c-0.058,0.068 -0.122,0.117 -0.19,0.146c-0.068,0.029 -0.151,0.054 -0.249,0.073c-0.742,0.147 -1.494,0.315 -2.256,0.506c-0.762,0.19 -1.553,0.427 -2.373,0.71c-0.02,0 -0.034,0.003 -0.044,0.007c-0.01,0.005 -0.019,0.008 -0.029,0.008l-0.103,0c-0.049,0 -0.088,-0.017 -0.117,-0.052c-0.029,-0.034 -0.049,-0.065 -0.059,-0.095c-0.146,-0.42 -0.314,-0.962 -0.505,-1.626c-0.19,-0.664 -0.398,-1.406 -0.622,-2.226c-0.225,-0.821 -0.459,-1.695 -0.704,-2.622c-0.244,-0.928 -0.493,-1.87 -0.747,-2.828c-0.254,-0.957 -0.505,-1.906 -0.754,-2.849c-0.249,-0.942 -0.491,-1.833 -0.725,-2.673c-0.088,-0.303 -0.132,-0.518 -0.132,-0.645c0,-0.136 0.078,-0.224 0.234,-0.263c0.762,-0.166 1.553,-0.34 2.373,-0.52c0.821,-0.181 1.597,-0.413 2.33,-0.696c0.029,-0.01 0.073,-0.015 0.131,-0.015c0.127,0 0.196,0.049 0.205,0.147l1.934,9.844c0.049,-0.118 0.132,-0.33 0.249,-0.638c0.117,-0.307 0.259,-0.676 0.425,-1.106c0.166,-0.429 0.349,-0.903 0.549,-1.42c0.2,-0.518 0.405,-1.045 0.615,-1.583c0.21,-0.537 0.418,-1.071 0.623,-1.604c0.205,-0.532 0.398,-1.027 0.579,-1.486c0.18,-0.459 0.339,-0.865 0.476,-1.216c0.136,-0.352 0.239,-0.615 0.307,-0.791Z" style="fill:#fff;fill-rule:nonzero;"/><path d="M153.232,39.289c0.127,-1.338 0.254,-2.661 0.381,-3.97c0.127,-1.308 0.239,-2.651 0.337,-4.028c0.019,-0.322 0.051,-0.544 0.095,-0.666c0.044,-0.123 0.154,-0.203 0.329,-0.242c0.83,-0.166 1.7,-0.34 2.608,-0.52c0.908,-0.181 1.787,-0.413 2.637,-0.696c0.029,-0.01 0.073,-0.015 0.131,-0.015c0.108,0 0.161,0.039 0.161,0.118l-1.318,14.267c-0.029,0.322 -0.063,0.545 -0.102,0.667c-0.039,0.122 -0.147,0.202 -0.323,0.241c-0.83,0.254 -1.67,0.537 -2.519,0.85c-0.85,0.312 -1.748,0.63 -2.696,0.952c-0.029,0.01 -0.073,0.015 -0.131,0.015c-0.108,0 -0.161,-0.049 -0.161,-0.147c0,-0.01 0.009,-0.141 0.029,-0.395c0.019,-0.254 0.046,-0.581 0.08,-0.982c0.035,-0.4 0.071,-0.849 0.11,-1.347c0.039,-0.498 0.081,-0.996 0.125,-1.495c0.044,-0.498 0.085,-0.976 0.124,-1.435c0.039,-0.459 0.073,-0.85 0.103,-1.172Zm1.098,-11.689c0.03,-0.42 0.052,-0.743 0.066,-0.967c0.015,-0.225 0.027,-0.393 0.037,-0.506c0.01,-0.112 0.015,-0.183 0.015,-0.212c0,-0.029 0.002,-0.051 0.007,-0.066c0.005,-0.015 0.01,-0.044 0.015,-0.088c0.004,-0.044 0.012,-0.136 0.022,-0.278c0.009,-0.142 0.024,-0.349 0.044,-0.623c0.019,-0.273 0.048,-0.649 0.087,-1.128c0.02,-0.322 0.052,-0.544 0.096,-0.666c0.044,-0.122 0.153,-0.203 0.329,-0.242c0.83,-0.166 1.699,-0.339 2.608,-0.52c0.908,-0.18 1.787,-0.412 2.636,-0.696c0.03,-0.009 0.074,-0.014 0.132,-0.014c0.029,0.058 0.069,0.097 0.117,0.117l0.044,0.029l-0.322,4.014c-0.029,0.322 -0.066,0.547 -0.11,0.674c-0.044,0.127 -0.149,0.205 -0.315,0.234c-0.83,0.156 -1.67,0.327 -2.519,0.513c-0.85,0.185 -1.748,0.371 -2.696,0.556c-0.029,0.01 -0.073,0.015 -0.131,0.015c-0.108,0 -0.162,-0.049 -0.162,-0.146Z" style="fill:#fff;fill-rule:nonzero;"/><path d="M173.974,46.027c-0.107,0.03 -0.249,0.076 -0.425,0.14c-0.176,0.063 -0.347,0.095 -0.513,0.095c-0.136,0 -0.256,-0.034 -0.358,-0.103c-0.103,-0.068 -0.154,-0.185 -0.154,-0.351l0,-0.088c0.058,-0.528 0.107,-0.974 0.146,-1.341c0.039,-0.366 0.076,-0.698 0.11,-0.996c0.034,-0.298 0.064,-0.595 0.088,-0.893c0.024,-0.298 0.056,-0.645 0.095,-1.04c0.039,-0.396 0.086,-0.865 0.139,-1.407c0.054,-0.542 0.12,-1.218 0.198,-2.028c0.049,-0.498 0.093,-1.006 0.132,-1.524c0.039,-0.517 0.059,-0.996 0.059,-1.435c0,-0.293 -0.022,-0.564 -0.066,-0.813c-0.044,-0.249 -0.122,-0.464 -0.235,-0.645c-0.112,-0.181 -0.266,-0.32 -0.461,-0.417c-0.195,-0.098 -0.444,-0.147 -0.747,-0.147c-0.225,0 -0.535,0.049 -0.93,0.147c-0.396,0.097 -0.789,0.258 -1.18,0.483c-0.39,0.225 -0.737,0.52 -1.04,0.886c-0.302,0.367 -0.473,0.818 -0.512,1.355c-0.059,0.723 -0.113,1.341 -0.161,1.853c-0.049,0.513 -0.093,0.948 -0.132,1.304c-0.039,0.356 -0.071,0.647 -0.096,0.872c-0.024,0.224 -0.041,0.415 -0.051,0.571c-0.01,0.039 -0.024,0.146 -0.044,0.322c-0.019,0.176 -0.041,0.386 -0.066,0.63c-0.024,0.244 -0.048,0.503 -0.073,0.776c-0.024,0.274 -0.049,0.533 -0.073,0.777c-0.025,0.244 -0.044,0.454 -0.059,0.63c-0.014,0.175 -0.022,0.283 -0.022,0.322c0,0.078 0.003,0.144 0.008,0.198c0.005,0.053 0.007,0.105 0.007,0.153c0,0.079 -0.037,0.145 -0.11,0.198c-0.073,0.054 -0.237,0.115 -0.491,0.183l-3.881,1.333c-0.108,0.039 -0.249,0.088 -0.425,0.147c-0.176,0.058 -0.347,0.088 -0.513,0.088c-0.137,0 -0.256,-0.034 -0.359,-0.103c-0.102,-0.068 -0.154,-0.185 -0.154,-0.351l1.333,-14.971c0.03,-0.322 0.066,-0.545 0.11,-0.667c0.044,-0.122 0.154,-0.202 0.33,-0.241c0.888,-0.176 1.802,-0.354 2.739,-0.535c0.938,-0.181 1.851,-0.413 2.739,-0.696c0.078,0 0.125,0.012 0.139,0.037c0.015,0.024 0.022,0.061 0.022,0.11c0,0.019 -0.002,0.049 -0.007,0.088c-0.005,0.039 -0.019,0.127 -0.044,0.263c-0.024,0.137 -0.058,0.345 -0.102,0.623c-0.044,0.278 -0.105,0.666 -0.183,1.164c0.673,-0.39 1.306,-0.705 1.897,-0.944c0.59,-0.24 1.147,-0.425 1.669,-0.557c0.523,-0.132 1.014,-0.22 1.473,-0.264c0.459,-0.044 0.888,-0.066 1.289,-0.066c1.377,0 2.378,0.418 3.003,1.253c0.625,0.835 0.937,2.087 0.937,3.757c0,0.234 -0.005,0.476 -0.015,0.725c-0.009,0.249 -0.029,0.506 -0.058,0.769l-0.674,6.299c-0.049,0.41 -0.078,0.789 -0.088,1.135c-0.01,0.347 -0.015,0.75 -0.015,1.209c0,0.078 0.003,0.144 0.008,0.198c0.005,0.053 0.007,0.1 0.007,0.139c0,0.088 -0.036,0.156 -0.11,0.205c-0.073,0.049 -0.237,0.112 -0.49,0.19l-3.56,0.996Z" style="fill:#fff;fill-rule:nonzero;"/><path d="M191.86,35.056c-0.098,-0.225 -0.232,-0.454 -0.403,-0.689c-0.171,-0.234 -0.369,-0.449 -0.593,-0.644c-0.225,-0.196 -0.469,-0.354 -0.733,-0.476c-0.263,-0.122 -0.542,-0.184 -0.835,-0.184c-0.4,0 -0.776,0.166 -1.128,0.499c-0.351,0.332 -0.659,0.773 -0.923,1.325c-0.263,0.552 -0.471,1.182 -0.622,1.89c-0.151,0.708 -0.227,1.443 -0.227,2.204c0,0.469 0.041,0.911 0.124,1.326c0.083,0.415 0.213,0.779 0.389,1.091c0.175,0.313 0.402,0.562 0.681,0.748c0.278,0.185 0.612,0.278 1.003,0.278c0.586,0 1.123,-0.183 1.611,-0.549c0.489,-0.367 0.904,-0.843 1.246,-1.429c0.009,-0.205 0.024,-0.449 0.044,-0.732c0.019,-0.283 0.043,-0.628 0.073,-1.033c0.029,-0.405 0.066,-0.884 0.11,-1.435c0.044,-0.552 0.1,-1.209 0.168,-1.971l0.015,-0.219Zm4.848,8.847c-0.097,0.967 -0.317,1.87 -0.659,2.71c-0.342,0.84 -0.774,1.609 -1.296,2.307c-0.523,0.699 -1.118,1.324 -1.787,1.875c-0.669,0.552 -1.377,1.018 -2.124,1.399c-0.747,0.381 -1.516,0.672 -2.307,0.872c-0.791,0.2 -1.573,0.3 -2.344,0.3c-0.41,0 -0.83,-0.014 -1.26,-0.044c-0.43,-0.029 -0.85,-0.085 -1.26,-0.168c-0.41,-0.083 -0.801,-0.2 -1.172,-0.352c-0.371,-0.151 -0.703,-0.344 -0.996,-0.578l0,-0.015c0,-0.049 0.037,-0.22 0.11,-0.513c0.073,-0.293 0.161,-0.637 0.264,-1.032c0.102,-0.396 0.21,-0.804 0.322,-1.224c0.112,-0.419 0.208,-0.781 0.286,-1.084c0.039,-0.136 0.078,-0.229 0.117,-0.278c0.039,-0.049 0.083,-0.073 0.132,-0.073c0.058,0 0.093,0.005 0.102,0.015c0.283,0.185 0.55,0.339 0.799,0.461c0.249,0.122 0.512,0.22 0.791,0.293c0.278,0.073 0.583,0.124 0.915,0.154c0.332,0.029 0.718,0.044 1.157,0.044c0.684,0 1.289,-0.132 1.817,-0.396c0.527,-0.264 0.981,-0.605 1.362,-1.025c0.381,-0.42 0.686,-0.882 0.916,-1.384c0.229,-0.503 0.388,-0.999 0.476,-1.487c-0.703,0.468 -1.416,0.849 -2.139,1.142c-0.723,0.293 -1.45,0.44 -2.183,0.44c-1.005,0 -1.875,-0.203 -2.607,-0.608c-0.732,-0.405 -1.338,-0.95 -1.816,-1.633c-0.479,-0.684 -0.833,-1.468 -1.062,-2.352c-0.23,-0.883 -0.345,-1.809 -0.345,-2.775c0,-0.762 0.071,-1.531 0.213,-2.308c0.141,-0.776 0.351,-1.525 0.63,-2.248c0.278,-0.723 0.622,-1.399 1.032,-2.029c0.41,-0.63 0.884,-1.179 1.421,-1.648c0.537,-0.469 1.133,-0.837 1.787,-1.106c0.655,-0.268 1.368,-0.403 2.139,-0.403c0.84,0 1.619,0.186 2.336,0.557c0.718,0.371 1.37,0.83 1.956,1.377c0.02,-0.176 0.034,-0.315 0.044,-0.418c0.01,-0.102 0.034,-0.183 0.073,-0.241c0.039,-0.059 0.105,-0.103 0.198,-0.132c0.093,-0.029 0.227,-0.064 0.403,-0.103c0.107,-0.019 0.303,-0.061 0.586,-0.124c0.283,-0.064 0.62,-0.139 1.01,-0.227c0.391,-0.088 0.821,-0.181 1.29,-0.279c0.468,-0.097 0.942,-0.2 1.42,-0.307c0.118,-0.029 0.225,-0.044 0.323,-0.044c0.302,0 0.454,0.195 0.454,0.586c0,0.049 0,0.095 0,0.139c0,0.044 -0.005,0.09 -0.015,0.139l-1.509,13.828Z" style="fill:#fff;fill-rule:nonzero;"/><path d="M208.237,45.72c0.009,-0.108 0.031,-0.34 0.066,-0.696c0.034,-0.357 0.075,-0.808 0.124,-1.355c0.049,-0.547 0.105,-1.174 0.169,-1.882c0.063,-0.708 0.134,-1.47 0.212,-2.286c0.078,-0.815 0.159,-1.667 0.242,-2.556c0.083,-0.888 0.168,-1.787 0.256,-2.695l-1.948,0c-0.528,0 -0.908,-0.022 -1.143,-0.066c-0.234,-0.044 -0.351,-0.134 -0.351,-0.271c0,-0.039 0.048,-0.144 0.146,-0.315c0.098,-0.171 0.222,-0.376 0.374,-0.615c0.151,-0.239 0.315,-0.496 0.49,-0.769c0.176,-0.274 0.345,-0.53 0.506,-0.769c0.161,-0.239 0.3,-0.447 0.417,-0.623c0.117,-0.176 0.191,-0.283 0.22,-0.322l1.787,0l0.293,-2.329c0.137,-1.231 0.383,-2.266 0.74,-3.106c0.356,-0.839 0.801,-1.518 1.333,-2.036c0.532,-0.517 1.14,-0.888 1.824,-1.113c0.683,-0.225 1.416,-0.337 2.197,-0.337c0.781,0 1.594,0.095 2.439,0.286c0.844,0.19 1.697,0.451 2.556,0.783c0.185,0.079 0.325,0.144 0.417,0.198c0.093,0.054 0.14,0.125 0.14,0.213c0,0.078 -0.035,0.18 -0.103,0.307c-0.313,0.606 -0.544,1.094 -0.696,1.465c-0.151,0.371 -0.271,0.664 -0.359,0.879c-0.088,0.215 -0.161,0.359 -0.219,0.432c-0.059,0.073 -0.147,0.11 -0.264,0.11c-0.059,0 -0.12,-0.015 -0.183,-0.044c-0.064,-0.029 -0.139,-0.063 -0.227,-0.103c-0.342,-0.126 -0.686,-0.241 -1.033,-0.344c-0.347,-0.102 -0.676,-0.154 -0.989,-0.154c-0.439,0 -0.818,0.137 -1.135,0.411c-0.317,0.273 -0.569,0.791 -0.754,1.552c-0.108,0.44 -0.196,0.913 -0.264,1.421c-0.068,0.508 -0.127,1.011 -0.176,1.509l3.823,0c0.079,0 0.154,0.027 0.227,0.081c0.074,0.053 0.11,0.144 0.11,0.271c0,0.048 -0.058,0.224 -0.175,0.527c-0.118,0.303 -0.284,0.698 -0.499,1.186l-0.527,1.187c-0.068,0.146 -0.139,0.254 -0.212,0.322c-0.073,0.069 -0.222,0.113 -0.447,0.132l-2.534,0c-0.108,1.016 -0.21,2.022 -0.308,3.018c-0.097,0.996 -0.19,1.931 -0.278,2.805c-0.088,0.874 -0.166,1.65 -0.235,2.329c-0.068,0.679 -0.122,1.204 -0.161,1.575c-0.009,0.029 -0.014,0.083 -0.014,0.161c0,0.039 0.002,0.073 0.007,0.102c0.005,0.03 0.007,0.054 0.007,0.074c0,0.087 -0.031,0.158 -0.095,0.212c-0.063,0.054 -0.227,0.115 -0.491,0.183l-3.852,1.362c-0.108,0.039 -0.249,0.088 -0.425,0.147c-0.176,0.058 -0.347,0.088 -0.513,0.088c-0.166,0 -0.293,-0.039 -0.38,-0.117c-0.088,-0.079 -0.132,-0.22 -0.132,-0.425Z" style="fill:#fff;fill-rule:nonzero;"/><path d="M227.675,46.262c-1.377,0 -2.585,-0.225 -3.625,-0.674c-1.04,-0.449 -1.912,-1.047 -2.615,-1.795c-0.703,-0.747 -1.231,-1.606 -1.582,-2.578c-0.352,-0.971 -0.527,-1.98 -0.527,-3.025c0,-1.044 0.17,-2.038 0.512,-2.981c0.342,-0.942 0.821,-1.787 1.436,-2.534c0.615,-0.747 1.352,-1.372 2.212,-1.875c0.859,-0.503 1.806,-0.842 2.841,-1.018c0.157,-0.01 0.235,-0.044 0.235,-0.102c0,-0.108 -0.012,-0.208 -0.037,-0.301c-0.024,-0.092 -0.036,-0.173 -0.036,-0.241c0,-0.108 0.019,-0.181 0.058,-0.22c0.039,-0.039 0.083,-0.059 0.132,-0.059c1.865,0 3.452,0.213 4.761,0.638c1.308,0.424 2.373,1.003 3.193,1.735c0.82,0.733 1.416,1.597 1.787,2.593c0.371,0.996 0.557,2.066 0.557,3.208c0,1.455 -0.244,2.754 -0.733,3.897c-0.488,1.142 -1.154,2.109 -1.999,2.9c-0.845,0.791 -1.831,1.394 -2.959,1.809c-1.128,0.415 -2.332,0.623 -3.611,0.623Zm-2.71,-8.233c0,0.528 0.056,1.05 0.169,1.568c0.112,0.517 0.297,0.986 0.556,1.406c0.259,0.42 0.598,0.759 1.018,1.018c0.42,0.259 0.943,0.388 1.568,0.388c0.449,-0.019 0.842,-0.119 1.179,-0.3c0.337,-0.181 0.627,-0.415 0.872,-0.703c0.244,-0.288 0.446,-0.613 0.607,-0.974c0.162,-0.362 0.289,-0.735 0.381,-1.121c0.093,-0.386 0.159,-0.764 0.198,-1.135c0.039,-0.371 0.059,-0.708 0.059,-1.011c0,-0.508 -0.076,-1.006 -0.227,-1.494c-0.152,-0.488 -0.374,-0.918 -0.667,-1.289c-0.293,-0.371 -0.657,-0.672 -1.091,-0.901c-0.435,-0.23 -0.935,-0.344 -1.502,-0.344c-0.586,0 -1.079,0.173 -1.479,0.52c-0.401,0.346 -0.72,0.774 -0.96,1.281c-0.239,0.508 -0.412,1.043 -0.52,1.604c-0.107,0.562 -0.161,1.058 -0.161,1.487Z" style="fill:#fff;fill-rule:nonzero;"/><path d="M250.834,33.576c-0.205,-0.019 -0.434,-0.041 -0.688,-0.066c-0.254,-0.024 -0.523,-0.036 -0.806,-0.036c-0.429,0 -0.867,0.036 -1.311,0.109c-0.444,0.074 -0.857,0.218 -1.238,0.433c-0.38,0.214 -0.708,0.51 -0.981,0.886c-0.274,0.376 -0.449,0.862 -0.527,1.457c-0.069,0.723 -0.125,1.316 -0.169,1.78c-0.044,0.464 -0.076,0.845 -0.095,1.143c-0.02,0.298 -0.037,0.537 -0.051,0.718c-0.015,0.18 -0.027,0.349 -0.037,0.505c0,0.039 -0.007,0.146 -0.022,0.322c-0.015,0.176 -0.037,0.381 -0.066,0.615c-0.029,0.235 -0.056,0.489 -0.08,0.762c-0.025,0.274 -0.052,0.527 -0.081,0.762c-0.029,0.234 -0.051,0.439 -0.066,0.615c-0.015,0.176 -0.022,0.283 -0.022,0.322c0,0.078 0.003,0.144 0.007,0.198c0.005,0.054 0.008,0.105 0.008,0.154c0,0.078 -0.037,0.144 -0.11,0.198c-0.073,0.053 -0.237,0.114 -0.491,0.183l-3.882,1.391c-0.107,0.039 -0.249,0.088 -0.424,0.147c-0.176,0.058 -0.347,0.088 -0.513,0.088c-0.137,0 -0.257,-0.034 -0.359,-0.103c-0.103,-0.068 -0.154,-0.185 -0.154,-0.351l1.26,-14.517c0.029,-0.322 0.066,-0.544 0.11,-0.666c0.044,-0.123 0.154,-0.203 0.329,-0.242c0.889,-0.176 1.807,-0.354 2.754,-0.535c0.948,-0.181 1.865,-0.412 2.754,-0.696c0.078,0 0.125,0.013 0.139,0.037c0.015,0.024 0.022,0.061 0.022,0.11c0,0.019 -0.002,0.049 -0.007,0.088c-0.005,0.039 -0.02,0.127 -0.044,0.263c-0.024,0.137 -0.059,0.345 -0.103,0.623c-0.043,0.278 -0.104,0.666 -0.183,1.164c0.45,-0.351 0.945,-0.673 1.487,-0.966c0.542,-0.293 1.087,-0.545 1.633,-0.755c0.547,-0.21 1.075,-0.376 1.583,-0.498c0.507,-0.122 0.952,-0.183 1.333,-0.183l-0.909,4.541Z" style="fill:#fff;fill-rule:nonzero;"/><path d="M264.78,52.18c-0.02,0.039 -0.042,0.07 -0.066,0.095c-0.025,0.024 -0.066,0.037 -0.125,0.037c-0.058,0 -0.102,-0.005 -0.132,-0.015c-0.351,-0.127 -0.683,-0.234 -0.996,-0.322c-0.312,-0.088 -0.622,-0.169 -0.93,-0.242c-0.308,-0.073 -0.622,-0.142 -0.945,-0.205c-0.322,-0.064 -0.664,-0.134 -1.025,-0.213c-0.098,-0.019 -0.173,-0.051 -0.227,-0.095c-0.054,-0.044 -0.081,-0.119 -0.081,-0.227c0,-0.029 0.017,-0.1 0.052,-0.212c0.034,-0.113 0.119,-0.342 0.256,-0.689c0.137,-0.346 0.347,-0.849 0.63,-1.509c0.283,-0.659 0.674,-1.545 1.172,-2.658c-0.147,-0.488 -0.313,-1.074 -0.498,-1.758c-0.186,-0.684 -0.384,-1.431 -0.594,-2.241c-0.21,-0.811 -0.427,-1.668 -0.652,-2.571c-0.224,-0.903 -0.451,-1.816 -0.681,-2.739c-0.229,-0.923 -0.459,-1.836 -0.688,-2.74c-0.23,-0.903 -0.452,-1.765 -0.667,-2.585c-0.068,-0.156 -0.107,-0.286 -0.117,-0.388c-0.01,-0.103 -0.014,-0.188 -0.014,-0.257c0,-0.136 0.078,-0.224 0.234,-0.263c0.762,-0.166 1.553,-0.34 2.373,-0.52c0.82,-0.181 1.597,-0.413 2.329,-0.696c0.029,-0.01 0.073,-0.015 0.132,-0.015c0.127,0 0.195,0.049 0.205,0.147l1.787,9.844c0.039,-0.118 0.115,-0.33 0.227,-0.638c0.112,-0.307 0.244,-0.676 0.396,-1.106c0.151,-0.429 0.319,-0.903 0.505,-1.42c0.186,-0.518 0.376,-1.045 0.571,-1.583c0.196,-0.537 0.388,-1.071 0.579,-1.604c0.19,-0.532 0.369,-1.027 0.535,-1.486c0.166,-0.459 0.31,-0.865 0.432,-1.216c0.122,-0.352 0.217,-0.615 0.285,-0.791c0.039,-0.098 0.113,-0.147 0.22,-0.147c0.029,0 0.049,0.003 0.059,0.008c0.009,0.005 0.029,0.007 0.058,0.007c0.733,0.283 1.485,0.515 2.256,0.696c0.772,0.18 1.538,0.354 2.3,0.52c0.185,0.039 0.278,0.146 0.278,0.322c0,0.127 -0.058,0.322 -0.176,0.586l-6.035,13.638l-3.222,7.251Z" style="fill:#fff;fill-rule:nonzero;"/><path d="M282.739,46.262c-1.377,0 -2.586,-0.225 -3.626,-0.674c-1.04,-0.449 -1.911,-1.047 -2.615,-1.795c-0.703,-0.747 -1.23,-1.606 -1.582,-2.578c-0.351,-0.971 -0.527,-1.98 -0.527,-3.025c0,-1.044 0.171,-2.038 0.513,-2.981c0.342,-0.942 0.82,-1.787 1.435,-2.534c0.615,-0.747 1.353,-1.372 2.212,-1.875c0.86,-0.503 1.807,-0.842 2.842,-1.018c0.156,-0.01 0.234,-0.044 0.234,-0.102c0,-0.108 -0.012,-0.208 -0.036,-0.301c-0.025,-0.092 -0.037,-0.173 -0.037,-0.241c0,-0.108 0.02,-0.181 0.059,-0.22c0.039,-0.039 0.083,-0.059 0.132,-0.059c1.865,0 3.452,0.213 4.76,0.638c1.309,0.424 2.373,1.003 3.194,1.735c0.82,0.733 1.416,1.597 1.787,2.593c0.371,0.996 0.556,2.066 0.556,3.208c0,1.455 -0.244,2.754 -0.732,3.897c-0.488,1.142 -1.155,2.109 -2,2.9c-0.844,0.791 -1.831,1.394 -2.959,1.809c-1.127,0.415 -2.331,0.623 -3.61,0.623Zm-2.71,-8.233c0,0.528 0.056,1.05 0.168,1.568c0.112,0.517 0.298,0.986 0.557,1.406c0.259,0.42 0.598,0.759 1.018,1.018c0.42,0.259 0.942,0.388 1.567,0.388c0.449,-0.019 0.842,-0.119 1.179,-0.3c0.337,-0.181 0.628,-0.415 0.872,-0.703c0.244,-0.288 0.447,-0.613 0.608,-0.974c0.161,-0.362 0.288,-0.735 0.381,-1.121c0.093,-0.386 0.158,-0.764 0.198,-1.135c0.039,-0.371 0.058,-0.708 0.058,-1.011c0,-0.508 -0.076,-1.006 -0.227,-1.494c-0.151,-0.488 -0.373,-0.918 -0.666,-1.289c-0.293,-0.371 -0.657,-0.672 -1.092,-0.901c-0.434,-0.23 -0.935,-0.344 -1.501,-0.344c-0.586,0 -1.079,0.173 -1.48,0.52c-0.4,0.346 -0.72,0.774 -0.959,1.281c-0.239,0.508 -0.413,1.043 -0.52,1.604c-0.108,0.562 -0.161,1.058 -0.161,1.487Z" style="fill:#fff;fill-rule:nonzero;"/><path d="M309.399,43.684c-0.03,0.322 -0.069,0.544 -0.117,0.666c-0.049,0.122 -0.157,0.203 -0.323,0.242c-0.83,0.234 -1.696,0.471 -2.6,0.71c-0.903,0.24 -1.78,0.554 -2.629,0.945c-0.029,0.01 -0.073,0.015 -0.132,0.015c-0.078,0 -0.125,-0.02 -0.139,-0.059c-0.015,-0.039 -0.022,-0.083 -0.022,-0.132c0,-0.019 0.002,-0.053 0.007,-0.102c0.005,-0.049 0.017,-0.139 0.037,-0.271c0.019,-0.132 0.046,-0.315 0.08,-0.55c0.035,-0.234 0.081,-0.546 0.14,-0.937c-1.094,0.713 -2.063,1.233 -2.908,1.56c-0.845,0.327 -1.594,0.491 -2.249,0.491c-1.631,0 -2.82,-0.393 -3.567,-1.179c-0.747,-0.787 -1.12,-1.961 -1.12,-3.523c0,-0.284 0.005,-0.574 0.014,-0.872c0.01,-0.298 0.04,-0.603 0.088,-0.916c0.108,-1.152 0.201,-2.141 0.279,-2.966c0.078,-0.825 0.141,-1.526 0.19,-2.102c0.049,-0.576 0.09,-1.047 0.125,-1.413c0.034,-0.367 0.063,-0.672 0.087,-0.916c0.025,-0.244 0.044,-0.447 0.059,-0.608c0.015,-0.161 0.032,-0.32 0.051,-0.476c0.039,-0.312 0.076,-0.532 0.11,-0.659c0.034,-0.127 0.144,-0.21 0.33,-0.249c0.459,-0.088 0.896,-0.169 1.311,-0.242c0.415,-0.073 0.825,-0.151 1.23,-0.234c0.406,-0.083 0.818,-0.174 1.238,-0.271c0.42,-0.098 0.864,-0.215 1.333,-0.352c0.02,0 0.039,-0.002 0.059,-0.007c0.019,-0.005 0.039,-0.007 0.058,-0.007c0.117,0 0.176,0.039 0.176,0.117l0,0.029c-0.039,0.332 -0.073,0.645 -0.102,0.938c-0.03,0.292 -0.059,0.593 -0.088,0.9c-0.03,0.308 -0.061,0.638 -0.096,0.989c-0.034,0.352 -0.075,0.759 -0.124,1.223c-0.049,0.464 -0.108,0.999 -0.176,1.604c-0.068,0.606 -0.151,1.309 -0.249,2.11c-0.058,0.586 -0.117,1.169 -0.176,1.75c-0.058,0.581 -0.088,1.121 -0.088,1.619c0,0.273 0.02,0.525 0.059,0.754c0.039,0.23 0.11,0.425 0.212,0.586c0.103,0.161 0.237,0.286 0.403,0.374c0.166,0.088 0.381,0.132 0.645,0.132c0.205,0 0.483,-0.047 0.835,-0.14c0.351,-0.092 0.703,-0.254 1.054,-0.483c0.352,-0.23 0.662,-0.532 0.931,-0.908c0.268,-0.376 0.422,-0.852 0.461,-1.428c0.068,-0.967 0.129,-1.775 0.183,-2.425c0.054,-0.649 0.1,-1.196 0.139,-1.64c0.039,-0.445 0.074,-0.818 0.103,-1.121c0.029,-0.303 0.056,-0.593 0.08,-0.872c0.025,-0.278 0.047,-0.576 0.066,-0.893c0.02,-0.318 0.039,-0.715 0.059,-1.194c0.029,-0.322 0.066,-0.544 0.11,-0.666c0.044,-0.123 0.154,-0.203 0.329,-0.242c0.889,-0.176 1.797,-0.354 2.725,-0.535c0.928,-0.181 1.836,-0.412 2.725,-0.696c0.078,0 0.124,0.013 0.139,0.037c0.014,0.024 0.022,0.061 0.022,0.11l-1.377,14.385Z" style="fill:#fff;fill-rule:nonzero;"/><path d="M324.648,33.576c-0.205,-0.019 -0.435,-0.041 -0.689,-0.066c-0.254,-0.024 -0.522,-0.036 -0.805,-0.036c-0.43,0 -0.867,0.036 -1.311,0.109c-0.445,0.074 -0.857,0.218 -1.238,0.433c-0.381,0.214 -0.708,0.51 -0.982,0.886c-0.273,0.376 -0.449,0.862 -0.527,1.457c-0.068,0.723 -0.124,1.316 -0.168,1.78c-0.044,0.464 -0.076,0.845 -0.096,1.143c-0.019,0.298 -0.036,0.537 -0.051,0.718c-0.015,0.18 -0.027,0.349 -0.037,0.505c0,0.039 -0.007,0.146 -0.021,0.322c-0.015,0.176 -0.037,0.381 -0.066,0.615c-0.03,0.235 -0.057,0.489 -0.081,0.762c-0.024,0.274 -0.051,0.527 -0.081,0.762c-0.029,0.234 -0.051,0.439 -0.065,0.615c-0.015,0.176 -0.022,0.283 -0.022,0.322c0,0.078 0.002,0.144 0.007,0.198c0.005,0.054 0.007,0.105 0.007,0.154c0,0.078 -0.036,0.144 -0.11,0.198c-0.073,0.053 -0.236,0.114 -0.49,0.183l-3.882,1.391c-0.108,0.039 -0.249,0.088 -0.425,0.147c-0.176,0.058 -0.347,0.088 -0.513,0.088c-0.136,0 -0.256,-0.034 -0.359,-0.103c-0.102,-0.068 -0.153,-0.185 -0.153,-0.351l1.259,-14.517c0.03,-0.322 0.066,-0.544 0.11,-0.666c0.044,-0.123 0.154,-0.203 0.33,-0.242c0.888,-0.176 1.806,-0.354 2.754,-0.535c0.947,-0.181 1.865,-0.412 2.754,-0.696c0.078,0 0.124,0.013 0.139,0.037c0.014,0.024 0.022,0.061 0.022,0.11c0,0.019 -0.003,0.049 -0.008,0.088c-0.004,0.039 -0.019,0.127 -0.044,0.263c-0.024,0.137 -0.058,0.345 -0.102,0.623c-0.044,0.278 -0.105,0.666 -0.183,1.164c0.449,-0.351 0.945,-0.673 1.487,-0.966c0.542,-0.293 1.086,-0.545 1.633,-0.755c0.547,-0.21 1.074,-0.376 1.582,-0.498c0.508,-0.122 0.952,-0.183 1.333,-0.183l-0.908,4.541Z" style="fill:#fff;fill-rule:nonzero;"/><path d="M341.464,30.588c0.03,-0.108 0.113,-0.176 0.249,-0.205c0.791,-0.176 1.602,-0.357 2.432,-0.542c0.83,-0.186 1.626,-0.415 2.388,-0.689c0.136,0 0.205,0.049 0.205,0.147l1.494,9.99l2.798,-9.99c0.039,-0.098 0.112,-0.147 0.219,-0.147c0.03,0 0.049,0.003 0.059,0.008c0.01,0.005 0.029,0.007 0.059,0.007c0.732,0.283 1.484,0.515 2.255,0.696c0.772,0.18 1.539,0.354 2.3,0.52c0.186,0.039 0.279,0.146 0.279,0.322c0,0.127 -0.059,0.322 -0.176,0.586l-4.717,13.066c-0.078,0.166 -0.147,0.306 -0.205,0.418c-0.059,0.112 -0.117,0.2 -0.176,0.264c-0.058,0.063 -0.122,0.112 -0.19,0.146c-0.069,0.034 -0.152,0.061 -0.249,0.081c-0.743,0.156 -1.494,0.327 -2.256,0.512c-0.762,0.186 -1.553,0.42 -2.373,0.703c-0.02,0 -0.034,0.003 -0.044,0.008c-0.01,0.005 -0.02,0.007 -0.029,0.007l-0.103,0c-0.049,0 -0.088,-0.017 -0.117,-0.051c-0.03,-0.034 -0.049,-0.066 -0.059,-0.095c-0.107,-0.42 -0.229,-0.943 -0.366,-1.568c-0.137,-0.625 -0.283,-1.318 -0.439,-2.08c-0.157,-0.762 -0.323,-1.577 -0.499,-2.446c-0.175,-0.869 -0.356,-1.763 -0.542,-2.681l-1.86,6.548c-0.049,0.176 -0.1,0.32 -0.154,0.432c-0.053,0.112 -0.114,0.2 -0.183,0.264c-0.068,0.063 -0.141,0.11 -0.22,0.139c-0.078,0.029 -0.166,0.054 -0.263,0.073c-0.742,0.147 -1.494,0.315 -2.256,0.506c-0.762,0.19 -1.553,0.427 -2.373,0.71c-0.02,0 -0.034,0.003 -0.044,0.007c-0.01,0.005 -0.02,0.008 -0.029,0.008l-0.103,0c-0.049,0 -0.09,-0.017 -0.124,-0.052c-0.035,-0.034 -0.052,-0.065 -0.052,-0.095c-0.136,-0.429 -0.293,-0.974 -0.468,-1.633c-0.176,-0.659 -0.364,-1.397 -0.564,-2.212c-0.201,-0.815 -0.408,-1.687 -0.623,-2.615c-0.215,-0.927 -0.434,-1.87 -0.659,-2.827c-0.225,-0.957 -0.447,-1.907 -0.667,-2.849c-0.219,-0.942 -0.432,-1.838 -0.637,-2.688c-0.068,-0.156 -0.107,-0.286 -0.117,-0.388c-0.01,-0.103 -0.015,-0.188 -0.015,-0.257c0,-0.136 0.078,-0.224 0.235,-0.263c0.761,-0.166 1.552,-0.34 2.373,-0.52c0.82,-0.181 1.596,-0.413 2.329,-0.696c0.029,-0.01 0.073,-0.015 0.132,-0.015c0.127,0 0.195,0.049 0.205,0.147l1.64,10.137l2.3,-8.848Z" style="fill:#fff;fill-rule:nonzero;"/><path d="M364.931,46.262c-1.377,0 -2.585,-0.225 -3.625,-0.674c-1.041,-0.449 -1.912,-1.047 -2.615,-1.795c-0.703,-0.747 -1.231,-1.606 -1.582,-2.578c-0.352,-0.971 -0.528,-1.98 -0.528,-3.025c0,-1.044 0.171,-2.038 0.513,-2.981c0.342,-0.942 0.82,-1.787 1.436,-2.534c0.615,-0.747 1.352,-1.372 2.212,-1.875c0.859,-0.503 1.806,-0.842 2.841,-1.018c0.157,-0.01 0.235,-0.044 0.235,-0.102c0,-0.108 -0.012,-0.208 -0.037,-0.301c-0.024,-0.092 -0.037,-0.173 -0.037,-0.241c0,-0.108 0.02,-0.181 0.059,-0.22c0.039,-0.039 0.083,-0.059 0.132,-0.059c1.865,0 3.452,0.213 4.761,0.638c1.308,0.424 2.373,1.003 3.193,1.735c0.82,0.733 1.416,1.597 1.787,2.593c0.371,0.996 0.557,2.066 0.557,3.208c0,1.455 -0.244,2.754 -0.733,3.897c-0.488,1.142 -1.154,2.109 -1.999,2.9c-0.845,0.791 -1.831,1.394 -2.959,1.809c-1.128,0.415 -2.332,0.623 -3.611,0.623Zm-2.71,-8.233c0,0.528 0.056,1.05 0.169,1.568c0.112,0.517 0.297,0.986 0.556,1.406c0.259,0.42 0.598,0.759 1.018,1.018c0.42,0.259 0.943,0.388 1.568,0.388c0.449,-0.019 0.842,-0.119 1.179,-0.3c0.337,-0.181 0.627,-0.415 0.871,-0.703c0.245,-0.288 0.447,-0.613 0.608,-0.974c0.161,-0.362 0.288,-0.735 0.381,-1.121c0.093,-0.386 0.159,-0.764 0.198,-1.135c0.039,-0.371 0.058,-0.708 0.058,-1.011c0,-0.508 -0.075,-1.006 -0.227,-1.494c-0.151,-0.488 -0.373,-0.918 -0.666,-1.289c-0.293,-0.371 -0.657,-0.672 -1.091,-0.901c-0.435,-0.23 -0.935,-0.344 -1.502,-0.344c-0.586,0 -1.079,0.173 -1.479,0.52c-0.401,0.346 -0.721,0.774 -0.96,1.281c-0.239,0.508 -0.412,1.043 -0.52,1.604c-0.107,0.562 -0.161,1.058 -0.161,1.487Z" style="fill:#fff;fill-rule:nonzero;"/><path d="M388.09,33.576c-0.205,-0.019 -0.434,-0.041 -0.688,-0.066c-0.254,-0.024 -0.523,-0.036 -0.806,-0.036c-0.43,0 -0.867,0.036 -1.311,0.109c-0.444,0.074 -0.857,0.218 -1.238,0.433c-0.381,0.214 -0.708,0.51 -0.981,0.886c-0.274,0.376 -0.449,0.862 -0.528,1.457c-0.068,0.723 -0.124,1.316 -0.168,1.78c-0.044,0.464 -0.076,0.845 -0.095,1.143c-0.02,0.298 -0.037,0.537 -0.052,0.718c-0.014,0.18 -0.026,0.349 -0.036,0.505c0,0.039 -0.007,0.146 -0.022,0.322c-0.015,0.176 -0.037,0.381 -0.066,0.615c-0.029,0.235 -0.056,0.489 -0.081,0.762c-0.024,0.274 -0.051,0.527 -0.08,0.762c-0.029,0.234 -0.051,0.439 -0.066,0.615c-0.015,0.176 -0.022,0.283 -0.022,0.322c0,0.078 0.002,0.144 0.007,0.198c0.005,0.054 0.008,0.105 0.008,0.154c0,0.078 -0.037,0.144 -0.11,0.198c-0.074,0.053 -0.237,0.114 -0.491,0.183l-3.882,1.391c-0.107,0.039 -0.249,0.088 -0.425,0.147c-0.175,0.058 -0.346,0.088 -0.512,0.088c-0.137,0 -0.257,-0.034 -0.359,-0.103c-0.103,-0.068 -0.154,-0.185 -0.154,-0.351l1.26,-14.517c0.029,-0.322 0.066,-0.544 0.11,-0.666c0.044,-0.123 0.153,-0.203 0.329,-0.242c0.889,-0.176 1.807,-0.354 2.754,-0.535c0.947,-0.181 1.865,-0.412 2.754,-0.696c0.078,0 0.125,0.013 0.139,0.037c0.015,0.024 0.022,0.061 0.022,0.11c0,0.019 -0.002,0.049 -0.007,0.088c-0.005,0.039 -0.02,0.127 -0.044,0.263c-0.025,0.137 -0.059,0.345 -0.103,0.623c-0.044,0.278 -0.105,0.666 -0.183,1.164c0.449,-0.351 0.945,-0.673 1.487,-0.966c0.542,-0.293 1.086,-0.545 1.633,-0.755c0.547,-0.21 1.075,-0.376 1.582,-0.498c0.508,-0.122 0.953,-0.183 1.333,-0.183l-0.908,4.541Z" style="fill:#fff;fill-rule:nonzero;"/><path d="M397.245,23.264l-0.527,5.083c-0.068,0.683 -0.139,1.377 -0.212,2.08c-0.074,0.703 -0.144,1.377 -0.213,2.021c-0.068,0.645 -0.132,1.24 -0.19,1.787c-0.059,0.547 -0.108,0.996 -0.147,1.348l1.011,-1.113l1.641,-1.919c0.205,-0.235 0.405,-0.469 0.6,-0.703c0.196,-0.235 0.371,-0.442 0.528,-0.623c0.156,-0.181 0.283,-0.332 0.381,-0.454c0.097,-0.122 0.156,-0.193 0.175,-0.212l5.889,-0.411c0.029,-0.009 0.061,-0.014 0.095,-0.014c0.034,0 0.066,0 0.095,0c0.166,0 0.249,0.044 0.249,0.132c0,0.068 -0.102,0.219 -0.307,0.454l-4.585,5.127c-0.205,0.224 -0.447,0.486 -0.725,0.783c-0.279,0.298 -0.589,0.628 -0.93,0.989l2.138,2.549l3.692,3.97c0.029,0.049 0.073,0.085 0.132,0.11c0.058,0.024 0.114,0.046 0.168,0.065c0.054,0.02 0.103,0.042 0.146,0.066c0.044,0.025 0.066,0.061 0.066,0.11c0,0.039 -0.007,0.069 -0.022,0.088c-0.014,0.02 -0.061,0.059 -0.139,0.117c-0.088,0.069 -0.241,0.166 -0.461,0.293c-0.22,0.127 -0.476,0.269 -0.769,0.425c-0.293,0.156 -0.606,0.315 -0.938,0.476c-0.332,0.161 -0.654,0.308 -0.967,0.44c-0.312,0.131 -0.6,0.239 -0.864,0.322c-0.263,0.083 -0.469,0.124 -0.615,0.124c-0.117,0 -0.232,-0.029 -0.344,-0.087c-0.113,-0.059 -0.237,-0.166 -0.374,-0.323c-0.185,-0.215 -0.417,-0.495 -0.696,-0.842c-0.278,-0.347 -0.578,-0.728 -0.9,-1.143c-0.323,-0.415 -0.652,-0.844 -0.989,-1.289c-0.337,-0.444 -0.659,-0.869 -0.967,-1.274c-0.308,-0.405 -0.586,-0.772 -0.835,-1.099c-0.249,-0.327 -0.442,-0.588 -0.579,-0.783c-0.048,0.048 -0.097,0.085 -0.146,0.109c-0.049,0.025 -0.095,0.057 -0.139,0.096c-0.044,0.039 -0.081,0.085 -0.11,0.139c-0.029,0.054 -0.044,0.129 -0.044,0.227c0,0.039 -0.01,0.149 -0.029,0.329c-0.02,0.181 -0.042,0.396 -0.066,0.645c-0.025,0.249 -0.052,0.515 -0.081,0.798c-0.029,0.284 -0.056,0.55 -0.08,0.799c-0.025,0.249 -0.047,0.464 -0.066,0.644c-0.02,0.181 -0.03,0.291 -0.03,0.33c0,0.068 0.003,0.124 0.008,0.168c0.005,0.044 0.007,0.086 0.007,0.125c0,0.107 -0.037,0.188 -0.11,0.241c-0.073,0.054 -0.251,0.12 -0.534,0.198l-3.838,1.245c-0.108,0.039 -0.249,0.088 -0.425,0.147c-0.176,0.058 -0.347,0.088 -0.513,0.088c-0.137,0 -0.256,-0.034 -0.359,-0.103c-0.102,-0.068 -0.154,-0.195 -0.154,-0.381l1.846,-21.108c0,-0.049 -0.005,-0.095 -0.015,-0.139c-0.009,-0.044 -0.014,-0.091 -0.014,-0.139c0,-0.088 0.036,-0.169 0.11,-0.242c0.073,-0.073 0.241,-0.144 0.505,-0.212l4.116,-0.982c0.108,-0.019 0.249,-0.063 0.425,-0.132c0.176,-0.068 0.347,-0.102 0.513,-0.102c0.127,0 0.246,0.029 0.359,0.088c0.112,0.058 0.168,0.17 0.168,0.336c0,0.02 -0.002,0.04 -0.007,0.059c-0.005,0.02 -0.008,0.039 -0.008,0.059Z" style="fill:#fff;fill-rule:nonzero;"/><path d="M413.842,28.361c-0.312,1.524 -0.618,3.045 -0.915,4.563c-0.298,1.519 -0.574,3.055 -0.828,4.607c-0.02,0.323 -0.051,0.547 -0.095,0.674c-0.044,0.127 -0.154,0.205 -0.33,0.234c-0.381,0.069 -0.757,0.142 -1.128,0.22c-0.371,0.078 -0.761,0.171 -1.172,0.279c-0.078,-0.001 -0.124,-0.013 -0.139,-0.037c-0.014,-0.025 -0.022,-0.061 -0.022,-0.11l-0.146,-14.473c0.019,-0.312 0.053,-0.532 0.102,-0.659c0.049,-0.127 0.157,-0.21 0.323,-0.249c0.83,-0.185 1.669,-0.398 2.519,-0.637c0.85,-0.239 1.748,-0.481 2.695,-0.725c0.03,-0.01 0.074,-0.015 0.132,-0.015c0.108,0 0.161,0.049 0.161,0.147c0,0.009 -0.019,0.129 -0.058,0.359c-0.039,0.229 -0.091,0.524 -0.154,0.886c-0.064,0.361 -0.134,0.769 -0.212,1.223c-0.079,0.454 -0.162,0.908 -0.249,1.362c-0.088,0.454 -0.174,0.889 -0.257,1.304c-0.083,0.415 -0.158,0.764 -0.227,1.047Zm-0.513,12.129c-0.029,0.42 -0.051,0.742 -0.065,0.967c-0.015,0.225 -0.027,0.393 -0.037,0.505c-0.01,0.113 -0.015,0.184 -0.015,0.213c0,0.029 -0.002,0.051 -0.007,0.066c-0.005,0.014 -0.01,0.044 -0.015,0.088c-0.005,0.044 -0.012,0.136 -0.022,0.278c-0.009,0.142 -0.024,0.349 -0.044,0.622c-0.019,0.274 -0.048,0.65 -0.088,1.128c-0.019,0.323 -0.051,0.545 -0.095,0.667c-0.044,0.122 -0.154,0.203 -0.329,0.242c-0.83,0.166 -1.7,0.339 -2.608,0.52c-0.908,0.18 -1.787,0.412 -2.636,0.695c-0.03,0.01 -0.074,0.015 -0.132,0.015l-0.132,-0.117c-0.02,-0.02 -0.029,-0.029 -0.029,-0.029l0.322,-4.014c0.019,-0.313 0.051,-0.532 0.095,-0.659c0.044,-0.127 0.154,-0.21 0.33,-0.249c0.83,-0.147 1.67,-0.313 2.519,-0.498c0.85,-0.186 1.748,-0.376 2.695,-0.572c0.03,-0.009 0.074,-0.014 0.132,-0.014c0.108,0 0.161,0.049 0.161,0.146Z" style="fill:#fff;fill-rule:nonzero;"/></g></g></g></svg>